<?xml version="1.0" encoding="UTF-8"?>
<svg version="1.1" xmlns="http://www.w3.org/2000/svg" width="1005" height="1802">
<path d="M0 0 C2.55993442 -0.0034614 5.11986734 -0.00822919 7.67979717 -0.01418173 C13.22086908 -0.02495316 18.76185311 -0.02472763 24.30292892 -0.01704025 C32.54302711 -0.00563976 40.78305187 -0.0115214 49.02314964 -0.02066517 C63.74440974 -0.03642411 78.46563066 -0.03510852 93.18689445 -0.02642844 C106.07002488 -0.01886983 118.95314099 -0.01691722 131.83627319 -0.02049637 C132.6921725 -0.02072552 133.54807181 -0.02095468 134.42990746 -0.02119078 C137.90463136 -0.02212485 141.37935525 -0.02308006 144.85407914 -0.02407007 C177.42301733 -0.03323882 209.99193063 -0.02493979 242.56086497 -0.00877938 C271.4710099 0.00545652 300.38111518 0.0041826 329.29125977 -0.01016235 C361.80215596 -0.0262402 394.31303017 -0.03258847 426.82392979 -0.02332556 C430.29217592 -0.02236347 433.76042207 -0.02142494 437.22866821 -0.02049637 C438.08258481 -0.02025914 438.93650141 -0.0200219 439.81629428 -0.01977748 C452.68860124 -0.01637082 465.56089227 -0.02034514 478.43319702 -0.02793503 C493.07546233 -0.0365257 507.71768249 -0.03434085 522.3599422 -0.0180928 C530.54598756 -0.00930766 538.73193503 -0.00867446 546.91797778 -0.02003132 C553.04120707 -0.02758661 559.16432195 -0.01934576 565.28753722 -0.0051076 C567.75635807 -0.00176939 570.22519211 -0.00343208 572.69400442 -0.01073496 C601.02258743 -0.08807381 626.59678463 3.84014197 648.5324707 23.38095093 C649.2852832 24.01388062 650.0380957 24.6468103 650.8137207 25.29891968 C654.84233162 28.70369719 658.3785131 32.14282039 661.5324707 36.38095093 C661.5324707 37.04095093 661.5324707 37.70095093 661.5324707 38.38095093 C662.1924707 38.38095093 662.8524707 38.38095093 663.5324707 38.38095093 C665.17917349 40.68266188 666.68315592 42.97102928 668.1574707 45.38095093 C668.8229895 46.46050049 668.8229895 46.46050049 669.50195312 47.56185913 C676.44210231 58.99613108 681.9835407 70.80140988 686.5324707 83.38095093 C687.05266463 84.69370448 687.5734146 86.00623797 688.0949707 87.31845093 C691.44670152 96.41331601 693.72347374 105.77489361 695.6574707 115.25595093 C695.81594482 116.02068726 695.97441895 116.78542358 696.13769531 117.57333374 C698.7037411 130.60696055 699.82127622 143.82347971 700.79370117 157.05233765 C701.72445989 169.67816988 702.76498737 182.28414214 704.0324707 194.88095093 C705.27023001 207.20854976 706.27562812 219.54327496 707.2199707 231.89611816 C708.02474509 242.386347 708.93770474 252.85362943 710.0324707 263.31845093 C711.42739011 276.67112741 712.47360221 290.03865917 713.47119141 303.4258728 C714.20391864 313.24105766 714.98697821 323.04626414 715.97412109 332.8399353 C716.04880615 333.6049939 716.12349121 334.37005249 716.20043945 335.15829468 C716.26513428 335.78985474 716.3298291 336.42141479 716.39648438 337.07211304 C716.59854238 340.50274602 716.5324707 343.94437267 716.5324707 347.38095093 C734.6824707 347.38095093 752.8324707 347.38095093 771.5324707 347.38095093 C771.5324707 384.01095093 771.5324707 420.64095093 771.5324707 458.38095093 C762.9524707 458.38095093 754.3724707 458.38095093 745.5324707 458.38095093 C745.3880957 460.64970093 745.2437207 462.91845093 745.0949707 465.25595093 C745.02161499 466.40776855 745.02161499 466.40776855 744.94677734 467.58285522 C744.7024589 471.47948033 744.47667409 475.37621844 744.27856445 479.27548218 C744.23723389 480.07550659 744.19590332 480.87553101 744.15332031 481.69979858 C744.07422331 483.25009985 743.99809699 484.80055624 743.92529297 486.35116577 C743.77673146 489.23592474 743.60135656 492.03759797 743.0324707 494.87313843 C742.30917736 498.5009066 742.20557489 502.12876717 742.0324707 505.81845093 C741.66612515 513.58633347 741.66612515 513.58633347 741.0324707 517.35360718 C740.37151734 521.35547323 740.2128306 525.3328733 740.0324707 529.38095093 C739.66754167 537.57158038 739.66754167 537.57158038 739.0324707 541.37704468 C738.2352083 546.16684774 738.14059994 550.99051925 737.92700195 555.83602905 C737.87092773 556.98941772 737.87092773 556.98941772 737.8137207 558.16610718 C737.76828125 559.20070068 737.76828125 559.20070068 737.72192383 560.25619507 C737.5324707 562.38095093 737.5324707 562.38095093 737.05981445 564.59384155 C736.33184889 568.44127436 736.09043203 572.28697673 735.8137207 576.18954468 C735.75091919 577.03388565 735.68811768 577.87822662 735.62341309 578.74815369 C735.42348421 581.43804508 735.22753837 584.12820292 735.0324707 586.81845093 C734.8372783 589.50511774 734.64111746 592.19169254 734.44152832 594.8780365 C734.31758806 596.54625136 734.19612377 598.21465262 734.07751465 599.883255 C733.76395712 604.10507129 733.25214572 608.20527457 732.5324707 612.38095093 C732.40856343 613.98567787 732.31360141 615.59296923 732.2512207 617.20126343 C732.19514648 618.49870483 732.19514648 618.49870483 732.13793945 619.82235718 C732.06732038 621.61922016 731.99701053 623.41609531 731.92700195 625.21298218 C731.88961914 626.07536499 731.85223633 626.9377478 731.8137207 627.82626343 C731.78342773 628.60501831 731.75313477 629.38377319 731.72192383 630.18612671 C731.53492151 632.35255823 731.06557407 634.27769154 730.5324707 636.38095093 C730.40346409 637.75048248 730.3111248 639.1238492 730.2512207 640.49813843 C730.19514648 641.65636108 730.19514648 641.65636108 730.13793945 642.83798218 C730.10313477 643.63591187 730.06833008 644.43384155 730.0324707 645.25595093 C729.806334 650.39009164 729.39811586 655.30881131 728.5324707 660.38095093 C728.33878033 663.04957385 728.16804293 665.70967602 728.0324707 668.38095093 C727.84602187 672.0546835 727.6523461 675.67855601 727.0324707 679.31063843 C726.24373512 684.15396789 726.14061286 689.0266919 725.92700195 693.92391968 C725.87092773 695.08214233 725.87092773 695.08214233 725.8137207 696.26376343 C725.76828125 697.30621216 725.76828125 697.30621216 725.72192383 698.36972046 C725.5324707 700.38095093 725.5324707 700.38095093 725.0324707 702.34921265 C724.47710396 704.60593238 724.34006881 706.68455794 724.2512207 709.00595093 C724.21383789 709.87735718 724.17645508 710.74876343 724.13793945 711.64657593 C724.08573242 713.00009155 724.08573242 713.00009155 724.0324707 714.38095093 C723.96335775 716.17276835 723.89057508 717.96444885 723.8137207 719.75595093 C723.76828125 720.94317749 723.76828125 720.94317749 723.72192383 722.15438843 C723.53642635 724.33446192 723.06990689 726.2653208 722.5324707 728.38095093 C722.40346409 729.75048248 722.3111248 731.1238492 722.2512207 732.49813843 C722.19514648 733.65636108 722.19514648 733.65636108 722.13793945 734.83798218 C722.10313477 735.63591187 722.06833008 736.43384155 722.0324707 737.25595093 C721.806334 742.39009164 721.39811586 747.30881131 720.5324707 752.38095093 C720.33878033 755.04957385 720.16804293 757.70967602 720.0324707 760.38095093 C719.84706163 764.03419635 719.66198819 767.63824907 719.0324707 771.24813843 C718.18901306 776.53292769 718.13512344 781.87119735 717.92700195 787.21298218 C717.88961914 788.07536499 717.85223633 788.9377478 717.8137207 789.82626343 C717.78342773 790.60501831 717.75313477 791.38377319 717.72192383 792.18612671 C717.53491867 794.35259105 717.06502502 796.2775174 716.5324707 798.38095093 C716.40337727 799.76221742 716.31108671 801.14730106 716.2512207 802.53329468 C716.19514648 803.69828491 716.19514648 803.69828491 716.13793945 804.8868103 C716.10313477 805.68925171 716.06833008 806.49169312 716.0324707 807.31845093 C715.82292575 812.12634351 715.49168651 816.65981065 714.5324707 821.38095093 C714.2953706 824.18992858 714.16456841 827.00281287 714.0324707 829.81845093 C713.66605675 837.58778376 713.66605675 837.58778376 713.0324707 841.34970093 C712.24068057 846.14992861 712.14101835 850.98102757 711.92700195 855.83602905 C711.63282021 861.8870432 711.63282021 861.8870432 711.0324707 864.84188843 C710.08305854 869.66312207 710.12763476 874.61898062 709.92700195 879.5196228 C709.87092773 880.75228882 709.87092773 880.75228882 709.8137207 882.00985718 C709.76828125 883.12469482 709.76828125 883.12469482 709.72192383 884.26205444 C709.53112401 886.39601276 709.05506835 888.30714667 708.5324707 890.38095093 C708.40346409 891.75048248 708.3111248 893.1238492 708.2512207 894.49813843 C708.19514648 895.65636108 708.19514648 895.65636108 708.13793945 896.83798218 C708.10313477 897.63591187 708.06833008 898.43384155 708.0324707 899.25595093 C707.806334 904.39009164 707.39811586 909.30881131 706.5324707 914.38095093 C706.33878033 917.04957385 706.16804293 919.70967602 706.0324707 922.38095093 C705.84595694 926.05596281 705.65175635 929.68107968 705.0324707 933.31454468 C704.24758453 938.12810443 704.14155458 942.96886294 703.92700195 947.83602905 C703.63287034 953.8860121 703.63287034 953.8860121 703.0324707 956.84579468 C702.24792736 960.82367461 702.19970956 964.83624818 702.0324707 968.88095093 C701.82765826 973.83437782 701.5313937 978.51900539 700.5324707 983.38095093 C700.29515609 986.1899063 700.16456815 989.00281838 700.0324707 991.81845093 C699.79933479 996.76179573 699.35644158 1001.49506111 698.5324707 1006.38095093 C698.33878033 1009.04957385 698.16804293 1011.70967602 698.0324707 1014.38095093 C697.84706163 1018.03419635 697.66198819 1021.63824907 697.0324707 1025.24813843 C696.18901306 1030.53292769 696.13512344 1035.87119735 695.92700195 1041.21298218 C695.87092773 1042.5065564 695.87092773 1042.5065564 695.8137207 1043.82626343 C695.76828125 1044.99439575 695.76828125 1044.99439575 695.72192383 1046.18612671 C695.5324707 1048.38095093 695.5324707 1048.38095093 695.0324707 1050.3765564 C694.47201277 1052.62331404 694.33974641 1054.69298142 694.2512207 1057.00595093 C694.19514648 1058.3130603 694.19514648 1058.3130603 694.13793945 1059.64657593 C694.08573242 1061.00009155 694.08573242 1061.00009155 694.0324707 1062.38095093 C693.96335775 1064.17276835 693.89057508 1065.96444885 693.8137207 1067.75595093 C693.76828125 1068.94317749 693.76828125 1068.94317749 693.72192383 1070.15438843 C693.53646585 1072.33399761 693.07690381 1074.26755094 692.5324707 1076.38095093 C692.33161522 1079.00881022 692.16282194 1081.62478706 692.0324707 1084.25595093 C691.84611721 1087.97611889 691.65691596 1091.64789057 691.0324707 1095.32626343 C690.37581989 1099.33798949 690.21323543 1103.32378716 690.0324707 1107.38095093 C689.66754167 1115.57158038 689.66754167 1115.57158038 689.0324707 1119.37704468 C688.2352083 1124.16684774 688.14059994 1128.99051925 687.92700195 1133.83602905 C687.73420772 1137.80160693 687.32129309 1141.48614037 686.5324707 1145.38095093 C686.29543181 1148.18993493 686.16456848 1151.0028113 686.0324707 1153.81845093 C685.79931802 1158.76215124 685.3609041 1163.49563045 684.5324707 1168.38095093 C684.14471439 1171.93876543 683.83728007 1175.5026839 683.5324707 1179.06845093 C683.44489502 1180.07561157 683.35731934 1181.08277222 683.26708984 1182.12045288 C682.63977086 1189.55415364 682.17503696 1196.98626049 681.87426758 1204.4402771 C681.63356019 1209.97961723 681.63356019 1209.97961723 681.03466797 1212.35726929 C680.51567701 1214.44862371 680.34495376 1216.34776261 680.2512207 1218.49813843 C680.21383789 1219.27028687 680.17645508 1220.0424353 680.13793945 1220.83798218 C680.08573242 1222.03487671 680.08573242 1222.03487671 680.0324707 1223.25595093 C679.96283989 1224.83682824 679.88998786 1226.41756737 679.8137207 1227.99813843 C679.76828125 1229.04397095 679.76828125 1229.04397095 679.72192383 1230.1109314 C679.5324707 1232.38095093 679.5324707 1232.38095093 679.05981445 1235.08236694 C678.39722747 1239.22690989 678.10333154 1243.35632719 677.8137207 1247.54110718 C677.68481566 1249.32170622 677.55590938 1251.10230518 677.42700195 1252.88290405 C677.22873502 1255.66971058 677.03154268 1258.4565911 676.8347168 1261.24349976 C676.64281268 1263.94706207 676.44713812 1266.6503332 676.2512207 1269.35360718 C676.19389771 1270.1839296 676.13657471 1271.01425201 676.07751465 1271.86973572 C675.79248308 1275.79218178 675.35367752 1279.52857473 674.5324707 1283.38095093 C674.40616411 1284.87986509 674.31238764 1286.38187494 674.2512207 1287.88485718 C674.19514648 1289.11945679 674.19514648 1289.11945679 674.13793945 1290.3789978 C674.06746657 1292.09253288 673.9971548 1293.80607459 673.92700195 1295.5196228 C673.87092773 1296.75228882 673.87092773 1296.75228882 673.8137207 1298.00985718 C673.76828125 1299.12469482 673.76828125 1299.12469482 673.72192383 1300.26205444 C673.53112401 1302.39601276 673.05506835 1304.30714667 672.5324707 1306.38095093 C672.40346409 1307.75048248 672.3111248 1309.1238492 672.2512207 1310.49813843 C672.21383789 1311.27028687 672.17645508 1312.0424353 672.13793945 1312.83798218 C672.08573242 1314.03487671 672.08573242 1314.03487671 672.0324707 1315.25595093 C671.96283989 1316.83682824 671.88998786 1318.41756737 671.8137207 1319.99813843 C671.76828125 1321.04397095 671.76828125 1321.04397095 671.72192383 1322.1109314 C671.5324707 1324.38095093 671.5324707 1324.38095093 671.05981445 1327.08236694 C670.39722747 1331.22690989 670.10333154 1335.35632719 669.8137207 1339.54110718 C669.68481566 1341.32170622 669.55590938 1343.10230518 669.42700195 1344.88290405 C669.22873502 1347.66971058 669.03154268 1350.4565911 668.8347168 1353.24349976 C668.64281268 1355.94706207 668.44713812 1358.6503332 668.2512207 1361.35360718 C668.19389771 1362.1839296 668.13657471 1363.01425201 668.07751465 1363.86973572 C667.79239858 1367.79334468 667.34341396 1371.52603834 666.5324707 1375.38095093 C666.40425603 1377.0374977 666.31149424 1378.69710585 666.2512207 1380.35751343 C666.19514648 1381.73423218 666.19514648 1381.73423218 666.13793945 1383.13876343 C666.06733996 1385.05802373 665.99702978 1386.97729469 665.92700195 1388.89657593 C665.87092773 1390.26942749 665.87092773 1390.26942749 665.8137207 1391.67001343 C665.76828125 1392.91838989 665.76828125 1392.91838989 665.72192383 1394.19198608 C665.5324707 1396.38095093 665.5324707 1396.38095093 664.5324707 1399.38095093 C664.32719754 1402.15498962 664.159903 1404.9158988 664.0324707 1407.69345093 C663.96275775 1409.18969738 663.88989631 1410.68580082 663.8137207 1412.18173218 C663.76828125 1413.17427002 663.76828125 1413.17427002 663.72192383 1414.18685913 C663.5324707 1416.38095093 663.5324707 1416.38095093 663.05981445 1419.04135132 C662.37856756 1423.35559957 662.09902604 1427.65784466 661.8137207 1432.01376343 C661.68483502 1433.89006692 661.55592814 1435.76636896 661.42700195 1437.64266968 C661.22853751 1440.58319371 661.03127795 1443.52379517 660.8347168 1446.46444702 C660.64319713 1449.31443071 660.44737854 1452.16409581 660.2512207 1455.01376343 C660.19389771 1455.89299469 660.13657471 1456.77222595 660.07751465 1457.67810059 C660.02075562 1458.49930389 659.96399658 1459.3205072 659.90551758 1460.16659546 C659.85745972 1460.88574127 659.80940186 1461.60488708 659.7598877 1462.3458252 C659.52710277 1464.42898792 659.06011195 1466.35499707 658.5324707 1468.38095093 C658.40152465 1469.91990457 658.31029161 1471.4625664 658.2512207 1473.00595093 C658.19514648 1474.3130603 658.19514648 1474.3130603 658.13793945 1475.64657593 C658.08573242 1477.00009155 658.08573242 1477.00009155 658.0324707 1478.38095093 C657.96335775 1480.17276835 657.89057508 1481.96444885 657.8137207 1483.75595093 C657.76828125 1484.94317749 657.76828125 1484.94317749 657.72192383 1486.15438843 C657.5324707 1488.38095093 657.5324707 1488.38095093 657.04394531 1490.26818848 C656.54027542 1492.34871178 656.30937068 1494.27874067 656.15942383 1496.41171265 C656.10266479 1497.19287445 656.04590576 1497.97403625 655.98742676 1498.77886963 C655.93010376 1499.61435333 655.87278076 1500.44983704 655.8137207 1501.31063843 C655.75091919 1502.17859039 655.68811768 1503.04654236 655.62341309 1503.9407959 C655.42309956 1506.71228735 655.22733466 1509.48407135 655.0324707 1512.25595093 C654.83736513 1515.02066916 654.64118088 1517.78528883 654.44152832 1520.54968262 C654.31747315 1522.26797411 654.19600868 1523.98645521 654.07751465 1525.70513916 C653.7687985 1529.98821973 653.27451165 1534.14679478 652.5324707 1538.38095093 C652.41084338 1539.82809668 652.31483832 1541.27775334 652.2512207 1542.72860718 C652.19514648 1543.88392944 652.19514648 1543.88392944 652.13793945 1545.06259155 C652.06745425 1546.65372974 651.99714259 1548.24487563 651.92700195 1549.83602905 C651.7341861 1553.80205164 651.31299213 1557.48458797 650.5324707 1561.38095093 C650.43988197 1563.27181861 650.35074516 1565.1630385 650.29223633 1567.05526733 C649.97630951 1576.94932696 648.84539518 1586.70416774 647.5324707 1596.50595093 C647.44274994 1597.18600189 647.35302917 1597.86605286 647.2605896 1598.56671143 C645.71597127 1610.19745036 645.71597127 1610.19745036 644.5324707 1611.38095093 C643.90600949 1614.40758882 643.34324941 1617.43772339 642.8137207 1620.48251343 C641.95029571 1625.11194107 640.45678665 1629.05748784 638.5324707 1633.38095093 C637.92824843 1635.34778147 637.36133758 1637.3267501 636.8449707 1639.31845093 C636.46791992 1640.75511108 636.46791992 1640.75511108 636.08325195 1642.22079468 C635.81061523 1643.29007202 635.81061523 1643.29007202 635.5324707 1644.38095093 C634.8724707 1644.38095093 634.2124707 1644.38095093 633.5324707 1644.38095093 C633.44094727 1645.04481812 633.34942383 1645.7086853 633.25512695 1646.39266968 C632.31883792 1650.26435138 630.69765327 1653.61834542 628.9699707 1657.19345093 C628.4759375 1658.23275757 628.4759375 1658.23275757 627.97192383 1659.2930603 C627.16374819 1660.9914004 626.34878694 1662.68650861 625.5324707 1664.38095093 C624.8724707 1664.38095093 624.2124707 1664.38095093 623.5324707 1664.38095093 C623.5324707 1665.70095093 623.5324707 1667.02095093 623.5324707 1668.38095093 C622.8724707 1668.38095093 622.2124707 1668.38095093 621.5324707 1668.38095093 C621.5324707 1669.04095093 621.5324707 1669.70095093 621.5324707 1670.38095093 C620.8724707 1670.38095093 620.2124707 1670.38095093 619.5324707 1670.38095093 C619.5324707 1671.70095093 619.5324707 1673.02095093 619.5324707 1674.38095093 C618.8724707 1674.38095093 618.2124707 1674.38095093 617.5324707 1674.38095093 C617.5324707 1675.04095093 617.5324707 1675.70095093 617.5324707 1676.38095093 C616.8724707 1676.38095093 616.2124707 1676.38095093 615.5324707 1676.38095093 C615.5324707 1677.04095093 615.5324707 1677.70095093 615.5324707 1678.38095093 C614.8724707 1678.38095093 614.2124707 1678.38095093 613.5324707 1678.38095093 C613.2849707 1678.95329468 613.0374707 1679.52563843 612.7824707 1680.11532593 C611.33930871 1682.73105704 609.65030848 1684.52868549 607.5324707 1686.63095093 C606.8312207 1687.33735718 606.1299707 1688.04376343 605.4074707 1688.77157593 C603.5324707 1690.38095093 603.5324707 1690.38095093 601.5324707 1690.38095093 C601.5324707 1691.04095093 601.5324707 1691.70095093 601.5324707 1692.38095093 C600.8724707 1692.38095093 600.2124707 1692.38095093 599.5324707 1692.38095093 C599.5324707 1693.04095093 599.5324707 1693.70095093 599.5324707 1694.38095093 C597.5524707 1695.04095093 595.5724707 1695.70095093 593.5324707 1696.38095093 C593.5324707 1697.04095093 593.5324707 1697.70095093 593.5324707 1698.38095093 C592.28786288 1699.05763091 591.03650174 1699.72189812 589.7824707 1700.38095093 C589.08637695 1700.75220093 588.3902832 1701.12345093 587.6730957 1701.50595093 C585.5324707 1702.38095093 585.5324707 1702.38095093 581.5324707 1702.38095093 C581.5324707 1703.04095093 581.5324707 1703.70095093 581.5324707 1704.38095093 C579.4324331 1705.04008682 577.32713164 1705.68245498 575.2199707 1706.31845093 C574.04821289 1706.67809937 572.87645508 1707.0377478 571.66918945 1707.40829468 C559.79494716 1710.47192195 546.99426524 1709.52434748 534.83462524 1709.5146637 C532.61112885 1709.51653324 530.38763279 1709.51883452 528.16413724 1709.52152902 C522.06863604 1709.5276355 515.97314858 1709.52751478 509.87764502 1709.52633464 C503.97432503 1709.52615135 498.07100975 1709.53064528 492.16769161 1709.53494753 C478.60731586 1709.54460445 465.04694391 1709.54743114 451.48656513 1709.54800459 C441.01401614 1709.54846457 430.54146864 1709.55052516 420.06892014 1709.55370522 C417.05176302 1709.55460279 414.0346059 1709.5554926 411.01744878 1709.55638009 C410.2673295 1709.55660114 409.51721021 1709.55682219 408.74436004 1709.55704994 C387.65356146 1709.56320156 366.5627634 1709.56715075 345.47196388 1709.56670666 C344.67725622 1709.56669108 343.88254855 1709.5666755 343.06375884 1709.56665945 C339.03606138 1709.56657634 335.00836393 1709.5664773 330.98066647 1709.56637474 C330.1807833 1709.5663548 329.38090012 1709.56633485 328.55677806 1709.5663143 C326.9392213 1709.56627386 325.32166454 1709.56623207 323.70410777 1709.56618891 C298.53425943 1709.56557608 273.36442456 1709.57308528 248.19458008 1709.58676147 C219.90205534 1709.60212815 191.60953946 1709.61072738 163.31701028 1709.60979825 C160.29922446 1709.60972362 157.28143863 1709.60967492 154.2636528 1709.60964394 C153.14910764 1709.60962645 153.14910764 1709.60962645 152.01204642 1709.60960862 C140.06592776 1709.60957787 128.11982081 1709.61595778 116.17370564 1709.6245762 C104.16507383 1709.63306048 92.15645912 1709.63403652 80.14782597 1709.62746688 C73.6450179 1709.62420033 67.14225221 1709.62414998 60.63944817 1709.63282013 C54.6832863 1709.64067976 48.72720048 1709.63925911 42.77104048 1709.630536 C40.61973869 1709.62899986 38.46843124 1709.63082145 36.31713612 1709.63639607 C14.68918808 1709.68871557 -3.21700152 1706.65559544 -22.4675293 1696.38095093 C-22.4675293 1695.72095093 -22.4675293 1695.06095093 -22.4675293 1694.38095093 C-23.0037793 1694.13345093 -23.5400293 1693.88595093 -24.0925293 1693.63095093 C-27.04992749 1692.07442556 -29.7647698 1690.3465942 -32.4675293 1688.38095093 C-32.4675293 1687.72095093 -32.4675293 1687.06095093 -32.4675293 1686.38095093 C-33.1275293 1686.38095093 -33.7875293 1686.38095093 -34.4675293 1686.38095093 C-34.4675293 1685.72095093 -34.4675293 1685.06095093 -34.4675293 1684.38095093 C-35.1275293 1684.38095093 -35.7875293 1684.38095093 -36.4675293 1684.38095093 C-38.10458261 1682.52176956 -39.60606174 1680.66861632 -41.0925293 1678.69345093 C-41.76131104 1677.80822754 -41.76131104 1677.80822754 -42.44360352 1676.90512085 C-57.23627767 1657.03984279 -65.2313385 1635.04049222 -70.7175293 1611.06845093 C-70.86867188 1610.41296265 -71.01981445 1609.75747437 -71.17553711 1609.0821228 C-74.26714535 1594.77558353 -75.18423178 1580.05992144 -76.38549805 1565.50595093 C-76.56472712 1563.36899835 -76.74432732 1561.23207688 -76.92427063 1559.09518433 C-77.30601763 1554.55510098 -77.68571182 1550.01485288 -78.0637207 1545.47445679 C-78.9670589 1534.62755 -79.88180982 1523.78160322 -80.79655838 1512.93565369 C-81.00205802 1510.49892665 -81.20743835 1508.06218955 -81.41270065 1505.6254425 C-83.13871194 1485.14038613 -84.92571121 1464.66143717 -86.76098251 1444.18591309 C-89.54730175 1413.09193864 -92.21378612 1381.98862434 -94.8425293 1350.88095093 C-97.77312604 1316.20994688 -100.74217567 1281.54272734 -103.7800293 1246.88095093 C-103.96246853 1244.79864547 -104.14490259 1242.71633956 -104.32733154 1240.6340332 C-104.98744977 1233.09982165 -105.64768054 1225.56561996 -106.30818939 1218.03144264 C-108.97419373 1187.62129174 -111.62641282 1157.20994151 -114.27344894 1126.79813433 C-114.46735912 1124.57040599 -114.66130369 1122.34268065 -114.85525513 1120.1149559 C-118.56949567 1077.4509116 -122.23162666 1034.78278728 -125.83618164 992.10931396 C-128.21877583 963.90680399 -130.65746067 935.71026152 -133.17869949 907.51981735 C-135.8782268 877.33192462 -138.44985362 847.13398922 -140.99788666 816.93296432 C-144.21859414 778.76755877 -147.54146993 740.61169435 -150.91430521 702.45949507 C-154.09683641 666.45917941 -157.26218677 630.45800243 -160.2800293 594.44345093 C-160.34904575 593.61993511 -160.41806221 592.7964193 -160.48917007 591.94794846 C-161.09176471 584.7560394 -161.69352329 577.56406049 -162.29460144 570.37202454 C-163.6404514 554.2764034 -165.01009933 538.18282941 -166.38778687 522.08990479 C-166.64386885 519.09851485 -166.89943648 516.10708184 -167.15444946 513.11560059 C-167.503717 509.01905257 -167.85439401 504.92262772 -168.20581055 500.82626343 C-168.31411697 499.56315842 -168.4224234 498.30005341 -168.53401184 496.99867249 C-169.25855029 488.61832463 -170.02923975 480.24330858 -170.89338684 471.87609863 C-170.96965805 471.11312469 -171.04592926 470.35015076 -171.12451172 469.5640564 C-171.22453743 468.59651932 -171.22453743 468.59651932 -171.32658386 467.60943604 C-171.52077714 464.53905054 -171.4675293 461.45747138 -171.4675293 458.38095093 C-180.0475293 458.38095093 -188.6275293 458.38095093 -197.4675293 458.38095093 C-197.4675293 421.75095093 -197.4675293 385.12095093 -197.4675293 347.38095093 C-180.9675293 347.38095093 -164.4675293 347.38095093 -147.4675293 347.38095093 C-147.4675293 343.75095093 -147.4675293 340.12095093 -147.4675293 336.38095093 C-147.36081145 334.32173781 -147.22628842 332.26347219 -147.04560852 330.20942688 C-146.90499245 328.57074394 -146.90499245 328.57074394 -146.76153564 326.8989563 C-146.65718201 325.73922302 -146.55282837 324.57948975 -146.4453125 323.38461304 C-146.33630112 322.13017899 -146.22728973 320.87574493 -146.11497498 319.58329773 C-145.81723688 316.1582942 -145.51366369 312.73383055 -145.20903802 309.3094337 C-144.88487862 305.6533693 -144.5663166 301.99681685 -144.24711609 298.34031677 C-143.63708075 291.36166532 -143.02226791 284.3834436 -142.40564746 277.40537125 C-141.59042039 268.17730155 -140.78184501 258.94865006 -139.97314811 249.72000623 C-139.77395179 247.44696082 -139.57471975 245.17391855 -139.37545776 242.90087891 C-139.30988706 242.15289272 -139.24431635 241.40490653 -139.17675865 240.6342541 C-138.71390257 235.35690697 -138.24882811 230.07975793 -137.7829895 224.80267334 C-136.57503911 211.10945825 -135.37805251 197.41564071 -134.23275006 183.71702611 C-134.06416513 181.70310192 -133.89479905 179.68924507 -133.72512722 177.67541218 C-133.2060455 171.51372476 -132.6913503 165.35177502 -132.18782043 159.188797 C-130.71905539 141.55023286 -128.98410046 123.89554297 -124.6550293 106.69345093 C-124.39423584 105.64367065 -124.13344238 104.59389038 -123.86474609 103.51229858 C-114.94500293 68.35406927 -98.48804888 32.92306981 -66.54589844 13.2383728 C-45.81727395 0.97257537 -23.43912609 -0.06933418 0 0 Z " fill="#0072B0" transform="translate(209.467529296875,51.619049072265625)"/>
<path d="M0 0 C2.55993442 -0.0034614 5.11986734 -0.00822919 7.67979717 -0.01418173 C13.22086908 -0.02495316 18.76185311 -0.02472763 24.30292892 -0.01704025 C32.54302711 -0.00563976 40.78305187 -0.0115214 49.02314964 -0.02066517 C63.74440974 -0.03642411 78.46563066 -0.03510852 93.18689445 -0.02642844 C106.07002488 -0.01886983 118.95314099 -0.01691722 131.83627319 -0.02049637 C132.6921725 -0.02072552 133.54807181 -0.02095468 134.42990746 -0.02119078 C137.90463136 -0.02212485 141.37935525 -0.02308006 144.85407914 -0.02407007 C177.42301733 -0.03323882 209.99193063 -0.02493979 242.56086497 -0.00877938 C271.4710099 0.00545652 300.38111518 0.0041826 329.29125977 -0.01016235 C361.80215596 -0.0262402 394.31303017 -0.03258847 426.82392979 -0.02332556 C430.29217592 -0.02236347 433.76042207 -0.02142494 437.22866821 -0.02049637 C438.08258481 -0.02025914 438.93650141 -0.0200219 439.81629428 -0.01977748 C452.68860124 -0.01637082 465.56089227 -0.02034514 478.43319702 -0.02793503 C493.07546233 -0.0365257 507.71768249 -0.03434085 522.3599422 -0.0180928 C530.54598756 -0.00930766 538.73193503 -0.00867446 546.91797778 -0.02003132 C553.04120707 -0.02758661 559.16432195 -0.01934576 565.28753722 -0.0051076 C567.75635807 -0.00176939 570.22519211 -0.00343208 572.69400442 -0.01073496 C601.02258743 -0.08807381 626.59678463 3.84014197 648.5324707 23.38095093 C649.2852832 24.01388062 650.0380957 24.6468103 650.8137207 25.29891968 C654.84233162 28.70369719 658.3785131 32.14282039 661.5324707 36.38095093 C661.5324707 37.04095093 661.5324707 37.70095093 661.5324707 38.38095093 C662.1924707 38.38095093 662.8524707 38.38095093 663.5324707 38.38095093 C665.17917349 40.68266188 666.68315592 42.97102928 668.1574707 45.38095093 C668.8229895 46.46050049 668.8229895 46.46050049 669.50195312 47.56185913 C676.44210231 58.99613108 681.9835407 70.80140988 686.5324707 83.38095093 C687.05266463 84.69370448 687.5734146 86.00623797 688.0949707 87.31845093 C691.44670152 96.41331601 693.72347374 105.77489361 695.6574707 115.25595093 C695.81594482 116.02068726 695.97441895 116.78542358 696.13769531 117.57333374 C698.7037411 130.60696055 699.82127622 143.82347971 700.79370117 157.05233765 C701.72445989 169.67816988 702.76498737 182.28414214 704.0324707 194.88095093 C705.27023001 207.20854976 706.27562812 219.54327496 707.2199707 231.89611816 C708.11557857 243.57036087 709.18390269 255.21289346 710.40307617 266.85848999 C711.67916564 279.30413528 712.61191134 291.77348506 713.53051758 304.24984741 C713.62005203 305.45739182 713.62005203 305.45739182 713.71139526 306.68933105 C713.82202805 308.18642318 713.93115476 309.68362781 714.0383606 311.18096924 C714.41345656 316.27282018 714.96757346 321.29687574 715.5324707 326.38095093 C715.5324707 333.31095093 715.5324707 340.24095093 715.5324707 347.38095093 C430.7424707 347.38095093 145.9524707 347.38095093 -147.4675293 347.38095093 C-147.4675293 335.00600034 -147.4675293 335.00600034 -147.04560852 330.20942688 C-146.95186447 329.11697159 -146.85812042 328.0245163 -146.76153564 326.8989563 C-146.65718201 325.73922302 -146.55282837 324.57948975 -146.4453125 323.38461304 C-146.33630112 322.13017899 -146.22728973 320.87574493 -146.11497498 319.58329773 C-145.81723688 316.1582942 -145.51366369 312.73383055 -145.20903802 309.3094337 C-144.88487862 305.6533693 -144.5663166 301.99681685 -144.24711609 298.34031677 C-143.63708075 291.36166532 -143.02226791 284.3834436 -142.40564746 277.40537125 C-141.59042039 268.17730155 -140.78184501 258.94865006 -139.97314811 249.72000623 C-139.77395179 247.44696082 -139.57471975 245.17391855 -139.37545776 242.90087891 C-139.30988706 242.15289272 -139.24431635 241.40490653 -139.17675865 240.6342541 C-138.71390257 235.35690697 -138.24882811 230.07975793 -137.7829895 224.80267334 C-136.57503911 211.10945825 -135.37805251 197.41564071 -134.23275006 183.71702611 C-134.06416513 181.70310192 -133.89479905 179.68924507 -133.72512722 177.67541218 C-133.2060455 171.51372476 -132.6913503 165.35177502 -132.18782043 159.188797 C-130.71905539 141.55023286 -128.98410046 123.89554297 -124.6550293 106.69345093 C-124.39423584 105.64367065 -124.13344238 104.59389038 -123.86474609 103.51229858 C-114.94500293 68.35406927 -98.48804888 32.92306981 -66.54589844 13.2383728 C-45.81727395 0.97257537 -23.43912609 -0.06933418 0 0 Z " fill="#00276C" transform="translate(209.467529296875,51.619049072265625)"/>
<path d="M0 0 C0.82621857 -0.00358521 1.65243713 -0.00717041 2.50369263 -0.01086426 C13.91690206 -0.03746749 25.01299322 0.71494957 36.3125 2.3125 C37.19139893 2.43278564 38.07029785 2.55307129 38.97583008 2.67700195 C49.45586491 4.19214476 59.33807416 6.81199916 69.3125 10.3125 C70.0957666 10.5815918 70.8790332 10.85068359 71.68603516 11.12792969 C102.75504172 21.91281724 128.50701702 38.85087493 152.3125 61.3125 C153.1684375 62.11429688 154.024375 62.91609375 154.90625 63.7421875 C181.17027252 89.09195607 198.82415755 123.55179054 208.625 158.375 C208.85525879 159.17502441 209.08551758 159.97504883 209.32275391 160.79931641 C213.47601561 176.31234305 214.79883484 191.99287456 214.64868164 207.99658203 C214.62482262 210.70765492 214.62819107 213.41775274 214.63476562 216.12890625 C214.61952518 226.02687122 214.07705259 235.54647042 212.3125 245.3125 C212.14097412 246.33424316 211.96944824 247.35598633 211.79272461 248.40869141 C202.57721966 301.89560255 172.83402237 351.41083745 128.5625 383.38671875 C110.38345359 396.08085343 91.04666619 405.57891177 70.3125 413.3125 C69.65910645 413.56128906 69.00571289 413.81007813 68.33251953 414.06640625 C63.72228627 415.78985794 59.08453498 417.13391118 54.3125 418.3125 C53.39146484 418.54098633 52.47042969 418.76947266 51.52148438 419.00488281 C35.08617531 422.87047587 19.06945413 423.79354566 2.25 423.8125 C1.30903473 423.81690094 0.36806946 423.82130188 -0.60140991 423.82583618 C-17.1533978 423.85815406 -33.50350598 422.31133472 -49.5625 418.125 C-50.36945313 417.91705811 -51.17640625 417.70911621 -52.0078125 417.49487305 C-81.00013394 409.72708754 -109.02978416 396.16685944 -131.6875 376.3125 C-132.86157749 375.31829699 -134.03747843 374.32624477 -135.21484375 373.3359375 C-144.11240059 365.83125529 -152.07699847 358.28595546 -159.375 349.17578125 C-160.84441946 347.35638182 -162.3417664 345.55892531 -163.875 343.79296875 C-170.90485368 335.62076385 -176.32299694 326.62405613 -181.6875 317.3125 C-182.09000977 316.61882324 -182.49251953 315.92514648 -182.90722656 315.21044922 C-198.6617487 287.75578029 -208.92492562 255.08643249 -209.6875 223.3125 C-209.71328125 222.44882813 -209.7390625 221.58515625 -209.765625 220.6953125 C-211.27191817 164.51057735 -192.68285416 109.63727749 -153.71484375 68.47265625 C-152.70600336 67.41900823 -151.69687455 66.36563631 -150.6875 65.3125 C-150.13465332 64.72710449 -149.58180664 64.14170898 -149.01220703 63.53857422 C-119.90997108 32.83615978 -80.95358363 12.21678255 -39.6875 3.3125 C-38.68444824 3.08385254 -38.68444824 3.08385254 -37.66113281 2.85058594 C-25.20404699 0.11581555 -12.6933068 0.02215315 0 0 Z " fill="#FDFEFE" transform="translate(493.6875,833.6875)"/>
<path d="M0 0 C2.55993442 -0.0034614 5.11986734 -0.00822919 7.67979717 -0.01418173 C13.22086908 -0.02495316 18.76185311 -0.02472763 24.30292892 -0.01704025 C32.54302711 -0.00563976 40.78305187 -0.0115214 49.02314964 -0.02066517 C63.74440974 -0.03642411 78.46563066 -0.03510852 93.18689445 -0.02642844 C106.07002488 -0.01886983 118.95314099 -0.01691722 131.83627319 -0.02049637 C132.6921725 -0.02072552 133.54807181 -0.02095468 134.42990746 -0.02119078 C137.90463136 -0.02212485 141.37935525 -0.02308006 144.85407914 -0.02407007 C177.42301733 -0.03323882 209.99193063 -0.02493979 242.56086497 -0.00877938 C271.4710099 0.00545652 300.38111518 0.0041826 329.29125977 -0.01016235 C361.80215596 -0.0262402 394.31303017 -0.03258847 426.82392979 -0.02332556 C430.29217592 -0.02236347 433.76042207 -0.02142494 437.22866821 -0.02049637 C438.08258481 -0.02025914 438.93650141 -0.0200219 439.81629428 -0.01977748 C452.68860124 -0.01637082 465.56089227 -0.02034514 478.43319702 -0.02793503 C493.07546233 -0.0365257 507.71768249 -0.03434085 522.3599422 -0.0180928 C530.54598756 -0.00930766 538.73193503 -0.00867446 546.91797778 -0.02003132 C553.04120707 -0.02758661 559.16432195 -0.01934576 565.28753722 -0.0051076 C567.75635807 -0.00176939 570.22519211 -0.00343208 572.69400442 -0.01073496 C601.02258743 -0.08807381 626.59678463 3.84014197 648.5324707 23.38095093 C649.2852832 24.01388062 650.0380957 24.6468103 650.8137207 25.29891968 C654.84233162 28.70369719 658.3785131 32.14282039 661.5324707 36.38095093 C661.5324707 37.04095093 661.5324707 37.70095093 661.5324707 38.38095093 C662.1924707 38.38095093 662.8524707 38.38095093 663.5324707 38.38095093 C665.17917349 40.68266188 666.68315592 42.97102928 668.1574707 45.38095093 C668.8229895 46.46050049 668.8229895 46.46050049 669.50195312 47.56185913 C676.44210231 58.99613108 681.9835407 70.80140988 686.5324707 83.38095093 C687.05266463 84.69370448 687.5734146 86.00623797 688.0949707 87.31845093 C691.44670152 96.41331601 693.72347374 105.77489361 695.6574707 115.25595093 C695.81594482 116.02068726 695.97441895 116.78542358 696.13769531 117.57333374 C698.7037411 130.60696055 699.82127622 143.82347971 700.79370117 157.05233765 C701.72445989 169.67816988 702.76498737 182.28414214 704.0324707 194.88095093 C705.18829857 206.39254467 706.15035741 217.90825594 707.0324707 229.44345093 C708.01519554 242.28818398 709.15369183 255.10031888 710.47119141 267.91537476 C711.28173063 275.81583409 712.04253822 283.71789735 712.7199707 291.63095093 C712.80384033 292.57696167 712.88770996 293.52297241 712.97412109 294.49765015 C713.47281728 300.4723209 713.62709416 306.38651444 713.5324707 312.38095093 C713.2024707 312.38095093 712.8724707 312.38095093 712.5324707 312.38095093 C712.5324707 310.07095093 712.5324707 307.76095093 712.5324707 305.38095093 C693.7224707 305.38095093 674.9124707 305.38095093 655.5324707 305.38095093 C654.58965301 295.71478115 653.65005924 286.04834794 652.7199707 276.38095093 C652.61648567 275.30549326 652.61648567 275.30549326 652.51091003 274.20830917 C650.53675011 253.668887 648.73828885 233.12968071 647.27322388 212.54689026 C647.22084564 211.81150528 647.16846741 211.0761203 647.11450195 210.31845093 C647.03943924 209.26196098 647.03943924 209.26196098 646.96286011 208.18412781 C646.4470878 201.02034339 645.76417884 193.88013145 644.98950195 186.74032593 C644.64752449 183.58693375 644.36345567 180.43304692 644.10668945 177.27157593 C643.34911827 168.13284856 642.29290121 159.14729861 640.5949707 150.13095093 C640.43722168 149.28605103 640.27947266 148.44115112 640.11694336 147.57064819 C638.41722496 138.99789596 635.4375316 130.99970449 632.30200195 122.86141968 C631.5324707 120.38095093 631.5324707 120.38095093 631.5324707 116.38095093 C630.8724707 116.38095093 630.2124707 116.38095093 629.5324707 116.38095093 C629.32493164 115.80989624 629.11739258 115.23884155 628.90356445 114.65048218 C624.95693438 104.26374447 620.00722752 94.60489362 612.81762695 86.08798218 C611.5324707 84.38095093 611.5324707 84.38095093 611.5324707 82.38095093 C610.8724707 82.38095093 610.2124707 82.38095093 609.5324707 82.38095093 C607.91137695 80.70126343 607.91137695 80.70126343 606.0949707 78.50595093 C603.94846187 75.91901371 602.36470509 74.26910718 599.5324707 72.38095093 C599.5324707 71.72095093 599.5324707 71.06095093 599.5324707 70.38095093 C598.45545898 69.99036499 598.45545898 69.99036499 597.35668945 69.59188843 C594.41326821 68.32984059 591.99495889 66.79870512 589.3449707 65.00595093 C584.26149819 61.71060015 579.23483452 59.37930144 573.5324707 57.38095093 C572.5012207 56.98907593 571.4699707 56.59720093 570.4074707 56.19345093 C563.69339996 54.29599615 556.89540436 54.23478609 549.97199249 54.24672985 C549.03557301 54.24437762 548.09915352 54.24202539 547.13435769 54.23960188 C543.99690866 54.23294554 540.85950137 54.23336908 537.7220459 54.23377991 C535.4496541 54.2304792 533.17726289 54.2267532 530.90487242 54.22263843 C524.66016742 54.2126341 518.41547203 54.20890416 512.17076015 54.20624912 C506.12742897 54.20274283 500.08410502 54.19459515 494.04077841 54.18670518 C477.85378214 54.16588701 461.66678408 54.15539535 445.47977756 54.14657557 C437.818817 54.14236554 430.15785723 54.13714406 422.49689733 54.13189105 C396.26087535 54.11400365 370.02485315 54.0990084 343.78882599 54.09157085 C342.14254776 54.0910961 340.49626952 54.09062021 338.84999129 54.09014319 C338.03360685 54.08990682 337.2172224 54.08967044 336.37609903 54.0894269 C332.24007188 54.08822573 328.10404473 54.08701027 323.96801758 54.08578491 C323.14721965 54.08554476 322.32642172 54.08530461 321.48075112 54.08505719 C294.87303183 54.07716558 268.26535713 54.05373516 241.6576573 54.02122897 C213.51134166 53.98690599 185.3650521 53.96721748 157.21871519 53.96392661 C154.12696551 53.96350909 151.03521585 53.96302953 147.94346619 53.96250343 C147.18221789 53.96238024 146.4209696 53.96225705 145.63665317 53.96213013 C133.40362526 53.9598013 121.1706493 53.94415926 108.93763988 53.92366159 C96.63396454 53.90337308 84.33035138 53.89794059 72.02666241 53.90743222 C65.36549955 53.91217864 58.70446929 53.91008778 52.0433197 53.89067078 C45.9387774 53.8730302 39.83452584 53.8740445 33.72998041 53.88956807 C31.52806164 53.89194271 29.32612269 53.88762815 27.12423474 53.87573942 C11.59827096 53.79713894 -3.25583253 54.62238565 -17.1550293 62.38095093 C-17.85289551 62.76049927 -18.55076172 63.14004761 -19.26977539 63.53109741 C-26.67398353 67.75712399 -32.58519544 73.27140246 -38.4675293 79.38095093 C-39.15202148 80.0693103 -39.83651367 80.75766968 -40.54174805 81.46688843 C-55.91492775 97.8419158 -66.21501584 122.68420461 -69.8190918 144.63876343 C-70.40083026 147.99602515 -71.14897068 151.21724698 -72.0300293 154.50595093 C-75.43627106 167.73163861 -76.09806645 181.37274224 -77.0300293 194.94345093 C-77.21801725 197.65129798 -77.40750932 200.35900969 -77.60081482 203.06648254 C-77.71982996 204.73573904 -77.83577533 206.40521825 -77.94813538 208.07493591 C-78.22166378 211.93410237 -78.69005166 215.58733082 -79.4675293 219.38095093 C-79.72529749 221.9758996 -79.95394876 224.56277348 -80.15112305 227.16220093 C-80.21091843 227.92082428 -80.27071381 228.67944763 -80.33232117 229.46105957 C-80.52626256 231.93413033 -80.7157002 234.40752317 -80.9050293 236.88095093 C-81.0381755 238.58848252 -81.17147752 240.29600197 -81.30493164 242.00350952 C-81.93105979 250.06697842 -82.53107492 258.13167741 -83.07299805 266.20126343 C-83.14093819 267.21026703 -83.14093819 267.21026703 -83.21025085 268.23965454 C-83.42013902 271.37427453 -83.62409713 274.50914554 -83.82080078 277.6446228 C-83.89242432 278.74612671 -83.96404785 279.84763062 -84.0378418 280.98251343 C-84.0972998 281.93464722 -84.15675781 282.88678101 -84.21801758 283.86776733 C-84.4675293 286.38095093 -84.4675293 286.38095093 -85.4675293 290.38095093 C-85.7975293 295.33095093 -86.1275293 300.28095093 -86.4675293 305.38095093 C-104.9475293 305.38095093 -123.4275293 305.38095093 -142.4675293 305.38095093 C-142.4675293 307.69095093 -142.4675293 310.00095093 -142.4675293 312.38095093 C-144.89164415 308.74477865 -144.58681096 306.4761228 -144.26977539 302.32162476 C-144.21852697 301.54756444 -144.16727856 300.77350412 -144.11447716 299.97598743 C-143.91604025 297.10945152 -143.6941048 294.24540167 -143.4675293 291.38095093 C-143.37596809 290.22054165 -143.28440689 289.06013237 -143.19007111 287.86455917 C-142.44047218 278.49218171 -141.64464158 269.12390829 -140.83985186 259.75612998 C-140.62968276 257.3079319 -140.42026814 254.85967041 -140.21110153 252.41138649 C-139.47776147 243.82816414 -138.74155531 235.24519312 -138.00268555 226.66244507 C-137.31975657 218.72858969 -136.64328065 210.7942019 -135.96979678 202.85953969 C-135.38632304 195.98889735 -134.79817223 189.1186652 -134.20655286 182.24871951 C-133.85549537 178.1712735 -133.50619603 174.09369793 -133.1617012 170.01569176 C-129.40070292 125.55096362 -129.40070292 125.55096362 -124.6550293 106.69345093 C-124.39423584 105.64367065 -124.13344238 104.59389038 -123.86474609 103.51229858 C-114.94500293 68.35406927 -98.48804888 32.92306981 -66.54589844 13.2383728 C-45.81727395 0.97257537 -23.43912609 -0.06933418 0 0 Z " fill="#02559C" transform="translate(209.467529296875,51.619049072265625)"/>
<path d="M0 0 C48.37688395 1.37688395 48.37688395 1.37688395 50 3 C50.14510891 4.60947472 50.2271111 6.22474795 50.28125 7.83984375 C50.33732422 9.3103418 50.33732422 9.3103418 50.39453125 10.81054688 C50.44673828 12.35838867 50.44673828 12.35838867 50.5 13.9375 C50.56873045 15.96759397 50.64145021 17.99755802 50.71875 20.02734375 C50.74904297 20.93218506 50.77933594 21.83702637 50.81054688 22.76928711 C50.8646717 25.03760898 50.8646717 25.03760898 52 27 C52.1884527 29.96139959 52.32842582 32.91051963 52.4375 35.875 C52.75892431 43.31542803 53.26269042 50.71391958 54 58.125 C54.08306396 58.98335449 54.16612793 59.84170898 54.25170898 60.72607422 C54.60876834 64.99718085 54.60876834 64.99718085 56 69 C56.16685006 71.66960095 56.28268006 74.32752443 56.375 77 C56.77244804 86.35825248 57.52796671 95.67363121 58.375 105 C58.44023865 105.71927673 58.50547729 106.43855347 58.57269287 107.17962646 C58.7069053 108.6584994 58.84113193 110.13737105 58.97537231 111.61624146 C59.04279633 112.35905365 59.11022034 113.10186584 59.1796875 113.8671875 C59.24783661 114.61652557 59.31598572 115.36586365 59.38619995 116.13790894 C60.07127796 123.70918993 60.69473034 131.28522592 61.31478882 138.86206055 C62.42297916 152.40210501 63.64000558 165.92712329 64.94311523 179.44970703 C65.893822 189.47202887 66.62510174 199.50036034 67.30102539 209.54443359 C67.79411308 216.67389549 68.53325157 223.69237771 69.49609375 230.7734375 C71.18817683 244.09155522 71.88975576 257.59391201 72.5 271 C73.33068899 289.10202079 74.90278414 307.13100336 76.94677734 325.13476562 C77.72870867 332.08847989 78.31355626 339.02728392 78.73413086 346.01269531 C78.95490138 348.49327206 79.38969451 350.60518447 80 353 C80.13244389 354.68490472 80.22279104 356.37340916 80.28125 358.0625 C80.31863281 359.02414062 80.35601562 359.98578125 80.39453125 360.9765625 C80.46484375 362.9921875 80.53515625 365.0078125 80.60546875 367.0234375 C80.64285156 367.98507812 80.68023437 368.94671875 80.71875 369.9375 C80.74904297 370.81277344 80.77933594 371.68804688 80.81054688 372.58984375 C80.9881303 374.84899778 81.44234834 376.81197269 82 379 C82.10865406 380.38946002 82.17659002 381.78250271 82.2109375 383.17578125 C82.23728271 383.99151611 82.26362793 384.80725098 82.29077148 385.64770508 C82.31856689 386.5270874 82.3463623 387.40646973 82.375 388.3125 C82.67718694 396.05158163 83.36294381 403.64341621 84.4375 411.3125 C86.75759014 427.96944885 88.05510662 444.68532887 88.65869141 461.49072266 C88.6901123 462.30460449 88.7215332 463.11848633 88.75390625 463.95703125 C88.78979858 465.02401245 88.78979858 465.02401245 88.82641602 466.11254883 C88.94837017 468.22513979 88.94837017 468.22513979 90 471 C90.28054604 473.94591702 90.51749433 476.88060551 90.71875 479.83203125 C90.81295227 481.13608162 90.81295227 481.13608162 90.90905762 482.46647644 C91.10970884 485.24823624 91.3053073 488.03031726 91.5 490.8125 C91.69505317 493.58394073 91.89128068 496.35527584 92.09094238 499.12638855 C92.2150606 500.8502405 92.33652498 502.5742862 92.45495605 504.29853821 C92.7631388 508.59174367 93.2736745 512.75384712 94 517 C94.12651541 518.8118115 94.22017495 520.62621015 94.28125 522.44140625 C94.31863281 523.43720703 94.35601562 524.43300781 94.39453125 525.45898438 C94.46497635 527.53189654 94.53528835 529.60481323 94.60546875 531.67773438 C94.66154297 533.16950195 94.66154297 533.16950195 94.71875 534.69140625 C94.74904297 535.59060791 94.77933594 536.48980957 94.81054688 537.41625977 C94.94059438 539.95518324 94.94059438 539.95518324 95.45898438 542.2277832 C96.26224149 546.34375097 96.56970543 550.48947254 96.9375 554.6640625 C97.02249756 555.61074799 97.10749512 556.55743347 97.19506836 557.5328064 C97.37458984 559.54160483 97.55269665 561.55053013 97.72949219 563.55957031 C97.99480953 566.56618093 98.26660306 569.5721543 98.5390625 572.578125 C99.44186141 582.68142107 100.23932833 592.77009648 100.65844727 602.90640259 C100.83892651 607.01513257 101.27111486 610.95483267 102 615 C102.24365715 618.41796833 102.43593864 621.8319096 102.60546875 625.25390625 C102.80045291 629.14882591 102.80045291 629.14882591 103.50439453 632.97338867 C104.01856255 635.0759053 104.1566884 636.94421459 104.2109375 639.10546875 C104.23728271 639.91024658 104.26362793 640.71502441 104.29077148 641.54418945 C104.31856689 642.41648193 104.3463623 643.28877441 104.375 644.1875 C104.68492836 652.13036335 105.402034 659.93304232 106.4375 667.8125 C107.81303895 678.36745227 108.5791554 688.90643045 109.18084717 699.52633667 C109.66441451 708.04227153 110.27615878 716.50020535 111.32055664 724.96704102 C111.92113044 729.93325553 112.26134266 734.87888993 112.5 739.875 C112.82033863 746.56290111 113.33745188 753.21203893 114 759.875 C114.08314453 760.72562012 114.16628906 761.57624023 114.25195312 762.45263672 C114.66419444 766.74800858 114.66419444 766.74800858 115.51367188 770.96923828 C116.05346344 773.22324744 116.1926375 775.30976274 116.28125 777.625 C116.31863281 778.49640625 116.35601562 779.3678125 116.39453125 780.265625 C116.46484375 782.08854167 116.53515625 783.91145833 116.60546875 785.734375 C116.64285156 786.60578125 116.68023437 787.4771875 116.71875 788.375 C116.74904297 789.16648437 116.77933594 789.95796875 116.81054688 790.7734375 C116.93270431 792.95948442 116.93270431 792.95948442 117.48852539 794.86230469 C118.20196055 797.84408904 118.299435 800.7677595 118.46484375 803.828125 C118.54222983 805.19125311 118.61979169 806.55437125 118.69750977 807.91748047 C118.73659454 808.62563904 118.77567932 809.33379761 118.81594849 810.06341553 C119.4009809 820.58753608 120.09292307 831.02083694 121.5703125 841.46484375 C122.0557554 845.45871485 122.26307782 849.4204909 122.4375 853.4375 C122.7448044 860.29134147 123.47211909 867.01333515 124.375 873.8125 C126.27500083 888.34108666 127.09322102 902.94619791 127.99755859 917.5637207 C128.05731873 918.52111145 128.11707886 919.4785022 128.1786499 920.46490479 C128.29036806 922.2668678 128.39963132 924.06898546 128.50592041 925.87127686 C128.81807431 930.95166568 129.34717882 935.95249624 130 941 C130.11675808 942.58571312 130.21462233 944.17310951 130.28125 945.76171875 C130.31863281 946.57060547 130.35601562 947.37949219 130.39453125 948.21289062 C130.4653423 949.87432778 130.53564784 951.53578656 130.60546875 953.19726562 C130.64285156 954.00228516 130.68023437 954.80730469 130.71875 955.63671875 C130.74904297 956.35561279 130.77933594 957.07450684 130.81054688 957.81518555 C130.96348973 960.0526405 130.96348973 960.0526405 131.48852539 962.42626953 C132.0289683 965.14576795 132.27293071 967.77749484 132.46484375 970.54296875 C132.54154297 971.60741211 132.61824219 972.67185547 132.69726562 973.76855469 C132.81618164 975.46093262 132.81618164 975.46093262 132.9375 977.1875 C133.55166551 985.5572368 134.25143321 993.89489871 135.23313904 1002.22927856 C137.35260973 1020.38507362 138.5675151 1038.61058224 139.67724609 1056.85083008 C140.37970035 1068.31623068 141.2593153 1079.63749931 143 1091 C143.1134375 1091.78995361 143.226875 1092.57990723 143.34375 1093.39379883 C145.06112067 1105.01288476 148.14282438 1116.61114516 154.19140625 1126.77734375 C156 1130 156 1130 156 1133 C156.66 1133 157.32 1133 158 1133 C158.99 1135.97 158.99 1135.97 160 1139 C160.66 1139 161.32 1139 162 1139 C163.5078125 1140.6796875 163.5078125 1140.6796875 165.125 1142.875 C165.93324219 1143.95394531 165.93324219 1143.95394531 166.7578125 1145.0546875 C168 1147 168 1147 168 1149 C168.66 1149 169.32 1149 170 1149 C170 1149.66 170 1150.32 170 1151 C170.66 1151 171.32 1151 172 1151 C172 1151.66 172 1152.32 172 1153 C172.66 1153 173.32 1153 174 1153 C174 1153.66 174 1154.32 174 1155 C174.66 1155 175.32 1155 176 1155 C176 1155.66 176 1156.32 176 1157 C176.66 1157 177.32 1157 178 1157 C178 1157.66 178 1158.32 178 1159 C178.8353125 1159.37125 178.8353125 1159.37125 179.6875 1159.75 C183.3508823 1161.73020665 186.36665927 1164.47479061 189.5625 1167.125 C191.66736346 1168.74412574 193.58483414 1169.92659295 196 1171 C196 1171.66 196 1172.32 196 1173 C197.98 1173.66 199.96 1174.32 202 1175 C202 1175.66 202 1176.32 202 1177 C202.65097656 1177.07347656 203.30195313 1177.14695312 203.97265625 1177.22265625 C208.17471095 1178.30163546 211.66026149 1180.3404927 215.4375 1182.4375 C220.21317641 1185.07767744 224.72551932 1187.47031701 230 1189 C230 1189.66 230 1190.32 230 1191 C230.886875 1191.061875 231.77375 1191.12375 232.6875 1191.1875 C236.41818908 1191.70544275 239.63944079 1192.96810156 243.125 1194.375 C248.84842352 1196.67897675 254.46710852 1198.14490274 260.515625 1199.32421875 C261.33546875 1199.54722656 262.1553125 1199.77023437 263 1200 C263.33 1200.66 263.66 1201.32 264 1202 C256.81776238 1202.07059405 249.63560365 1202.12335037 242.45308495 1202.15543652 C239.11519523 1202.17086341 235.77773008 1202.19339192 232.43994141 1202.22631836 C193.71616596 1202.59824163 154.55727987 1197.26550947 125.26953125 1169.40234375 C120.6251818 1164.51317588 116.64213383 1159.3053529 112.9375 1153.6875 C112.5549707 1153.11290039 112.17244141 1152.53830078 111.77832031 1151.94628906 C109.49056807 1148.3224391 108.41880317 1145.25890606 108 1141 C107.34 1141 106.68 1141 106 1141 C100.75226448 1126.66725199 99.42245618 1112.1777832 98.16998291 1097.05004883 C97.99934587 1094.99211098 97.82512807 1092.93450499 97.64990234 1090.87695312 C97.15548799 1085.05960183 96.667487 1079.24176948 96.19482422 1073.42260742 C95.20661375 1061.27442005 94.11701667 1049.1369653 93 1037 C91.73239469 1023.21289901 90.51072847 1009.42361159 89.375 995.625 C88.18720746 981.18487302 88.18720746 981.18487302 86.9375 966.75 C86.87030762 965.97221191 86.80311523 965.19442383 86.73388672 964.39306641 C86.28743416 959.45675767 85.682942 954.55469204 85.03515625 949.640625 C83.91871389 940.99627968 83.27756285 932.33335438 82.68136597 923.63983154 C82.37127713 919.12640314 82.04552507 914.61409132 81.72265625 910.1015625 C81.6600209 909.22053864 81.59738556 908.33951477 81.53285217 907.43179321 C81.03304653 900.41023611 80.50890773 893.39113749 79.9375 886.375 C79.87046875 885.51519531 79.8034375 884.65539063 79.734375 883.76953125 C79.3293246 878.88599902 78.74038888 874.05277897 78.05688477 869.20019531 C76.937569 860.99707068 76.22299282 852.77374247 75.5625 844.5234375 C75.43599934 842.98089604 75.30911877 841.43838569 75.18188477 839.89590454 C74.85063099 835.87007233 74.52364043 831.84390663 74.19787598 827.81762695 C73.61608172 820.63582374 73.02713749 813.45460043 72.4375 806.2734375 C72.37391737 805.4985177 72.31033474 804.72359791 72.24482536 803.92519569 C71.34517502 792.97783529 70.3748519 782.04062716 69.30157471 771.10888672 C68.62031968 764.08593465 67.96710265 757.06027192 67.30859375 750.03515625 C67.2330489 749.22936127 67.15750404 748.42356628 67.07966995 747.59335327 C66.69060727 743.44271442 66.30185763 739.29204639 65.91333008 735.14135742 C65.59511848 731.74284442 65.27606124 728.34441235 64.95629883 724.94604492 C64.56358559 720.77223202 64.17241015 716.59827752 63.78227425 712.42422295 C63.63570695 710.85878007 63.48862478 709.29338529 63.34097099 707.72804451 C62.64057813 700.29911243 61.97353343 692.8752071 61.46386719 685.43017578 C61.13278498 680.6126963 60.67451463 675.86539473 60.01953125 671.08203125 C59.08840067 663.99859411 58.41604684 656.91270781 57.85385132 649.7895813 C57.67760338 647.56244243 57.49621186 645.33576661 57.3137207 643.10913086 C57.032239 639.67343058 56.75195439 636.23763631 56.47265625 632.80175781 C55.55714553 621.5542625 54.62973144 610.30778955 53.6875 599.0625 C53.53131699 597.19818329 53.53131699 597.19818329 53.37197876 595.29620361 C51.59873094 574.22863276 49.58988958 553.19159526 47.48382568 532.15527344 C45.83932789 515.72846677 44.28729998 499.30366655 42.9765625 482.84692383 C42.12585406 472.20496028 41.08001193 461.59224253 39.98583984 450.97314453 C39.23343797 443.59114541 38.64313596 436.23765253 38.2421875 428.828125 C37.57200491 418.23491624 36.40312128 407.66863775 35.2620697 397.11720276 C34.43065085 389.40894553 33.70884679 381.7006624 33.0859375 373.97265625 C32.13017469 362.32299095 31.05363012 350.6869506 29.94058228 339.0513916 C29.39032721 333.2950244 28.84564393 327.53812973 28.30078125 321.78125 C28.13617653 320.04285858 28.13617653 320.04285858 27.96824646 318.26934814 C26.89616161 306.93140592 25.84556516 295.5915619 24.8125 284.25 C24.72939575 283.33829041 24.6462915 282.42658081 24.56066895 281.48724365 C23.5227005 270.07343503 22.51247979 258.65877487 21.68286133 247.22753906 C21.335222 242.58225861 20.89050406 237.95983017 20.35269165 233.33241272 C18.58425175 218.09049805 17.43102961 202.79225826 16.17724609 187.5012207 C15.10152715 174.41874807 14.01423617 161.36142733 12.39306641 148.33422852 C11.89885894 144.14206 11.61001293 139.96604759 11.4375 135.75 C11.27005394 130.77111248 11.27005394 130.77111248 10.52514648 125.8581543 C9.78141186 121.81031551 9.59273732 117.76480189 9.3515625 113.66015625 C9.23414343 111.78537407 9.11628858 109.91061915 8.99804688 108.03588867 C8.93738037 107.0602597 8.87671387 106.08463074 8.81420898 105.07943726 C8.49743685 100.02850555 8.16351848 94.97888607 7.8203125 89.9296875 C7.76074371 89.0069252 7.70117493 88.0841629 7.63980103 87.13343811 C7.08197482 78.98461301 6.00852301 70.93965766 4.7578125 62.87109375 C3.5600255 54.37556272 3.02009652 45.80144529 2.375 37.25 C2.28134155 36.0185878 2.28134155 36.0185878 2.18579102 34.76229858 C1.31165894 23.18222515 0.60607438 11.59703348 0 0 Z " fill="#00A0E0" transform="translate(61,543)"/>
<path d="M0 0 C1.56966 0.00503356 3.1393216 0.00959313 4.70898438 0.01367188 C8.49353017 0.02451088 12.27799656 0.04166905 16.0625 0.0625 C15.35255667 12.49859001 14.39975975 24.91088386 13.38793945 37.32568359 C13.12547216 40.55668763 12.86832463 43.78808805 12.61132812 47.01953125 C11.2143608 64.34595087 11.2143608 64.34595087 10.1015625 72.671875 C8.58002812 84.20912641 7.72790949 95.81755198 6.74777222 107.41073608 C6.09846626 115.08838064 5.43636568 122.76492773 4.7734375 130.44140625 C4.67001573 131.64015601 4.67001573 131.64015601 4.56450462 132.86312294 C3.02430944 150.69452644 1.38093641 168.516027 -0.27569962 186.33692932 C-2.4045406 209.23944807 -4.49104905 232.14359144 -6.4375 255.0625 C-8.30499419 277.02952252 -10.2831432 298.98496137 -12.3125 320.9375 C-12.38698868 321.74358074 -12.46147736 322.54966148 -12.53822327 323.38016891 C-13.80606804 337.09882238 -15.07874846 350.81702672 -16.35290527 364.53509521 C-17.29994072 374.73152967 -18.24531598 384.92811601 -19.1875 395.125 C-19.25627728 395.86923092 -19.32505455 396.61346184 -19.39591599 397.38024521 C-22.45518668 430.49753256 -25.41675765 463.62356179 -28.375 496.75 C-28.46363587 497.74254091 -28.46363587 497.74254091 -28.55406237 498.75513315 C-29.67634502 511.32282227 -30.79803782 523.89056404 -31.91947937 536.45832825 C-33.89965419 558.64826303 -35.88516812 580.83771448 -37.87796021 603.02651978 C-38.20097222 606.62330971 -38.52363555 610.22013059 -38.84591675 613.81698608 C-40.69656176 634.46965395 -42.58057854 655.11884395 -44.52085876 675.76330566 C-45.34297857 684.53082404 -46.1376793 693.29997445 -46.89331055 702.07348633 C-47.94053156 714.22013871 -49.06062133 726.35969584 -50.1885891 738.49908257 C-50.55869112 742.48265071 -50.92796571 746.46629476 -51.29695129 750.44996643 C-51.42584966 751.84148704 -51.55474924 753.23300754 -51.68365002 754.62452793 C-51.7482389 755.32179119 -51.81282779 756.01905445 -51.87937391 756.7374469 C-52.0774071 758.87495532 -52.27552026 761.0124563 -52.47366047 763.1499548 C-58.07964067 823.47279943 -58.07964067 823.47279943 -63.5 883.8125 C-63.55845093 884.47599079 -63.61690186 885.13948158 -63.67712402 885.82307816 C-65.22036601 903.35645126 -66.71197588 920.89418858 -68.00219727 938.44824219 C-68.58692208 946.25555377 -69.35734946 954.01963276 -70.25152588 961.79597473 C-70.91746423 967.66360388 -71.31041419 973.49888278 -71.50390625 979.40039062 C-71.68736756 983.66387187 -72.18423211 987.77277302 -72.8828125 991.984375 C-74.08438898 999.47799047 -74.6204042 1006.96922482 -75.1413269 1014.53353882 C-76.17375618 1029.4099814 -77.50228535 1044.23267846 -79.12780762 1059.05526733 C-80.17972989 1068.65614324 -81.15884616 1078.25805967 -82.01171875 1087.87890625 C-82.10015549 1088.87439987 -82.18859222 1089.86989349 -82.27970886 1090.89555359 C-82.70925834 1095.75348483 -83.1305892 1100.61199745 -83.54272461 1105.47143555 C-84.50221925 1116.59062816 -85.55105519 1127.29103358 -89.5 1137.8125 C-89.75104492 1138.48571289 -90.00208984 1139.15892578 -90.26074219 1139.85253906 C-92.73816554 1146.14183615 -96.16466042 1151.62107878 -99.984375 1157.171875 C-101.91278893 1159.87293244 -101.91278893 1159.87293244 -102.984375 1162.25 C-104.95380579 1165.99514707 -108.72440418 1168.40655716 -111.9375 1171.0625 C-112.68257812 1171.70574219 -113.42765625 1172.34898438 -114.1953125 1173.01171875 C-125.21530315 1182.2677835 -137.49194436 1188.20835371 -150.9375 1193.0625 C-151.60845703 1193.30637451 -152.27941406 1193.55024902 -152.97070312 1193.80151367 C-183.43879738 1204.46739977 -217.17078153 1201.58694269 -248.9375 1201.0625 C-245.15641015 1199.07955612 -241.28501435 1197.95098045 -237.1875 1196.8125 C-206.49358442 1187.97552441 -177.72968255 1172.68069642 -154.9375 1150.0625 C-154.6075 1149.4025 -154.2775 1148.7425 -153.9375 1148.0625 C-153.2775 1148.0625 -152.6175 1148.0625 -151.9375 1148.0625 C-151.66164063 1147.47210937 -151.38578125 1146.88171875 -151.1015625 1146.2734375 C-149.99513019 1144.17195869 -148.80282709 1142.52751278 -147.3125 1140.6875 C-142.87442336 1134.86048984 -139.40739894 1128.49222991 -135.9375 1122.0625 C-135.44894531 1121.16660156 -134.96039062 1120.27070312 -134.45703125 1119.34765625 C-126.16329388 1102.7857007 -125.78874239 1083.27863041 -124.375 1065.1875 C-123.98311277 1060.33550108 -123.58409417 1055.48410721 -123.18359375 1050.6328125 C-123.08621414 1049.43662292 -122.98883453 1048.24043335 -122.88850403 1047.00799561 C-122.07408499 1037.19735762 -121.05720323 1027.41473621 -119.92967224 1017.63528442 C-118.90179155 1008.5221304 -118.46436692 999.44576897 -118.24609375 990.28125 C-118.02696402 984.47846056 -117.43258961 978.72658369 -116.83078003 972.95425415 C-115.97334261 964.64141568 -115.24515679 956.31864997 -114.53515625 947.9921875 C-114.47331587 947.2682354 -114.41147549 946.54428329 -114.34776115 945.79839325 C-113.96144915 941.27295849 -113.57718992 936.74735137 -113.19366455 932.22167969 C-112.68524976 926.22517317 -112.17451083 920.22886396 -111.6635437 914.23257446 C-111.53629287 912.73907083 -111.40911594 911.2455609 -111.28201294 909.75204468 C-110.26409237 897.79518378 -109.21590305 885.84117408 -108.15543175 873.88801956 C-107.42228392 865.61986812 -106.69848649 857.35125366 -106.0234375 849.078125 C-105.96141647 848.31819244 -105.89939545 847.55825989 -105.835495 846.77529907 C-105.59849046 843.85978216 -105.36299965 840.94415076 -105.12988281 838.02832031 C-104.95077914 835.79473639 -104.76857657 833.5614222 -104.5859375 831.328125 C-104.43390869 829.43755371 -104.43390869 829.43755371 -104.27880859 827.50878906 C-103.9375 824.0625 -103.9375 824.0625 -103.45361328 821.31835938 C-102.68497336 816.46945589 -102.38669552 811.59748586 -102.03125 806.703125 C-101.85565664 804.35480365 -101.67986643 802.00649702 -101.50390625 799.65820312 C-101.41189941 798.41981689 -101.31989258 797.18143066 -101.22509766 795.90551758 C-100.73587639 789.36830877 -100.22697394 782.83262898 -99.71875 776.296875 C-99.61311176 774.93705293 -99.50748028 773.57723034 -99.40185547 772.21740723 C-99.18816554 769.46686444 -98.97425644 766.71633879 -98.76025391 763.96582031 C-98.54436022 761.18983428 -98.32923449 758.41379028 -98.11474609 755.63769531 C-97.0759115 742.19696085 -96.03380091 728.7564785 -94.84375 715.328125 C-94.76636597 714.43430115 -94.68898193 713.54047729 -94.60925293 712.61956787 C-94.53517212 711.80441711 -94.46109131 710.98926636 -94.38476562 710.14941406 C-94.32212524 709.45076233 -94.25948486 708.7521106 -94.19494629 708.0322876 C-93.92745949 705.98567751 -93.43910609 704.06285908 -92.9375 702.0625 C-92.73351662 699.64869671 -92.57240465 697.23114762 -92.4375 694.8125 C-92.39689453 694.11737305 -92.35628906 693.42224609 -92.31445312 692.70605469 C-92.18519281 690.49172614 -92.06075124 688.27717065 -91.9375 686.0625 C-91.77516619 683.14556436 -91.60786441 680.22897641 -91.4375 677.3125 C-91.3653125 676.01828125 -91.293125 674.7240625 -91.21875 673.390625 C-90.99596975 670.75439204 -90.57929419 668.59568274 -89.9375 666.0625 C-89.74531839 663.83623427 -89.59582167 661.6061484 -89.47265625 659.375 C-89.43442245 658.71781982 -89.39618866 658.06063965 -89.35679626 657.38354492 C-89.19471823 654.59715769 -89.04109827 651.8103274 -88.88793945 649.0234375 C-88.28479686 638.17995412 -87.32543677 627.40320752 -86.19937134 616.60205078 C-85.77282956 612.4655748 -85.37193963 608.32668317 -84.97265625 604.1875 C-84.89355011 603.36830582 -84.81444397 602.54911163 -84.73294067 601.70509338 C-80.85162108 562.96570221 -80.85162108 562.96570221 -78.34643555 524.12280273 C-77.94071467 515.6330696 -77.01386886 507.18978615 -76.16625977 498.73510742 C-74.96911071 486.72376935 -73.97717212 474.6997021 -73.02783203 462.66650391 C-72.38820639 454.5677601 -71.72050957 446.4722681 -71.01293945 438.37915039 C-70.92573513 437.37907235 -70.83853081 436.37899431 -70.74868393 435.34861088 C-70.47865234 432.25320875 -70.20815232 429.15784791 -69.9375 426.0625 C-69.85627836 425.13321056 -69.77505672 424.20392113 -69.69137383 423.24647141 C-69.20883025 417.72657093 -68.72552539 412.20673732 -68.24196434 406.68692589 C-67.48944378 398.09558962 -66.73788959 389.5041687 -65.98613358 380.9127655 C-65.78633225 378.62944872 -65.58651064 376.34613371 -65.38666916 374.06282043 C-63.26682134 349.84162549 -61.14712733 325.62046581 -59.08203125 301.39453125 C-59.01245335 300.57891157 -58.94287544 299.76329189 -58.87118912 298.92295647 C-58.23209476 291.43043847 -57.59448198 283.93780168 -56.96287251 276.44464874 C-55.0417184 253.67527985 -55.0417184 253.67527985 -53.875 243.13671875 C-52.6998174 232.49073679 -52.05026013 221.81230724 -51.375 211.125 C-51.12788961 207.21976765 -50.87593915 203.31489056 -50.62109375 199.41015625 C-50.56690781 198.52795914 -50.51272186 197.64576202 -50.45689392 196.73683167 C-50.37659691 195.50790443 -50.37659691 195.50790443 -50.29467773 194.25415039 C-50.24963608 193.53868546 -50.20459442 192.82322052 -50.15818787 192.08607483 C-49.9375 190.0625 -49.9375 190.0625 -49.4432373 188.10939026 C-48.86397275 185.76491031 -48.66431145 183.52929588 -48.48852539 181.12060547 C-48.4149733 180.13792694 -48.3414212 179.15524841 -48.26564026 178.14279175 C-48.15155067 176.55230515 -48.15155067 176.55230515 -48.03515625 174.9296875 C-47.95253036 173.82384308 -47.86990448 172.71799866 -47.78477478 171.5786438 C-47.5198912 168.03183096 -47.25942899 164.48471573 -47 160.9375 C-45.06148174 134.4450296 -45.06148174 134.4450296 -43.63668823 122.32409668 C-42.80496445 115.16600615 -42.28777914 107.99497519 -41.78997803 100.80709839 C-40.35999027 80.26801973 -38.52660089 59.76763472 -36.65112305 39.26513672 C-36.44165721 36.96714402 -36.23242211 34.66913027 -36.0234375 32.37109375 C-35.92394302 31.27974121 -35.82444855 30.18838867 -35.72193909 29.06396484 C-35.08511022 21.98241421 -34.55373074 14.90462805 -34.17041016 7.80493164 C-33.96913121 5.43494589 -33.60412825 3.33871623 -32.9375 1.0625 C-21.93566288 0.16366703 -11.03326339 -0.06262857 0 0 Z " fill="#003379" transform="translate(912.9375,543.9375)"/>
<path d="M0 0 C282.15 0 564.3 0 855 0 C858 21 858 21 858 42 C573.21 42 288.42 42 -5 42 C-5 34.12054298 -4.8140245 26.56428988 -4.1875 18.75 C-4.08211914 17.19539063 -4.08211914 17.19539063 -3.97460938 15.609375 C-3.89404297 14.59875 -3.81347656 13.588125 -3.73046875 12.546875 C-3.62835083 11.19867676 -3.62835083 11.19867676 -3.52416992 9.82324219 C-3 7 -3 7 0 0 Z " fill="#001149" transform="translate(67,357)"/>
<path d="M0 0 C0.8728149 0.00085602 1.74562981 0.00171204 2.64489365 0.00259399 C13.4299504 0.01395968 24.2149751 0.0339993 35 0.0625 C33.72338873 7.79447052 32.40825627 15.51827493 31.0390625 23.234375 C30.85242538 24.28724197 30.66578827 25.34010895 30.47349548 26.42488098 C29.85869391 29.88766483 29.2421786 33.35013905 28.625 36.8125 C28.41156952 38.01027069 28.19813904 39.20804138 27.97824097 40.44210815 C24.27576327 61.1891241 20.45010023 81.91194781 16.5625 102.625 C16.43353584 103.31264938 16.30457169 104.00029877 16.17169952 104.70878601 C15.30530198 109.3283772 14.43656495 113.94752198 13.56640625 118.56640625 C13.35112778 119.71123978 13.1358493 120.8560733 12.91404724 122.03559875 C11.33537745 130.39131418 9.66794658 138.7227671 8 147.0625 C-18.07 147.0625 -44.14 147.0625 -71 147.0625 C-72.65 138.1525 -74.3 129.2425 -76 120.0625 C-78.35882021 107.60498078 -80.74954042 95.15378838 -83.14672852 82.70361328 C-84.57691346 75.27321458 -85.99553391 67.84070342 -87.40576172 60.40649414 C-88.42778873 55.03140802 -89.46555883 49.65949946 -90.51171875 44.2890625 C-90.78068644 42.90649533 -91.04964799 41.52392696 -91.31860352 40.14135742 C-91.84204136 37.45106259 -92.3675788 34.76118938 -92.89428711 32.0715332 C-94.23531375 25.18198115 -95.49121137 18.29414283 -96.56591797 11.35766602 C-96.89515211 9.04452222 -96.89515211 9.04452222 -98 7.0625 C-98.039992 5.06289988 -98.04346799 3.06202758 -98 1.0625 C-65.32935067 0.2971792 -32.67858363 -0.03227913 0 0 Z " fill="#0672AD" transform="translate(455,1045.9375)"/>
<path d="M0 0 C7.68659189 5.32820574 13.02694497 12.41529132 14.8125 21.6796875 C16.0542964 31.62785643 13.37622215 39.50323647 8.421875 48.08984375 C7.50086876 52.00412025 9.43574407 54.44294994 11.4375 57.6796875 C14.83960912 63.24342553 16.87939506 68.70287196 18.70947266 74.96337891 C19.92837452 79.07009076 21.2575007 83.12966242 22.6171875 87.19140625 C22.86610748 87.93697784 23.11502747 88.68254944 23.37149048 89.45071411 C24.14220191 91.7566397 24.91478604 94.06193229 25.6875 96.3671875 C26.19675855 97.88992582 26.70587361 99.41271213 27.21484375 100.93554688 C28.23124675 103.97600568 29.24819075 107.01628261 30.265625 110.05639648 C31.86342015 114.83138795 33.46019669 119.60671654 35.0546875 124.3828125 C35.29831024 125.11130905 35.54193298 125.8398056 35.79293823 126.59037781 C38.88624741 135.86110265 41.86199516 145.08970538 43.8125 154.6796875 C41.1725 154.6796875 38.5325 154.6796875 35.8125 154.6796875 C35.83570313 155.45465576 35.85890625 156.22962402 35.8828125 157.02807617 C36.05690132 167.79438147 34.98150826 178.30341144 33.8125 188.9921875 C33.52381902 191.65836943 33.23740666 194.32472771 32.95654297 196.991745 C32.78323357 198.63516673 32.60551579 200.27813256 32.42236328 201.92048645 C31.48890377 210.72044358 31.49199851 218.03356439 34.4375 226.4296875 C34.99492995 228.10065012 35.54951692 229.77256329 36.1015625 231.4453125 C36.38676758 232.30447266 36.67197266 233.16363281 36.96582031 234.04882812 C38.36389014 238.39300358 39.58526599 242.78478043 40.8125 247.1796875 C42.99756543 254.97243658 45.34476305 262.69594892 47.89648438 270.37695312 C49.34427484 274.82289279 50.29110206 279.03004473 50.8125 283.6796875 C46.8311217 285.0068136 42.96204773 284.74884663 38.8125 284.6796875 C33.78083048 274.13002491 29.3348281 263.37952374 24.9375 252.5546875 C23.92450812 250.06679114 22.91062158 247.57926513 21.89556885 245.09220886 C21.2216604 243.44008127 20.54925022 241.78734171 19.87835693 240.13398743 C18.15950049 235.91199882 16.40242656 231.71222625 14.57519531 227.53588867 C14.21062225 226.69555084 13.84604919 225.85521301 13.47042847 224.9894104 C12.78135795 223.40680609 12.0837399 221.82788118 11.3755188 220.25375366 C6.4170539 208.82374593 6.37880538 195.96770164 6.8125 183.6796875 C6.1525 183.6796875 5.4925 183.6796875 4.8125 183.6796875 C4.57789063 184.50339844 4.34328125 185.32710937 4.1015625 186.17578125 C2.56276265 190.35851903 0.4857211 193.93859666 -1.8125 197.7421875 C-2.21339844 198.41701172 -2.61429688 199.09183594 -3.02734375 199.78710938 C-3.65189453 200.83415039 -3.65189453 200.83415039 -4.2890625 201.90234375 C-4.70889908 202.61375015 -5.12873566 203.32515656 -5.56129456 204.05812073 C-6.7016872 205.89652035 -7.91222293 207.69236637 -9.17124939 209.4516449 C-14.96157957 217.87629996 -16.4317302 224.68040568 -16.58984375 234.9921875 C-16.63988578 236.4190682 -16.69338711 237.84583129 -16.75013733 239.27246094 C-16.88927388 242.98532603 -16.98458655 246.69795859 -17.06921387 250.41241455 C-17.18057858 254.93852498 -17.34440016 259.46299157 -17.50021458 263.98774719 C-17.62031309 267.50374919 -17.73293902 271.01943933 -17.82200623 274.53637695 C-17.87325401 276.4248938 -17.87325401 276.4248938 -17.92553711 278.3515625 C-17.95248154 279.4559668 -17.97942596 280.56037109 -18.00718689 281.69824219 C-18.1875 284.6796875 -18.1875 284.6796875 -19.1875 289.6796875 C-22.8175 290.3396875 -26.4475 290.9996875 -30.1875 291.6796875 C-31.40459396 280.12320314 -32.35331437 268.61869626 -32.79052734 257.00561523 C-33.09582585 249.48180685 -33.7261182 242.01243868 -34.52734375 234.52563477 C-34.79294199 231.91165513 -35.00562435 229.30082271 -35.1875 226.6796875 C-35.25598145 225.72312256 -35.32446289 224.76655762 -35.39501953 223.78100586 C-35.76763978 213.85356052 -33.41258076 204.88918507 -30.9375 195.3671875 C-30.53635289 193.77965187 -30.13660687 192.19176154 -29.73828125 190.60351562 C-28.95415278 187.48661699 -28.16181795 184.3720135 -27.36132812 181.25927734 C-26.1848722 176.68160068 -25.03430399 172.09768072 -23.890625 167.51171875 C-23.71819275 166.82067551 -23.5457605 166.12963226 -23.36810303 165.41764832 C-22.97424378 163.83840904 -22.58081775 162.25906173 -22.1875 160.6796875 C-23.1775 160.6796875 -24.1675 160.6796875 -25.1875 160.6796875 C-25.33283356 153.79145365 -24.93456073 147.13105584 -24.09375 140.296875 C-23.98276978 139.35659454 -23.87178955 138.41631409 -23.75744629 137.44754028 C-23.40624171 134.48257741 -23.04701711 131.51865269 -22.6875 128.5546875 C-22.44608066 126.52870938 -22.20519037 124.50266815 -21.96484375 122.4765625 C-21.37850308 117.54352081 -20.78497426 112.61139259 -20.1875 107.6796875 C-21.13778076 108.11724365 -22.08806152 108.5547998 -23.06713867 109.00561523 C-57.27318371 124.74584874 -57.27318371 124.74584874 -74.20507812 131.84619141 C-77.20614904 133.10797171 -80.19663352 134.39393141 -83.1875 135.6796875 C-87.1875 128.9296875 -87.1875 128.9296875 -87.1875 126.6796875 C-84.59253579 124.96811536 -81.99262023 123.37331791 -79.3125 121.8046875 C-60.00619373 110.27429307 -60.00619373 110.27429307 -42.6875 96.0390625 C-40.13598551 93.6310707 -37.48750779 91.43530453 -34.75 89.2421875 C-33.85539063 88.50613281 -32.96078125 87.77007813 -32.0390625 87.01171875 C-30.56066848 85.80267597 -29.07962964 84.59619701 -27.56933594 83.42724609 C-21.31069965 78.56409183 -16.70565618 74.77567577 -15.4375 66.4921875 C-15.30237233 64.55760971 -15.19983229 62.61893957 -15.1875 60.6796875 C-16.280625 60.7621875 -17.37375 60.8446875 -18.5 60.9296875 C-27.32743197 60.89843995 -35.96483987 56.84788234 -42.1875 50.6796875 C-49.84033411 41.18608261 -51.39878368 31.56540863 -50.1875 19.6796875 C-48.40230689 11.83903823 -44.35245926 5.61686561 -37.7890625 0.98828125 C-25.13477128 -6.89690022 -12.99070634 -7.84081918 0 0 Z " fill="#0372AF" transform="translate(569.1875,895.3203125)"/>
<path d="M0 0 C301.95 0 603.9 0 915 0 C915 3.96 915 7.92 915 12 C827.8761754 12.01710923 740.75235061 12.03303102 653.62852478 12.04234314 C652.34016272 12.0424812 651.05180067 12.04261925 649.72439734 12.04276149 C622.41016092 12.04568116 595.09592449 12.04840071 567.78168803 12.05087968 C554.06151643 12.0521251 540.34134484 12.05341008 526.62117325 12.05473244 C524.55149447 12.05493169 522.48181569 12.05512981 520.41213692 12.05532788 C488.52953875 12.05838906 456.64694096 12.06230011 424.76434326 12.06866455 C424.0784683 12.06880145 423.39259334 12.06893835 422.68593429 12.0690794 C411.62709873 12.07129186 400.56826318 12.07357543 389.50942764 12.07586844 C343.29199151 12.08544988 297.07455644 12.09185226 250.85711923 12.09391499 C244.43448998 12.09420317 238.01186074 12.0945288 231.58923149 12.09487724 C229.69303332 12.09497838 229.69303332 12.09497838 227.75852811 12.09508156 C207.36562435 12.09626573 186.97272276 12.1009104 166.57981989 12.10683203 C146.10465021 12.11270433 125.62948269 12.11497174 105.1543122 12.11350138 C92.97247239 12.11273771 80.79064046 12.11479595 68.60880207 12.12079754 C60.48745401 12.12452722 52.36611115 12.12467802 44.24476274 12.12183181 C39.60703404 12.12031151 34.96932031 12.12042946 30.33159316 12.12488318 C26.12223675 12.12889514 21.91290715 12.12840395 17.7035512 12.12413998 C16.18090132 12.1234189 14.65824955 12.12441617 13.13560211 12.12723524 C11.08533533 12.13079394 9.03506011 12.1277093 6.98479325 12.1241985 C5.27423173 12.12443247 5.27423173 12.12443247 3.52911342 12.12467116 C1 12 1 12 0 11 C0 7.37 0 3.74 0 0 Z " fill="#003278" transform="translate(39,510)"/>
<path d="M0 0 C3.58183842 0.01314129 7.1636642 0.00855834 10.74552 0.00629318 C16.92869797 0.00473169 23.11177986 0.01402191 29.29493368 0.03100669 C38.2343583 0.05554661 47.17373718 0.06321716 56.11319182 0.06697067 C70.62219154 0.07351185 85.13114022 0.09340914 99.64011228 0.1218785 C113.72148992 0.14947985 127.80285362 0.17068356 141.88425291 0.18340194 C143.18954984 0.1845842 143.18954984 0.1845842 144.52121641 0.18579034 C148.88740715 0.18970588 153.25359799 0.1934969 157.61978889 0.19722605 C193.75444766 0.22824917 229.88904843 0.28102074 266.0236572 0.34819686 C266.0236572 0.67819686 266.0236572 1.00819686 266.0236572 1.34819686 C264.79100126 1.38356048 263.55834531 1.4189241 262.28833616 1.45535934 C250.55291149 1.79220283 238.81752632 2.1303952 227.08217657 2.46983898 C221.05194657 2.64422124 215.02170457 2.81816208 208.99143064 2.99101913 C203.14932559 3.15849984 197.30725799 3.32723789 191.46521223 3.4967736 C189.25942697 3.56057844 187.05362954 3.62396374 184.84781873 3.68687904 C171.90499556 4.0563667 158.96626994 4.48095835 146.02873266 5.00624645 C134.35070371 5.47469836 122.6688047 5.68640738 110.98386228 5.90044296 C100.65427164 6.09289239 90.33965471 6.35388703 80.01975095 6.84819686 C65.77795382 7.51910975 51.52848815 7.66278158 37.2736572 7.84819686 C17.84347929 8.10279263 -1.56109918 8.52695053 -20.9763428 9.34819686 C-20.9763428 10.00819686 -20.9763428 10.66819686 -20.9763428 11.34819686 C-21.54997561 11.41136093 -22.12360842 11.47452499 -22.71462405 11.53960311 C-44.34098843 14.65721255 -68.43994181 26.32067929 -83.69899905 42.13335311 C-84.9763428 43.34819686 -84.9763428 43.34819686 -86.9763428 43.34819686 C-86.9763428 44.00819686 -86.9763428 44.66819686 -86.9763428 45.34819686 C-87.6363428 45.34819686 -88.2963428 45.34819686 -88.9763428 45.34819686 C-88.9763428 46.00819686 -88.9763428 46.66819686 -88.9763428 47.34819686 C-89.6363428 47.34819686 -90.2963428 47.34819686 -90.9763428 47.34819686 C-90.9763428 48.00819686 -90.9763428 48.66819686 -90.9763428 49.34819686 C-91.6363428 49.34819686 -92.2963428 49.34819686 -92.9763428 49.34819686 C-93.22126467 49.89733749 -93.46618655 50.44647811 -93.7185303 51.01225936 C-95.24220632 53.84194341 -97.11454217 56.19642952 -99.1013428 58.72319686 C-107.1238477 69.1777531 -115.83732246 81.96470792 -116.9763428 95.34819686 C-117.6363428 95.34819686 -118.2963428 95.34819686 -118.9763428 95.34819686 C-121.88683466 107.7662955 -123.74152864 120.11377575 -124.4138428 132.84819686 C-124.77798098 139.6145464 -125.57492778 146.25880381 -126.4763428 152.97319686 C-127.52251812 160.81796873 -128.22644725 168.56315079 -128.4763428 176.47319686 C-128.74213981 184.87449666 -129.64456089 193.03051252 -130.88601077 201.34038436 C-131.87821336 208.13004266 -132.4286529 214.86077013 -132.68532717 221.71636093 C-132.81514297 225.08365603 -133.15354307 228.09497333 -133.9763428 231.34819686 C-134.17654869 234.01760876 -134.34561725 236.67558564 -134.4763428 239.34819686 C-134.67857067 243.48263339 -134.96568804 247.30557783 -135.9763428 251.34819686 C-141.5863428 251.34819686 -147.1963428 251.34819686 -152.9763428 251.34819686 C-152.33479686 242.7080695 -151.59883742 234.08661945 -150.7419678 225.46538436 C-150.62374163 224.26822799 -150.50551547 223.07107162 -150.38370669 221.83763778 C-150.00011185 217.96593572 -149.61359598 214.09453464 -149.2263428 210.22319686 C-149.09248999 208.88097403 -148.95865016 207.5387499 -148.82482302 206.1965245 C-146.94407856 187.3598048 -144.92918417 168.54354328 -142.65871584 149.74931991 C-141.73949689 142.11305963 -140.86026336 134.48534298 -140.2107178 126.82085311 C-137.34900963 93.30885252 -127.73730147 62.78691538 -104.9763428 37.34819686 C-104.3782178 36.66757186 -103.7800928 35.98694686 -103.1638428 35.28569686 C-90.5764909 21.83025173 -73.97376768 12.51514378 -56.7263428 6.53569686 C-55.94243166 6.25758163 -55.15852053 5.9794664 -54.35085452 5.69292343 C-36.63439191 -0.09852224 -18.43545868 -0.08510599 0 0 Z " fill="#028AD7" transform="translate(235.97634279727936,62.65180313587189)"/>
<path d="M0 0 C18.81 0 37.62 0 57 0 C60 21 60 21 60 42 C41.52 42 23.04 42 4 42 C2.70139376 38.10418129 2.53964618 34.24369251 2.24609375 30.17578125 C2.18812622 29.41213257 2.13015869 28.64848389 2.07043457 27.86169434 C1.85526951 25.01227596 1.64678436 22.16235634 1.4375 19.3125 C0.963125 12.939375 0.48875 6.56625 0 0 Z " fill="#01286C" transform="translate(865,357)"/>
<path d="M0 0 C18.48 0 36.96 0 56 0 C54.5625 13.6875 54.5625 13.6875 54.11547852 17.91674805 C53.99615967 19.06183838 53.87684082 20.20692871 53.75390625 21.38671875 C53.57323608 23.10701294 53.57323608 23.10701294 53.38891602 24.86206055 C52.85259994 30.56828855 52.43957649 36.28550567 52 42 C33.19 42 14.38 42 -5 42 C-5 34.12054298 -4.8140245 26.56428988 -4.1875 18.75 C-4.08211914 17.19539063 -4.08211914 17.19539063 -3.97460938 15.609375 C-3.89404297 14.59875 -3.81347656 13.588125 -3.73046875 12.546875 C-3.62835083 11.19867676 -3.62835083 11.19867676 -3.52416992 9.82324219 C-3 7 -3 7 0 0 Z " fill="#01286C" transform="translate(67,357)"/>
<path d="M0 0 C301.95 0.33 603.9 0.66 915 1 C914.67 2.32 914.34 3.64 914 5 C914 4.34 914 3.68 914 3 C613.04 3 312.08 3 2 3 C2 7.62 2 12.24 2 17 C1.67 17 1.34 17 1 17 C0.14382011 11.11376326 0 6.12321914 0 0 Z " fill="#0B66A7" transform="translate(39,521)"/>
<path d="M0 0 C3.48729302 1.33811557 6.77920551 2.85896732 10.08203125 4.6015625 C11.47905273 5.33632813 11.47905273 5.33632813 12.90429688 6.0859375 C13.86400391 6.59382812 14.82371094 7.10171875 15.8125 7.625 C16.79154297 8.140625 17.77058594 8.65625 18.77929688 9.1875 C21.18736525 10.4561409 23.594213 11.72703966 26 13 C23 19 20 25 17 31 C16.43619629 30.8860791 15.87239258 30.7721582 15.29150391 30.65478516 C7.99382205 29.18707048 0.68559176 27.77680801 -6.625 26.375 C-8.41744141 26.03082031 -8.41744141 26.03082031 -10.24609375 25.6796875 C-13.16399711 25.11945005 -16.08196694 24.55956146 -19 24 C-17.72296757 21.25021564 -16.34750772 19.03950753 -14.35546875 16.7578125 C-13.84306641 16.16613281 -13.33066406 15.57445312 -12.80273438 14.96484375 C-12.26970703 14.35769531 -11.73667969 13.75054688 -11.1875 13.125 C-10.13893712 11.91960633 -9.09075636 10.71388014 -8.04296875 9.5078125 C-7.53556152 8.92547852 -7.0281543 8.34314453 -6.50537109 7.74316406 C-4.30139296 5.19103888 -2.14932034 2.59825416 0 0 Z " fill="#0773AD" transform="translate(446,1010)"/>
<path d="M0 0 C7.26 0 14.52 0 22 0 C21.51171875 3.15755208 21.0234375 6.31510417 20.53515625 9.47265625 C20.00322195 12.97876337 19.50151254 16.48941224 19 20 C12.4 20 5.8 20 -1 20 C-1.020625 17.4425 -1.04125 14.885 -1.0625 12.25 C-1.071604 11.45110352 -1.08070801 10.65220703 -1.09008789 9.82910156 C-1.10386858 6.29946777 -0.86244046 3.44976182 0 0 Z " fill="#F0FBFD" transform="translate(453,1075)"/>
<path d="M0 0 C1.18613892 0.00785522 1.18613892 0.00785522 2.39624023 0.01586914 C3.16524658 0.0183667 3.93425293 0.02086426 4.7265625 0.0234375 C5.70939209 0.0325415 6.69222168 0.04164551 7.70483398 0.05102539 C12.37639648 0.08196289 12.37639648 0.08196289 17.14233398 0.11352539 C16.15233398 6.38352539 15.16233398 12.65352539 14.14233398 19.11352539 C8.20233398 19.11352539 2.26233398 19.11352539 -3.85766602 19.11352539 C-3.94274504 12.987836 -3.84763694 7.16334772 -2.85766602 1.11352539 C-1.85766602 0.11352539 -1.85766602 0.11352539 0 0 Z " fill="#E7F4F8" transform="translate(452.857666015625,1103.886474609375)"/>
<path d="M0 0 C5.94 0 11.88 0 18 0 C18 6.88465333 17.6882377 13.20365274 17 20 C11.39 20 5.78 20 0 20 C0 13.4 0 6.8 0 0 Z " fill="#EFFAFD" transform="translate(425,1075)"/>
<path d="M0 0 C5.94 0 11.88 0 18 0 C18 6.6 18 13.2 18 20 C12.72 20 7.44 20 2 20 C0.42804224 13.1226848 -0.20146331 7.05121598 0 0 Z " fill="#EAF8FC" transform="translate(398,1075)"/>
<path d="M0 0 C5.28 0 10.56 0 16 0 C17.485 9.9 17.485 9.9 19 20 C13.72 20 8.44 20 3 20 C2.505 17.628125 2.01 15.25625 1.5 12.8125 C1.34337891 12.07491455 1.18675781 11.3373291 1.02539062 10.57739258 C0.27430979 6.89898414 0 3.79719488 0 0 Z " fill="#EEF9FC" transform="translate(372,1075)"/>
<path d="M0 0 C4.95 0 9.9 0 15 0 C16.41229992 4.94304972 17.29160652 8.49216336 17.625 13.4375 C17.69976562 14.48808594 17.77453125 15.53867188 17.8515625 16.62109375 C17.90054687 17.40613281 17.94953125 18.19117188 18 19 C15.68756208 19.02685412 13.3750373 19.04632841 11.0625 19.0625 C9.77472656 19.07410156 8.48695313 19.08570313 7.16015625 19.09765625 C4 19 4 19 3 18 C2.70569228 16.66369883 2.46338167 15.31580778 2.24609375 13.96484375 C2.11396484 13.15595703 1.98183594 12.34707031 1.84570312 11.51367188 C1.71099609 10.66353516 1.57628906 9.81339844 1.4375 8.9375 C1.29892578 8.08349609 1.16035156 7.22949219 1.01757812 6.34960938 C0.67476995 4.23365549 0.33692384 2.11689882 0 0 Z " fill="#F1F8FB" transform="translate(377,1104)"/>
<path d="M0 0 C4.95 0 9.9 0 15 0 C14.67 6.27 14.34 12.54 14 19 C9.38 19 4.76 19 0 19 C0 12.73 0 6.46 0 0 Z " fill="#E5F4F9" transform="translate(426,1104)"/>
<path d="M0 0 C1.00023193 0.00523682 2.00046387 0.01047363 3.03100586 0.01586914 C4.1105957 0.0190918 5.19018555 0.02231445 6.30249023 0.02563477 C8.00695312 0.03820313 8.00695312 0.03820313 9.74584961 0.05102539 C11.45611328 0.05779297 11.45611328 0.05779297 13.20092773 0.06469727 C16.02842379 0.07652779 18.85589306 0.09446389 21.68334961 0.11352539 C21.02334961 3.74352539 20.36334961 7.37352539 19.68334961 11.11352539 C12.09334961 11.11352539 4.50334961 11.11352539 -3.31665039 11.11352539 C-3.31665039 0.1625295 -3.31665039 0.1625295 0 0 Z " fill="#E3F2F8" transform="translate(457.316650390625,1054.886474609375)"/>
<path d="M0 0 C2.31243792 -0.02685412 4.6249627 -0.04632841 6.9375 -0.0625 C8.22527344 -0.07410156 9.51304687 -0.08570313 10.83984375 -0.09765625 C14 0 14 0 15 1 C15.08631874 2.34267413 15.10706473 3.68974322 15.09765625 5.03515625 C15.09443359 5.84404297 15.09121094 6.65292969 15.08789062 7.48632812 C15.07951172 8.33646484 15.07113281 9.18660156 15.0625 10.0625 C15.05798828 10.91650391 15.05347656 11.77050781 15.04882812 12.65039062 C15.03700373 14.76695663 15.01906769 16.88348685 15 19 C13.02090602 19.02686553 11.04171029 19.04633375 9.0625 19.0625 C7.96035156 19.07410156 6.85820312 19.08570313 5.72265625 19.09765625 C3 19 3 19 2 18 C1.77486899 16.66197814 1.60639193 15.31426977 1.46484375 13.96484375 C1.37783203 13.15595703 1.29082031 12.34707031 1.20117188 11.51367188 C1.0706543 10.2384668 1.0706543 10.2384668 0.9375 8.9375 C0.80118164 7.65649414 0.80118164 7.65649414 0.66210938 6.34960938 C0.43749278 4.23348465 0.21824773 2.11679106 0 0 Z " fill="#E8F3F6" transform="translate(402,1104)"/>
<path d="M0 0 C5.28 0 10.56 0 16 0 C15.125 10.625 15.125 10.625 14 14 C9.05 14 4.1 14 -1 14 C-0.67 9.38 -0.34 4.76 0 0 Z " fill="#EBF5F8" transform="translate(448,1132)"/>
<path d="M0 0 C6.6 0 13.2 0 20 0 C20 3.3 20 6.6 20 10 C13.4 10 6.8 10 0 10 C0 6.7 0 3.4 0 0 Z " fill="#FDFEFE" transform="translate(395,1056)"/>
<path d="M0 0 C4.62 0 9.24 0 14 0 C14.66 4.62 15.32 9.24 16 14 C11.38 14 6.76 14 2 14 C1.505 11.9271875 1.505 11.9271875 1 9.8125 C0.814375 9.03519531 0.62875 8.25789063 0.4375 7.45703125 C0 5 0 5 0 0 Z " fill="#EAF4F6" transform="translate(383,1132)"/>
<path d="M0 0 C6.6 0 13.2 0 20 0 C19.67 2.97 19.34 5.94 19 9 C12.73 9 6.46 9 0 9 C0 6.03 0 3.06 0 0 Z " fill="#FAFDFD" transform="translate(425,1056)"/>
<path d="M0 0 C5.61 0 11.22 0 17 0 C17.33 3.3 17.66 6.6 18 10 C12.72 10 7.44 10 2 10 C1.34 6.7 0.68 3.4 0 0 Z " fill="#E1EFF5" transform="translate(368,1056)"/>
<path d="M0 0 C3.96 0 7.92 0 12 0 C11.67 4.62 11.34 9.24 11 14 C7.37 14 3.74 14 0 14 C0 9.38 0 4.76 0 0 Z " fill="#E7F2F6" transform="translate(427,1132)"/>
<path d="M0 0 C3.96 0 7.92 0 12 0 C12 4.62 12 9.24 12 14 C8.7 14 5.4 14 2 14 C1.34 9.38 0.68 4.76 0 0 Z " fill="#E1F0F7" transform="translate(406,1132)"/>
<path d="M0 0 C4.62 0 9.24 0 14 0 C13.67 3.63 13.34 7.26 13 11 C8.71 11 4.42 11 0 11 C0 7.37 0 3.74 0 0 Z " fill="#E7F8FC" transform="translate(446,1155)"/>
<path d="M0 0 C4.29 0 8.58 0 13 0 C13.33 3.63 13.66 7.26 14 11 C10.04 11 6.08 11 2 11 C1.34 7.37 0.68 3.74 0 0 Z " fill="#EAF9FD" transform="translate(387,1155)"/>
<path d="M0 0 C4.29 0 8.58 0 13 0 C13 2.64 13 5.28 13 8 C9.04 8 5.08 8 1 8 C0.67 5.36 0.34 2.72 0 0 Z " fill="#EAF5F9" transform="translate(391,1176)"/>
<path d="M0 0 C2.97 0 5.94 0 9 0 C9.125 8.75 9.125 8.75 8 11 C5.36 11 2.72 11 0 11 C0 7.37 0 3.74 0 0 Z " fill="#DFF3F7" transform="translate(428,1155)"/>
<path d="M0 0 C3.96 0 7.92 0 12 0 C11.67 2.64 11.34 5.28 11 8 C7.37 8 3.74 8 0 8 C0 5.36 0 2.72 0 0 Z " fill="#E9F5FA" transform="translate(444,1176)"/>
<path d="M0 0 C2.64 0 5.28 0 8 0 C8 3.63 8 7.26 8 11 C5.69 11 3.38 11 1 11 C0.67 7.37 0.34 3.74 0 0 Z " fill="#E5F8FD" transform="translate(410,1155)"/>
<path d="M0 0 C6.6 0 13.2 0 20 0 C20 3.3 20 6.6 20 10 C13.4 10 6.8 10 0 10 C0 6.7 0 3.4 0 0 Z M2 2 C2 4.31 2 6.62 2 9 C7.61 9 13.22 9 19 9 C19 6.69 19 4.38 19 2 C13.39 2 7.78 2 2 2 Z " fill="#C8DFE7" transform="translate(395,1056)"/>
<path d="M0 0 C2.31 0 4.62 0 7 0 C7 2.64 7 5.28 7 8 C4.69 8 2.38 8 0 8 C0 5.36 0 2.72 0 0 Z " fill="#DBEAF2" transform="translate(428,1176)"/>
<path d="M0 0 C0.66 0 1.32 0 2 0 C3.05728087 6.85983809 3.11639843 13.56783224 3.0625 20.5 C3.05798828 21.60859375 3.05347656 22.7171875 3.04882812 23.859375 C3.03713158 26.57297399 3.02074086 29.28645761 3 32 C2.67 32 2.34 32 2 32 C1.66002426 28.35475481 1.32925063 24.70872831 1 21.0625 C0.90460938 20.04091797 0.80921875 19.01933594 0.7109375 17.96679688 C0.17253448 11.94822031 -0.10081112 6.04236648 0 0 Z " fill="#4F87A6" transform="translate(66,830)"/>
<path d="M0 0 C0.33 0 0.66 0 1 0 C2.13955862 6.32589627 2.1142637 12.52278338 2.0625 18.9375 C2.05798828 20.00291016 2.05347656 21.06832031 2.04882812 22.16601562 C2.03711787 24.77740291 2.02071724 27.38867124 2 30 C1.67 30 1.34 30 1 30 C0.66213906 26.4587501 0.33052169 22.91694184 0 19.375 C-0.09539062 18.37597656 -0.19078125 17.37695312 -0.2890625 16.34765625 C-1.52243366 3.04486732 -1.52243366 3.04486732 0 0 Z " fill="#5188A7" transform="translate(105,1271)"/>
<path d="M0 0 C0.33 0 0.66 0 1 0 C1 8.25 1 16.5 1 25 C0.34 25 -0.32 25 -1 25 C-1 27.31 -1 29.62 -1 32 C-1.33 32 -1.66 32 -2 32 C-2.11819618 24.91561644 -1.65844024 17.98903903 -1 10.9375 C-0.90460937 9.88111328 -0.80921875 8.82472656 -0.7109375 7.73632812 C-0.47753261 5.15720414 -0.24048257 2.57847201 0 0 Z " fill="#9AE0F7" transform="translate(602,1081)"/>
<path d="M0 0 C0.33 0 0.66 0 1 0 C1.05413245 2.89608593 1.09373641 5.79115195 1.125 8.6875 C1.15013672 9.91243164 1.15013672 9.91243164 1.17578125 11.16210938 C1.2114802 15.57092929 1.07580814 18.98731576 -1 23 C-1.33 23 -1.66 23 -2 23 C-1.86111494 19.72883268 -1.71269508 16.458166 -1.5625 13.1875 C-1.52318359 12.25873047 -1.48386719 11.32996094 -1.44335938 10.37304688 C-1.40146484 9.48037109 -1.35957031 8.58769531 -1.31640625 7.66796875 C-1.27974854 6.84578857 -1.24309082 6.0236084 -1.20532227 5.17651367 C-1 3 -1 3 0 0 Z " fill="#3F6D95" transform="translate(74,258)"/>
<path d="M0 0 C0.33 0 0.66 0 1 0 C1 2.64 1 5.28 1 8 C0.34 8 -0.32 8 -1 8 C-1 9.98 -1 11.96 -1 14 C-1.66 14 -2.32 14 -3 14 C-3 16.64 -3 19.28 -3 22 C-3.66 22 -4.32 22 -5 22 C-5.33 22.99 -5.66 23.98 -6 25 C-5.4138281 19.07090494 -4.19595619 13.68419734 -2.4375 8 C-2.20353516 7.22527344 -1.96957031 6.45054687 -1.72851562 5.65234375 C-1.15809962 3.7664786 -0.57987197 1.8829791 0 0 Z " fill="#476E8F" transform="translate(90,140)"/>
<path d="M0 0 C1.98 0 3.96 0 6 0 C6 2.64 6 5.28 6 8 C4.35 8 2.7 8 1 8 C0.67 5.36 0.34 2.72 0 0 Z " fill="#E8F5F7" transform="translate(413,1176)"/>
<path d="M0 0 C4.95 0 9.9 0 15 0 C15.33 1.65 15.66 3.3 16 5 C15.67 4.01 15.34 3.02 15 2 C10.71 2 6.42 2 2 2 C1.67 3.32 1.34 4.64 1 6 C0.67 4.02 0.34 2.04 0 0 Z " fill="#A0D5E7" transform="translate(377,1104)"/>
<path d="M0 0 C0.33 0 0.66 0 1 0 C3.66815719 7.69057071 2.76557692 15.05455308 2 23 C1.67 23 1.34 23 1 23 C0.67 15.41 0.34 7.82 0 0 Z " fill="#5992B1" transform="translate(88,1084)"/>
<path d="M0 0 C0.99 0.33 1.98 0.66 3 1 C0.42215154 3.64752004 -1.91648098 5.94432065 -5 8 C-5.33 8.99 -5.66 9.98 -6 11 C-8.0625 11.6875 -8.0625 11.6875 -10 12 C-3.84965831 3.55353075 -3.84965831 3.55353075 0 0 Z " fill="#456A8A" transform="translate(127,77)"/>
<path d="M0 0 C0.33 0 0.66 0 1 0 C1.09765625 6.15234375 1.09765625 6.15234375 1 8 C0.67 8.33 0.34 8.66 0 9 C-0.23363881 10.84891946 -0.41303635 12.70488031 -0.5625 14.5625 C-0.64628906 15.57441406 -0.73007812 16.58632812 -0.81640625 17.62890625 C-0.87699219 18.41136719 -0.93757812 19.19382812 -1 20 C-1.33 20 -1.66 20 -2 20 C-2.3690205 6.3667426 -2.3690205 6.3667426 0 0 Z " fill="#577C91" transform="translate(536,1102)"/>
<path d="M0 0 C0.33 0 0.66 0 1 0 C1.54782783 6.0261061 -1.36771645 10.76976703 -4 16 C-3.6083965 10.04492601 -2.62875405 5.37180176 0 0 Z " fill="#3F6587" transform="translate(96,124)"/>
<path d="M0 0 C0.33 0 0.66 0 1 0 C1 2.64 1 5.28 1 8 C0.34 8 -0.32 8 -1 8 C-1 9.32 -1 10.64 -1 12 C-1.66 12 -2.32 12 -3 12 C-2.01 8.04 -1.02 4.08 0 0 Z " fill="#ABE7F7" transform="translate(294,980)"/>
<path d="M0 0 C0.33 0 0.66 0 1 0 C1 1.98 1 3.96 1 6 C0.34 6 -0.32 6 -1 6 C-1 8.31 -1 10.62 -1 13 C-1.33 13 -1.66 13 -2 13 C-2.05447047 11.58376784 -2.09300508 10.16691809 -2.125 8.75 C-2.14820313 7.96109375 -2.17140625 7.1721875 -2.1953125 6.359375 C-1.9828378 3.79268059 -1.28654105 2.2083933 0 0 Z " fill="#B2EDFE" transform="translate(602,1100)"/>
<path d="M0 0 C0.33 0 0.66 0 1 0 C1 2.64 1 5.28 1 8 C0.34 8 -0.32 8 -1 8 C-1.33 8.99 -1.66 9.98 -2 11 C-3 9 -3 9 -2.44140625 6.8359375 C-2.15136719 6.02382812 -1.86132812 5.21171875 -1.5625 4.375 C-1.27503906 3.55773437 -0.98757812 2.74046875 -0.69140625 1.8984375 C-0.46324219 1.27195313 -0.23507813 0.64546875 0 0 Z " fill="#517593" transform="translate(90,140)"/>
<path d="M0 0 C0.33 0.99 0.66 1.98 1 3 C-0.98 3.99 -0.98 3.99 -3 5 C-3 5.66 -3 6.32 -3 7 C-3.99 6.67 -4.98 6.34 -6 6 C-4.02 4.02 -2.04 2.04 0 0 Z " fill="#0F6AAA" transform="translate(806,1709)"/>
</svg>
