<?xml version="1.0" encoding="UTF-8"?>
<svg version="1.1" xmlns="http://www.w3.org/2000/svg" width="1002" height="1802">
<path d="M0 0 C2.5564813 -0.00302269 5.1129617 -0.00691276 7.66944051 -0.01159257 C13.21534596 -0.02032453 18.76121448 -0.02167742 24.30712509 -0.01808929 C32.55448916 -0.01276754 40.80181765 -0.01889239 49.04917785 -0.02717223 C64.6382673 -0.04239312 80.22734047 -0.04411925 95.81643578 -0.0416492 C107.85688661 -0.03981478 119.89733212 -0.04157928 131.93778229 -0.04587364 C133.66915028 -0.04647605 135.40051827 -0.04707725 137.13188626 -0.04767724 C139.74106992 -0.04858452 142.35025358 -0.04949319 144.95943724 -0.0504096 C169.2110502 -0.05883633 193.46266115 -0.06317677 217.71427536 -0.05900288 C219.08495502 -0.05876831 219.08495502 -0.05876831 220.48332518 -0.05852901 C225.11448963 -0.05772326 229.74565407 -0.05687749 234.37681851 -0.05601571 C235.75640124 -0.05575908 235.75640124 -0.05575908 237.16385433 -0.05549726 C239.02375427 -0.0551506 240.88365421 -0.05480207 242.74355415 -0.05445167 C271.67989858 -0.04909516 300.61621253 -0.05702405 329.55255127 -0.07548523 C362.08246032 -0.0962149 394.61235049 -0.10692608 427.14226651 -0.10290974 C430.61282174 -0.10251441 434.08337696 -0.10215286 437.55393219 -0.10181236 C438.83568609 -0.10167627 438.83568609 -0.10167627 440.14333401 -0.10153742 C453.02621531 -0.10037289 465.90907751 -0.10700873 478.79195404 -0.11762428 C493.44895231 -0.1296896 508.10590857 -0.13121992 522.76290748 -0.11883412 C530.95782219 -0.11221842 539.1526364 -0.11380671 547.34754302 -0.12742263 C553.47753673 -0.13667102 559.60742045 -0.13011848 565.73740616 -0.11757483 C568.20903982 -0.11492816 570.68068529 -0.11729344 573.15230736 -0.1253107 C600.86906118 -0.20894232 627.16491308 3.4971227 649.01348877 22.26069641 C649.01348877 22.92069641 649.01348877 23.58069641 649.01348877 24.26069641 C649.81786377 24.57007141 649.81786377 24.57007141 650.63848877 24.88569641 C653.93326886 26.79320067 656.60712505 29.30889025 659.01348877 32.26069641 C659.01348877 32.92069641 659.01348877 33.58069641 659.01348877 34.26069641 C659.67348877 34.26069641 660.33348877 34.26069641 661.01348877 34.26069641 C662.83613696 36.64253186 664.53361138 39.02290785 666.20098877 41.51069641 C666.6963916 42.2457843 667.19179443 42.98087219 667.70220947 43.73823547 C669.15110316 45.90484958 670.58499968 48.08058951 672.01348877 50.26069641 C672.67348877 51.26100891 673.33348877 52.26132141 674.01348877 53.29194641 C679.64533602 62.36547809 683.30440433 72.29035188 687.01348877 82.26069641 C687.29611572 83.00593567 687.57874268 83.75117493 687.86993408 84.51899719 C698.56907522 113.02632187 700.6114543 143.73712347 702.88897705 173.83735657 C703.64820476 183.84674146 704.51117798 193.83467341 705.51348877 203.82319641 C706.72101073 215.8881961 707.74423044 227.95932016 708.69897461 240.04646301 C709.68378647 252.4960694 710.7865812 264.92979127 712.01153564 277.35810852 C712.69791116 284.42711266 713.23922994 291.48725784 713.65768433 298.5758667 C713.97920512 303.94585767 714.4439163 309.28705489 715.01348877 314.63569641 C715.51348877 319.47163391 715.51348877 319.47163391 715.75958252 321.86909485 C715.92815341 323.45690298 716.10775769 325.04358043 716.29864502 326.62886047 C716.85314554 331.46902523 717.06241901 336.21207349 717.04083252 341.08638 C717.03688477 342.24592194 717.03293701 343.40546387 717.02886963 344.60014343 C717.0212561 345.91711716 717.0212561 345.91711716 717.01348877 347.26069641 C717.70031235 347.2584758 718.38713593 347.25625519 719.09477234 347.25396729 C726.21554039 347.23191746 733.33629881 347.21679108 740.45709229 347.20576477 C743.11790358 347.20072258 745.77871209 347.19388905 748.43951416 347.18525696 C752.25454393 347.17318633 756.06953721 347.16746712 759.88458252 347.16304016 C761.68142738 347.15529823 761.68142738 347.15529823 763.51457214 347.1473999 C765.16617088 347.14728661 765.16617088 347.14728661 766.85113525 347.14717102 C767.82598373 347.14495041 768.80083221 347.1427298 769.80522156 347.14044189 C772.01348877 347.26069641 772.01348877 347.26069641 773.01348877 348.26069641 C773.11115273 349.67515634 773.13980554 351.09445587 773.14047241 352.51228333 C773.14329224 353.42935562 773.14611206 354.34642792 773.14901733 355.29129028 C773.1469931 356.30535446 773.14496887 357.31941864 773.1428833 358.36421204 C773.14463562 359.42589096 773.14638794 360.48756989 773.14819336 361.5814209 C773.15261425 365.10994577 773.14967305 368.63842099 773.14630127 372.16694641 C773.14697424 374.60692861 773.14794421 377.04691074 773.14920044 379.4868927 C773.15067774 384.60827775 773.14852184 389.72964541 773.14385986 394.85102844 C773.13816257 401.43232356 773.1414414 408.0135779 773.14743233 414.59487152 C773.15103709 419.63555715 773.14989975 424.67623303 773.14730453 429.71691895 C773.14663503 432.14433802 773.1474645 434.57175797 773.14978409 436.99917603 C773.15230922 440.38520164 773.14847199 443.7711602 773.1428833 447.15718079 C773.14490753 448.17124496 773.14693176 449.18530914 773.14901733 450.23010254 C773.14619751 451.14717484 773.14337769 452.06424713 773.14047241 453.0091095 C773.14009539 453.81069237 773.13971836 454.61227524 773.13932991 455.4381485 C773.01348877 457.26069641 773.01348877 457.26069641 772.01348877 458.26069641 C770.0868137 458.34817848 768.15697016 458.36766975 766.22833252 458.35835266 C764.47359619 458.35351868 764.47359619 458.35351868 762.68341064 458.34858704 C761.45171143 458.34020813 760.22001221 458.33182922 758.95098877 458.32319641 C757.09763916 458.31642883 757.09763916 458.31642883 755.20684814 458.30952454 C752.1423476 458.29769249 749.07794155 458.28120814 746.01348877 458.26069641 C745.95741455 460.10341125 745.95741455 460.10341125 745.90020752 461.98335266 C745.46440757 474.27148243 744.48229902 486.44743014 743.24078369 498.6789093 C742.18051138 509.19591919 741.31767145 519.72124599 740.51348877 530.26069641 C739.63406177 541.75454598 738.66770942 553.2281287 737.51348877 564.69819641 C736.33962737 576.3756718 735.38487064 588.05745924 734.51348877 599.76069641 C733.54922839 612.71135358 732.43805457 625.62990634 731.13848877 638.55195618 C730.12572668 648.75803978 729.29850256 658.97244633 728.51348877 669.19819641 C727.61527925 680.8972877 726.64192165 692.58137936 725.51348877 704.26069641 C724.41517397 715.64904794 723.45454343 727.04097081 722.57598877 738.44819641 C721.47549546 752.70624211 720.28231939 766.95411928 719.01348877 781.19819641 C718.92869263 782.15080353 718.84389648 783.10341064 718.75653076 784.08488464 C717.55833022 797.50830526 716.2766147 810.92174735 714.94708252 824.3327179 C714.22021052 831.77558426 713.69273219 839.18658267 713.31817627 846.65522766 C712.90867114 853.59618096 712.13331373 860.50969705 711.44024658 867.42671204 C710.31565452 878.69457597 709.37687824 889.97001107 708.51348877 901.26069641 C707.5359078 914.02494214 706.41631011 926.76069614 705.13848877 939.49897766 C704.12563856 949.74353551 703.30021927 959.99668501 702.51348877 970.26069641 C701.66876944 981.27442184 700.75612915 992.27056599 699.63848877 1003.26069641 C698.0211938 1019.24027385 696.78462189 1035.2507563 695.51348877 1051.26069641 C692.855066 1084.73501852 692.855066 1084.73501852 691.17755127 1101.10054016 C689.75416997 1115.30272249 688.6628216 1129.5343067 687.51348877 1143.76069641 C686.13958625 1160.76630565 684.75243061 1177.76430247 683.03692627 1194.73945618 C681.99161062 1205.1740524 681.15253917 1215.62129211 680.32543945 1226.07493591 C679.47626094 1236.79253105 678.54527417 1247.49635983 677.51348877 1258.19819641 C676.42166569 1269.56587674 675.45727058 1280.93741349 674.57598877 1292.32319641 C673.44200046 1306.95285844 672.25490669 1321.57723077 671.01348877 1336.19819641 C670.92802795 1337.20528656 670.84256714 1338.21237671 670.7545166 1339.24998474 C669.62896133 1352.47332959 668.41043401 1365.68236375 667.08770752 1378.8874054 C666.07675154 1389.16797606 665.28235759 1399.45964408 664.51348877 1409.76069641 C663.55832701 1422.55022897 662.47899486 1435.31240644 661.20880127 1448.07514954 C660.07859437 1459.46460569 659.03040673 1470.86057394 658.01348877 1482.26069641 C657.92802795 1483.2181073 657.84256714 1484.17551819 657.7545166 1485.16194153 C656.48355157 1499.45361125 655.33896155 1513.7516732 654.26986694 1528.05970764 C653.17238454 1542.70608215 651.81662224 1557.31342459 650.34112549 1571.92671204 C650.03601739 1575.03144835 649.75457151 1578.13697515 649.48614502 1581.24507141 C647.08355605 1608.91770415 641.4584467 1635.39966929 627.86895752 1659.84663391 C625.966611 1663.10939065 625.966611 1663.10939065 625.01348877 1666.26069641 C624.35348877 1666.26069641 623.69348877 1666.26069641 623.01348877 1666.26069641 C622.35348877 1668.24069641 621.69348877 1670.22069641 621.01348877 1672.26069641 C620.35348877 1672.26069641 619.69348877 1672.26069641 619.01348877 1672.26069641 C618.72473877 1673.02382141 618.43598877 1673.78694641 618.13848877 1674.57319641 C617.01348877 1677.26069641 617.01348877 1677.26069641 615.01348877 1680.26069641 C614.35348877 1680.26069641 613.69348877 1680.26069641 613.01348877 1680.26069641 C613.01348877 1680.92069641 613.01348877 1681.58069641 613.01348877 1682.26069641 C612.35348877 1682.26069641 611.69348877 1682.26069641 611.01348877 1682.26069641 C611.01348877 1682.92069641 611.01348877 1683.58069641 611.01348877 1684.26069641 C610.35348877 1684.26069641 609.69348877 1684.26069641 609.01348877 1684.26069641 C609.01348877 1684.92069641 609.01348877 1685.58069641 609.01348877 1686.26069641 C608.35348877 1686.26069641 607.69348877 1686.26069641 607.01348877 1686.26069641 C607.01348877 1686.92069641 607.01348877 1687.58069641 607.01348877 1688.26069641 C606.35348877 1688.26069641 605.69348877 1688.26069641 605.01348877 1688.26069641 C605.01348877 1688.92069641 605.01348877 1689.58069641 605.01348877 1690.26069641 C599.60172406 1694.26069641 599.60172406 1694.26069641 597.01348877 1694.26069641 C597.01348877 1694.92069641 597.01348877 1695.58069641 597.01348877 1696.26069641 C580.98502608 1704.93839237 565.87247651 1709.43442147 547.54301929 1709.38933086 C546.17121636 1709.39196042 546.17121636 1709.39196042 544.77170023 1709.3946431 C541.71473328 1709.39928592 538.65781424 1709.39684203 535.60084534 1709.39440918 C533.38391255 1709.39627802 531.16698009 1709.39857901 528.95004815 1709.4012745 C522.86336043 1709.40738992 516.77668645 1709.40725921 510.68999636 1709.40608013 C504.79796483 1709.40589702 498.90593803 1709.41038863 493.01390835 1709.41469302 C479.47592163 1709.42435699 465.9379387 1709.4271769 452.39994893 1709.42775007 C441.94356971 1709.42820988 431.48719196 1709.43026958 421.03081322 1709.4334507 C418.01932452 1709.43434826 415.00783583 1709.43523808 411.99634713 1709.43612558 C411.2476487 1709.43634662 410.49895026 1709.43656767 409.727564 1709.43679542 C388.67177891 1709.44294848 367.61599434 1709.4468961 346.56020832 1709.44645214 C345.7665767 1709.44643656 344.97294509 1709.44642098 344.15526403 1709.44640493 C340.13294943 1709.44632183 336.11063483 1709.44622279 332.08832023 1709.44612022 C330.89008465 1709.44609031 330.89008465 1709.44609031 329.6676423 1709.44605978 C328.05222623 1709.44601935 326.43681016 1709.44597755 324.82139408 1709.44593439 C299.69214187 1709.44532174 274.56290314 1709.45282691 249.43365479 1709.46650696 C221.19057657 1709.48187586 192.94750722 1709.49047269 164.70442456 1709.48954374 C161.69136409 1709.48946911 158.67830362 1709.4894204 155.66524315 1709.48938942 C154.55243435 1709.48937194 154.55243435 1709.48937194 153.41714456 1709.4893541 C141.4915698 1709.48932336 129.56600677 1709.49570235 117.64043549 1709.50432168 C105.6494656 1709.51280888 93.65851284 1709.51377977 81.6675416 1709.50721236 C75.17474984 1709.50394709 68.68200052 1709.50389082 62.1892128 1709.51256561 C56.24093728 1709.52043108 50.29273787 1709.51899861 44.34446421 1709.51028148 C42.1971225 1709.50874661 40.04977511 1709.51056216 37.90244011 1709.51614156 C13.80639259 1709.57458379 -10.17044826 1707.08323598 -28.98651123 1690.26069641 C-28.98651123 1689.60069641 -28.98651123 1688.94069641 -28.98651123 1688.26069641 C-29.85276123 1687.88944641 -29.85276123 1687.88944641 -30.73651123 1687.51069641 C-33.31591102 1686.07769653 -35.04772715 1684.47644965 -36.98651123 1682.26069641 C-36.98651123 1681.60069641 -36.98651123 1680.94069641 -36.98651123 1680.26069641 C-37.64651123 1680.26069641 -38.30651123 1680.26069641 -38.98651123 1680.26069641 C-40.80009315 1677.96471391 -42.46951549 1675.67621264 -44.11151123 1673.26069641 C-44.84748535 1672.1822345 -44.84748535 1672.1822345 -45.59832764 1671.08198547 C-50.45754912 1663.80345156 -54.3509421 1656.206454 -57.98651123 1648.26069641 C-58.44541748 1647.29261047 -58.90432373 1646.32452454 -59.37713623 1645.32710266 C-62.13224374 1639.18042294 -64.14138315 1632.83486844 -66.04901123 1626.38569641 C-66.28249268 1625.61523987 -66.51597412 1624.84478333 -66.75653076 1624.05097961 C-71.70363528 1606.66048052 -73.69262739 1588.66783735 -75.17791748 1570.70991516 C-75.36526958 1568.54009423 -75.55354198 1566.37035261 -75.74264526 1564.20068359 C-76.25058559 1558.34289682 -76.74569817 1552.48409056 -77.23843002 1546.62500763 C-77.76698999 1540.36765793 -78.30780548 1534.11136608 -78.84710693 1527.85493469 C-79.8239749 1516.5011863 -80.79161931 1505.14668473 -81.75398362 1493.79169989 C-82.63559233 1483.38962468 -83.52066169 1472.98785172 -84.40936279 1462.58638 C-84.46820164 1461.89765607 -84.52704049 1461.20893214 -84.58766234 1460.49933779 C-84.8851076 1457.01776896 -85.18260764 1453.5362048 -85.48014259 1450.05464363 C-86.07817839 1443.05670236 -86.67594323 1436.05873798 -87.27337646 1429.06074524 C-87.36164926 1428.02680714 -87.36164926 1428.02680714 -87.45170534 1426.97198141 C-88.29356765 1417.10976297 -89.13160221 1407.24722515 -89.96722412 1397.38447571 C-92.41197687 1368.54465845 -94.90105798 1339.70915177 -97.43044281 1310.87665272 C-100.18218553 1279.50906441 -102.90865799 1248.13933554 -105.62322998 1216.76850891 C-105.82743895 1214.40881405 -106.0316486 1212.04911926 -106.23585892 1209.68942451 C-107.39044026 1196.34740162 -108.54457241 1183.00533988 -109.69854927 1169.66326469 C-111.69392495 1146.593389 -113.69025288 1123.5235957 -115.68696046 1100.45383525 C-115.90736176 1097.90733657 -116.12775829 1095.36083748 -116.34815001 1092.81433797 C-119.10564402 1060.95336596 -121.8670476 1029.09274289 -124.64276123 997.23335266 C-124.70970562 996.46491445 -124.77665001 995.69647624 -124.84562302 994.90475202 C-125.54784629 986.84413476 -126.25027749 978.78353562 -126.95281982 970.72294617 C-127.19321979 967.9646965 -127.43361677 965.20644656 -127.67401123 962.44819641 C-127.73339119 961.76689053 -127.79277115 961.08558465 -127.8539505 960.38363314 C-130.74216048 927.24417739 -133.60894866 894.10308578 -136.41424561 860.95649719 C-136.50402365 859.89618979 -136.59380169 858.83588238 -136.68630028 857.74344444 C-137.16712966 852.06418353 -137.6477436 846.38490495 -138.12738419 840.70554352 C-140.57917946 811.67846817 -143.07239999 782.65536801 -145.61802483 753.63637352 C-146.59431798 742.50652007 -147.567505 731.37639457 -148.54095459 720.24629211 C-148.64153974 719.09642338 -148.74212489 717.94655465 -148.84575808 716.76184142 C-152.23743041 677.98576613 -155.59666787 639.20687123 -158.95374542 600.42778796 C-159.94950229 588.9254271 -160.9463597 577.42316228 -161.94408554 565.92097205 C-162.73753382 556.77299378 -163.53001297 547.62493187 -164.32177407 538.47680742 C-164.78612265 533.11188889 -165.25084082 527.74700311 -165.71661186 522.38220787 C-167.57140892 501.01483885 -169.39347702 479.64944077 -170.98651123 458.26069641 C-179.56651123 458.26069641 -188.14651123 458.26069641 -196.98651123 458.26069641 C-196.98651123 421.63069641 -196.98651123 385.00069641 -196.98651123 347.26069641 C-180.48651123 347.26069641 -163.98651123 347.26069641 -146.98651123 347.26069641 C-146.98651123 344.29069641 -146.98651123 341.32069641 -146.98651123 338.26069641 C-146.79352103 335.33507688 -146.57213381 332.42824467 -146.30316162 329.51020813 C-146.19288871 328.26094748 -146.19288871 328.26094748 -146.08038807 326.98644924 C-145.83534442 324.2207512 -145.58471619 321.45558822 -145.33416748 318.69038391 C-145.15664081 316.69726822 -144.97949636 314.70411845 -144.80270386 312.7109375 C-144.32283725 307.3115534 -143.83825827 301.91260225 -143.35259628 296.51373672 C-142.52746929 287.33241431 -141.70924238 278.15047211 -140.89035225 268.96859169 C-140.67743272 266.58198777 -140.46433062 264.19540012 -140.25105095 261.80882835 C-138.73689498 244.86085685 -137.2638636 227.90981373 -135.82738686 210.95508575 C-135.23357099 203.95538608 -134.63469035 196.95611713 -134.03635693 189.95680237 C-133.55955819 184.37190451 -133.08651583 178.7867377 -132.62179565 173.20082092 C-132.18354201 167.93327296 -131.73570774 162.66661942 -131.28124619 157.40044594 C-131.11794384 155.48807101 -130.95805054 153.57540074 -130.80218887 151.66240501 C-129.27538397 132.95980548 -126.66486375 114.29927285 -121.36151123 96.26069641 C-121.02232666 95.09699524 -120.68314209 93.93329407 -120.3336792 92.73432922 C-113.97655251 71.67401516 -104.7820909 52.08699106 -90.58026123 35.17866516 C-88.83300134 33.14433008 -88.83300134 33.14433008 -86.98651123 30.26069641 C-86.32651123 30.26069641 -85.66651123 30.26069641 -84.98651123 30.26069641 C-84.32651123 28.94069641 -83.66651123 27.62069641 -82.98651123 26.26069641 C-82.32651123 26.26069641 -81.66651123 26.26069641 -80.98651123 26.26069641 C-80.98651123 25.60069641 -80.98651123 24.94069641 -80.98651123 24.26069641 C-56.51587069 3.80163628 -30.92764493 -0.05177499 0 0 Z " fill="#E01F26" transform="translate(205.98651123046875,51.73930358886719)"/>
<path d="M0 0 C2.24588674 -0.00258904 4.49177302 -0.00560368 6.73765868 -0.0090034 C12.86713925 -0.0170123 18.99660808 -0.01885952 25.12609327 -0.01960087 C31.0706477 -0.02127044 37.01519684 -0.02759531 42.959748 -0.03367928 C58.85874172 -0.04966481 74.75773439 -0.0556324 90.65673469 -0.06042803 C98.18296117 -0.06276975 105.70918689 -0.06637283 113.23541277 -0.07012341 C139.02085957 -0.08294736 164.80630595 -0.09367141 190.59175587 -0.09712601 C192.20720749 -0.09734763 193.82265912 -0.09756942 195.43811075 -0.09779136 C197.05731635 -0.09801199 198.67652195 -0.09823248 200.29572755 -0.09845281 C203.54380596 -0.09889534 206.79188436 -0.09934246 210.03996277 -0.09979248 C210.84528418 -0.09990187 211.65060558 -0.10001126 212.48033067 -0.10012397 C238.61933676 -0.10375825 264.75831519 -0.11969823 290.89731068 -0.14298284 C318.56470263 -0.16758379 346.23207875 -0.18129879 373.89948195 -0.18249393 C376.936535 -0.18266537 379.97358805 -0.18288079 383.0106411 -0.18312836 C383.75839223 -0.18318413 384.50614336 -0.18323989 385.27655361 -0.18329735 C397.29879397 -0.18444698 409.32100582 -0.19546054 421.34323655 -0.21001541 C433.4228169 -0.22438713 445.50236075 -0.2276134 457.5819473 -0.21957543 C464.12316666 -0.2155152 470.66430926 -0.21661034 477.20551872 -0.23063278 C483.19534339 -0.24335604 489.18500006 -0.2421879 495.17482444 -0.23004207 C497.33938922 -0.22808248 499.50396585 -0.23117557 501.66851399 -0.23988643 C521.35125147 -0.31407101 536.23336971 3.33701615 553.42204285 13.14044189 C553.42204285 13.80044189 553.42204285 14.46044189 553.42204285 15.14044189 C554.46811707 15.45948486 554.46811707 15.45948486 555.5353241 15.78497314 C575.42238284 25.1230102 586.75721384 53.83749182 594.17204285 72.76544189 C601.78093082 95.34840479 604.44063309 119.00658949 605.98454285 142.64044189 C606.17261811 145.480644 606.36225527 148.3207166 606.55532837 151.1605835 C606.6741919 152.9122483 606.79013771 154.66411444 606.90264893 156.41619873 C607.19228186 160.7188184 607.65845349 164.89044912 608.42204285 169.14044189 C608.58543902 170.60317341 608.729433 172.06823351 608.85173035 173.53497314 C608.9590448 174.81380371 608.9590448 174.81380371 609.06852722 176.11846924 C609.14393738 177.05384521 609.21934753 177.98922119 609.29704285 178.95294189 C609.38018738 179.96050537 609.46333191 180.96806885 609.54899597 182.00616455 C610.12163056 189.07037439 610.64306608 196.13757596 611.14860535 203.20684814 C611.21224274 204.09276138 611.27588013 204.97867462 611.34144592 205.89143372 C611.65960996 210.32542347 611.97382555 214.75962733 612.28092957 219.19439697 C613.01173529 229.57126561 614.00138337 239.88876387 615.20372009 250.22106934 C615.69286491 254.52135925 616.08805728 258.83081618 616.48454285 263.14044189 C616.64185426 264.82796435 616.79940561 266.51546445 616.9571991 268.20294189 C617.06958923 269.4075708 617.06958923 269.4075708 617.18424988 270.63653564 C617.58023422 274.80616136 618.00034632 278.97334878 618.42204285 283.14044189 C618.75204285 283.14044189 619.08204285 283.14044189 619.42204285 283.14044189 C619.42204285 287.10044189 619.42204285 291.06044189 619.42204285 295.14044189 C371.92204285 295.14044189 124.42204285 295.14044189 -130.57795715 295.14044189 C-130.57795715 270.10901473 -130.57795715 270.10901473 -129.2224884 259.64434814 C-128.94087615 257.25042132 -128.66317671 254.85603161 -128.38899231 252.46124268 C-128.2507605 251.25445862 -128.11252869 250.04767456 -127.97010803 248.80432129 C-127.31962467 242.72683244 -126.85410347 236.63780116 -126.4021759 230.54278564 C-126.31009857 229.3036441 -126.21802124 228.06450256 -126.12315369 226.78781128 C-125.93371763 224.21655304 -125.74541401 221.64521115 -125.55818176 219.0737915 C-125.04510679 212.04126408 -124.50478346 205.01077996 -123.9646759 197.98028564 C-123.9089529 197.25470837 -123.8532299 196.52913109 -123.79581833 195.78156662 C-122.58201558 180.00496687 -121.31187608 164.23355255 -119.94920349 148.46908569 C-119.70419719 145.62964471 -119.46580663 142.78978218 -119.23381042 139.94924927 C-117.20021671 115.13662183 -114.12682057 90.33676764 -104.57795715 67.14044189 C-103.91795715 67.14044189 -103.25795715 67.14044189 -102.57795715 67.14044189 C-102.65014465 66.30770752 -102.72233215 65.47497314 -102.79670715 64.61700439 C-102.52834738 60.35200084 -101.03232237 57.22729744 -99.07795715 53.51544189 C-98.71992004 52.82047607 -98.36188293 52.12551025 -97.99299622 51.40948486 C-89.03024275 34.34894235 -89.03024275 34.34894235 -84.40608215 32.07012939 C-83.8028009 31.76333252 -83.19951965 31.45653564 -82.57795715 31.14044189 C-82.43100403 30.54876221 -82.2840509 29.95708252 -82.13264465 29.34747314 C-80.44358486 22.62691834 -70.81183131 16.02320016 -65.20295715 12.32794189 C-44.04143698 -0.28408159 -23.81447392 -0.01109495 0 0 Z " fill="#320001" transform="translate(247.5779571533203,104.85955810546875)"/>
<path d="M0 0 C2.5564813 -0.00302269 5.1129617 -0.00691276 7.66944051 -0.01159257 C13.21534596 -0.02032453 18.76121448 -0.02167742 24.30712509 -0.01808929 C32.55448916 -0.01276754 40.80181765 -0.01889239 49.04917785 -0.02717223 C64.6382673 -0.04239312 80.22734047 -0.04411925 95.81643578 -0.0416492 C107.85688661 -0.03981478 119.89733212 -0.04157928 131.93778229 -0.04587364 C133.66915028 -0.04647605 135.40051827 -0.04707725 137.13188626 -0.04767724 C139.74106992 -0.04858452 142.35025358 -0.04949319 144.95943724 -0.0504096 C169.2110502 -0.05883633 193.46266115 -0.06317677 217.71427536 -0.05900288 C219.08495502 -0.05876831 219.08495502 -0.05876831 220.48332518 -0.05852901 C225.11448963 -0.05772326 229.74565407 -0.05687749 234.37681851 -0.05601571 C235.75640124 -0.05575908 235.75640124 -0.05575908 237.16385433 -0.05549726 C239.02375427 -0.0551506 240.88365421 -0.05480207 242.74355415 -0.05445167 C271.67989858 -0.04909516 300.61621253 -0.05702405 329.55255127 -0.07548523 C362.08246032 -0.0962149 394.61235049 -0.10692608 427.14226651 -0.10290974 C430.61282174 -0.10251441 434.08337696 -0.10215286 437.55393219 -0.10181236 C438.83568609 -0.10167627 438.83568609 -0.10167627 440.14333401 -0.10153742 C453.02621531 -0.10037289 465.90907751 -0.10700873 478.79195404 -0.11762428 C493.44895231 -0.1296896 508.10590857 -0.13121992 522.76290748 -0.11883412 C530.95782219 -0.11221842 539.1526364 -0.11380671 547.34754302 -0.12742263 C553.47753673 -0.13667102 559.60742045 -0.13011848 565.73740616 -0.11757483 C568.20903982 -0.11492816 570.68068529 -0.11729344 573.15230736 -0.1253107 C600.86906118 -0.20894232 627.16491308 3.4971227 649.01348877 22.26069641 C649.01348877 22.92069641 649.01348877 23.58069641 649.01348877 24.26069641 C649.81786377 24.57007141 649.81786377 24.57007141 650.63848877 24.88569641 C653.93326886 26.79320067 656.60712505 29.30889025 659.01348877 32.26069641 C659.01348877 32.92069641 659.01348877 33.58069641 659.01348877 34.26069641 C659.67348877 34.26069641 660.33348877 34.26069641 661.01348877 34.26069641 C662.83613696 36.64253186 664.53361138 39.02290785 666.20098877 41.51069641 C666.6963916 42.2457843 667.19179443 42.98087219 667.70220947 43.73823547 C669.15110316 45.90484958 670.58499968 48.08058951 672.01348877 50.26069641 C672.67348877 51.26100891 673.33348877 52.26132141 674.01348877 53.29194641 C679.64533602 62.36547809 683.30440433 72.29035188 687.01348877 82.26069641 C687.29611572 83.00593567 687.57874268 83.75117493 687.86993408 84.51899719 C698.56907522 113.02632187 700.6114543 143.73712347 702.88897705 173.83735657 C703.64820476 183.84674146 704.51117798 193.83467341 705.51348877 203.82319641 C706.72101073 215.8881961 707.74423044 227.95932016 708.69897461 240.04646301 C709.68378647 252.4960694 710.7865812 264.92979127 712.01153564 277.35810852 C712.69791116 284.42711266 713.23922994 291.48725784 713.65768433 298.5758667 C713.97920512 303.94585767 714.4439163 309.28705489 715.01348877 314.63569641 C715.51348877 319.47163391 715.51348877 319.47163391 715.75958252 321.86909485 C715.92815341 323.45690298 716.10775769 325.04358043 716.29864502 326.62886047 C716.85314554 331.46902523 717.06241901 336.21207349 717.04083252 341.08638 C717.03688477 342.24592194 717.03293701 343.40546387 717.02886963 344.60014343 C717.0212561 345.91711716 717.0212561 345.91711716 717.01348877 347.26069641 C717.70031235 347.2584758 718.38713593 347.25625519 719.09477234 347.25396729 C726.21554039 347.23191746 733.33629881 347.21679108 740.45709229 347.20576477 C743.11790358 347.20072258 745.77871209 347.19388905 748.43951416 347.18525696 C752.25454393 347.17318633 756.06953721 347.16746712 759.88458252 347.16304016 C761.68142738 347.15529823 761.68142738 347.15529823 763.51457214 347.1473999 C765.16617088 347.14728661 765.16617088 347.14728661 766.85113525 347.14717102 C767.82598373 347.14495041 768.80083221 347.1427298 769.80522156 347.14044189 C772.01348877 347.26069641 772.01348877 347.26069641 773.01348877 348.26069641 C773.11115273 349.67515634 773.13980554 351.09445587 773.14047241 352.51228333 C773.14329224 353.42935562 773.14611206 354.34642792 773.14901733 355.29129028 C773.1469931 356.30535446 773.14496887 357.31941864 773.1428833 358.36421204 C773.14463562 359.42589096 773.14638794 360.48756989 773.14819336 361.5814209 C773.15261425 365.10994577 773.14967305 368.63842099 773.14630127 372.16694641 C773.14697424 374.60692861 773.14794421 377.04691074 773.14920044 379.4868927 C773.15067774 384.60827775 773.14852184 389.72964541 773.14385986 394.85102844 C773.13816257 401.43232356 773.1414414 408.0135779 773.14743233 414.59487152 C773.15103709 419.63555715 773.14989975 424.67623303 773.14730453 429.71691895 C773.14663503 432.14433802 773.1474645 434.57175797 773.14978409 436.99917603 C773.15230922 440.38520164 773.14847199 443.7711602 773.1428833 447.15718079 C773.14490753 448.17124496 773.14693176 449.18530914 773.14901733 450.23010254 C773.14619751 451.14717484 773.14337769 452.06424713 773.14047241 453.0091095 C773.14009539 453.81069237 773.13971836 454.61227524 773.13932991 455.4381485 C773.01348877 457.26069641 773.01348877 457.26069641 772.01348877 458.26069641 C770.0868137 458.34817848 768.15697016 458.36766975 766.22833252 458.35835266 C764.47359619 458.35351868 764.47359619 458.35351868 762.68341064 458.34858704 C761.45171143 458.34020813 760.22001221 458.33182922 758.95098877 458.32319641 C757.09763916 458.31642883 757.09763916 458.31642883 755.20684814 458.30952454 C752.1423476 458.29769249 749.07794155 458.28120814 746.01348877 458.26069641 C746.02509033 458.87557922 746.03669189 459.49046204 746.04864502 460.12397766 C746.06218018 461.33634094 746.06218018 461.33634094 746.07598877 462.57319641 C746.08759033 463.37370422 746.09919189 464.17421204 746.11114502 464.99897766 C746.01348877 467.26069641 746.01348877 467.26069641 745.01348877 470.26069641 C443.06348877 470.59069641 141.11348877 470.92069641 -169.98651123 471.26069641 C-170.31651123 466.97069641 -170.64651123 462.68069641 -170.98651123 458.26069641 C-179.56651123 458.26069641 -188.14651123 458.26069641 -196.98651123 458.26069641 C-196.98651123 421.63069641 -196.98651123 385.00069641 -196.98651123 347.26069641 C-180.48651123 347.26069641 -163.98651123 347.26069641 -146.98651123 347.26069641 C-146.98651123 344.29069641 -146.98651123 341.32069641 -146.98651123 338.26069641 C-146.79352103 335.33507688 -146.57213381 332.42824467 -146.30316162 329.51020813 C-146.19288871 328.26094748 -146.19288871 328.26094748 -146.08038807 326.98644924 C-145.83534442 324.2207512 -145.58471619 321.45558822 -145.33416748 318.69038391 C-145.15664081 316.69726822 -144.97949636 314.70411845 -144.80270386 312.7109375 C-144.32283725 307.3115534 -143.83825827 301.91260225 -143.35259628 296.51373672 C-142.52746929 287.33241431 -141.70924238 278.15047211 -140.89035225 268.96859169 C-140.67743272 266.58198777 -140.46433062 264.19540012 -140.25105095 261.80882835 C-138.73689498 244.86085685 -137.2638636 227.90981373 -135.82738686 210.95508575 C-135.23357099 203.95538608 -134.63469035 196.95611713 -134.03635693 189.95680237 C-133.55955819 184.37190451 -133.08651583 178.7867377 -132.62179565 173.20082092 C-132.18354201 167.93327296 -131.73570774 162.66661942 -131.28124619 157.40044594 C-131.11794384 155.48807101 -130.95805054 153.57540074 -130.80218887 151.66240501 C-129.27538397 132.95980548 -126.66486375 114.29927285 -121.36151123 96.26069641 C-121.02232666 95.09699524 -120.68314209 93.93329407 -120.3336792 92.73432922 C-113.97655251 71.67401516 -104.7820909 52.08699106 -90.58026123 35.17866516 C-88.83300134 33.14433008 -88.83300134 33.14433008 -86.98651123 30.26069641 C-86.32651123 30.26069641 -85.66651123 30.26069641 -84.98651123 30.26069641 C-84.32651123 28.94069641 -83.66651123 27.62069641 -82.98651123 26.26069641 C-82.32651123 26.26069641 -81.66651123 26.26069641 -80.98651123 26.26069641 C-80.98651123 25.60069641 -80.98651123 24.94069641 -80.98651123 24.26069641 C-56.51587069 3.80163628 -30.92764493 -0.05177499 0 0 Z M-39.33416748 79.24507141 C-41.30349725 81.21298517 -41.30349725 81.21298517 -40.98651123 84.26069641 C-41.55756592 84.46179016 -42.12862061 84.66288391 -42.71697998 84.87007141 C-45.84617868 86.78744617 -47.41313912 89.45498071 -49.29901123 92.51069641 C-49.68564941 93.12751282 -50.0722876 93.74432922 -50.47064209 94.37983704 C-58.4605556 106.5101323 -58.4605556 106.5101323 -60.98651123 120.26069641 C-61.64651123 120.26069641 -62.30651123 120.26069641 -62.98651123 120.26069641 C-66.18713057 128.36439219 -68.6695701 136.47008539 -70.67401123 144.94819641 C-70.87599121 145.80179749 -71.07797119 146.65539856 -71.28607178 147.53486633 C-71.87793917 150.10536734 -72.43603121 152.6810269 -72.98651123 155.26069641 C-73.1454184 155.99487289 -73.30432556 156.72904938 -73.4680481 157.48547363 C-75.32941871 166.8405391 -76.01111771 176.31006039 -76.82635498 185.79975891 C-76.99530861 187.72609083 -77.16463338 189.65239023 -77.33430481 191.57865906 C-77.68959434 195.62474331 -78.04141547 199.67110894 -78.39056396 203.71772766 C-78.82659812 208.76996057 -79.2694989 213.82155901 -79.71485996 218.87297726 C-81.6479289 240.82257034 -83.46820149 262.77487875 -84.97831726 284.75804138 C-85.71483344 295.35811256 -86.67189834 305.90081335 -88.07087708 316.43717957 C-89.38511104 327.21278783 -88.98651123 337.09789519 -88.98651123 348.26069641 C158.51348877 348.26069641 406.01348877 348.26069641 661.01348877 348.26069641 C661.01348877 344.30069641 661.01348877 340.34069641 661.01348877 336.26069641 C660.68348877 336.26069641 660.35348877 336.26069641 660.01348877 336.26069641 C658.3835446 325.09384484 657.52060635 313.92993877 656.76397705 302.67378235 C656.31900076 296.18042466 655.80070457 289.72140106 655.01348877 283.26069641 C653.95895999 274.54023768 653.36877221 265.79728227 652.76568604 257.03559875 C652.21064011 248.98115656 651.61352651 240.93204289 650.95098877 232.88569641 C650.87171143 231.900047 650.79243408 230.91439758 650.71075439 229.89888 C650.63405518 228.97929504 650.55735596 228.05971008 650.47833252 227.11225891 C650.41250977 226.31642395 650.34668701 225.52058899 650.27886963 224.70063782 C650.09033539 222.96723287 649.83141321 221.24085492 649.52496338 219.52436829 C648.88161579 215.41922722 648.62151829 211.33509138 648.36505127 207.19038391 C648.24557031 205.38697788 648.12576745 203.58359316 648.00567627 201.78022766 C647.82237752 198.98176982 647.6414581 196.18323093 647.46661377 193.38423157 C646.37767826 176.09428671 644.60651893 158.95075025 640.26348877 142.13569641 C640.00599854 141.13127502 639.7485083 140.12685364 639.48321533 139.09199524 C632.69313857 113.470256 620.59163675 87.65858516 600.01348877 70.26069641 C597.3346184 68.9550668 597.3346184 68.9550668 595.01348877 68.26069641 C595.01348877 67.60069641 595.01348877 66.94069641 595.01348877 66.26069641 C576.64619191 55.78505181 560.99519817 52.80899557 540.07044983 52.89320374 C537.83244082 52.89117766 535.59443269 52.88783626 533.35642737 52.88329816 C527.22525036 52.87467025 521.09422544 52.88469708 514.96306169 52.8978405 C509.02375181 52.90763382 503.0844567 52.90328157 497.14514378 52.89932945 C484.99772844 52.89175232 472.85035865 52.89823456 460.70295143 52.91294098 C448.66932634 52.92749201 436.63572121 52.93622867 424.60208702 52.93712616 C423.85259272 52.93718725 423.10309841 52.93724835 422.33089216 52.93731129 C419.28818662 52.93754083 416.24548109 52.937728 413.20277555 52.93785943 C385.48431195 52.93907021 357.76587618 52.95475481 330.04742432 52.97944641 C303.90875025 53.00272562 277.77009305 53.01691149 251.63140869 53.02046204 C250.82652672 53.02057355 250.02164475 53.02068507 249.19237242 53.02079996 C245.9472534 53.02124884 242.70213439 53.02169082 239.45701537 53.02213239 C237.83965148 53.02235277 236.22228759 53.02257406 234.6049237 53.02279627 C232.9914087 53.02301763 231.37789371 53.0232364 229.76437871 53.02345257 C204.03082609 53.02697294 178.29727662 53.03843499 152.56372717 53.05125891 C145.03898627 53.05497171 137.51424558 53.05823808 129.9895041 53.06050777 C114.16588277 53.06532619 98.34227154 53.07246072 82.51865719 53.08865544 C75.97688094 53.09527953 69.43511151 53.10032496 62.89333153 53.10111618 C56.89692391 53.1019077 50.90053869 53.10735859 44.90413805 53.11643568 C42.74270248 53.11892736 40.58126422 53.11978388 38.41982744 53.11877689 C6.99031843 53.1069691 -15.87268684 56.30495701 -39.33416748 79.24507141 Z " fill="#B80000" transform="translate(205.98651123046875,51.73930358886719)"/>
<path d="M0 0 C0.97671661 -0.0068985 1.95343323 -0.013797 2.95974731 -0.02090454 C21.04188818 -0.09292829 38.48674361 2.28465971 55.76953125 7.6953125 C58.21759962 8.41373454 60.53716489 8.9410807 63.03125 9.421875 C69.19042039 10.76074088 74.85192839 13.26918028 80.625 15.75 C82.35919189 16.49141235 82.35919189 16.49141235 84.12841797 17.24780273 C92.45335075 20.86191324 100.24474704 24.79488359 107.9375 29.625 C109.27099886 30.42637346 110.60570118 31.22574671 111.94140625 32.0234375 C120.15291959 36.97492053 127.74065397 42.25156726 134.9375 48.625 C135.87722656 49.45515625 136.81695313 50.2853125 137.78515625 51.140625 C148.90476802 61.16146091 160.12049636 71.47558553 168.9375 83.625 C169.5572168 84.47868164 169.5572168 84.47868164 170.18945312 85.34960938 C177.17174939 95.04445239 183.42044499 105.02712224 188.9375 115.625 C189.2787793 116.28016602 189.62005859 116.93533203 189.97167969 117.61035156 C202.86370675 142.76522542 210.91755724 170.8525255 211.17578125 199.21484375 C211.19060799 200.55526985 211.19060799 200.55526985 211.20573425 201.92277527 C211.71171651 259.56823168 195.91128617 312.1132637 156.30859375 355.03125 C154.29664568 357.23212894 152.35925472 359.47102499 150.4375 361.75 C128.88135474 386.41424062 97.40245866 403.07344818 66.9375 413.625 C66.23318848 413.87475586 65.52887695 414.12451172 64.80322266 414.38183594 C37.41829555 424.01096661 8.0101739 426.26375518 -20.75 423.75 C-22.0944519 423.63253418 -22.0944519 423.63253418 -23.46606445 423.51269531 C-28.44598058 423.02603123 -33.22645156 422.22910329 -38.09448242 421.07568359 C-40.50631693 420.52336422 -42.92253689 420.19538398 -45.375 419.875 C-78.17931157 414.4352977 -111.01801199 397.24422056 -136.0625 375.625 C-137.19751953 374.65433594 -137.19751953 374.65433594 -138.35546875 373.6640625 C-140.97379707 371.3660843 -143.52464346 369.01170996 -146.0625 366.625 C-146.90022949 365.83826904 -146.90022949 365.83826904 -147.75488281 365.03564453 C-157.65420818 355.66083963 -166.08004839 345.66307471 -174.0625 334.625 C-174.77277344 333.66464844 -175.48304688 332.70429687 -176.21484375 331.71484375 C-180.3844358 325.95770462 -183.80666894 319.93716267 -187.0625 313.625 C-187.36800781 313.04508301 -187.67351562 312.46516602 -187.98828125 311.86767578 C-211.89855861 266.41671528 -219.33366426 212.66920672 -207.0625 162.625 C-206.73590686 161.18774324 -206.41026213 159.75027036 -206.0859375 158.3125 C-202.1772763 142.26999491 -195.84077914 127.13937056 -188.0625 112.625 C-187.71993164 111.96935059 -187.37736328 111.31370117 -187.02441406 110.63818359 C-181.71536629 100.497556 -175.5316684 91.36826905 -168.44677734 82.38378906 C-167.24690825 80.8592993 -166.06868513 79.31782008 -164.89453125 77.7734375 C-154.12509091 63.98355451 -141.16766814 51.92177274 -127.0625 41.625 C-126.216875 40.9959375 -125.37125 40.366875 -124.5 39.71875 C-108.13578536 27.87622625 -90.00140504 18.56793893 -71.0625 11.625 C-69.9384375 11.20605469 -68.814375 10.78710938 -67.65625 10.35546875 C-63.49389165 8.93031345 -59.31722736 7.73900873 -55.0625 6.625 C-53.58885986 6.22933838 -53.58885986 6.22933838 -52.08544922 5.82568359 C-34.68756003 1.33816367 -17.9163882 0.03508164 0 0 Z " fill="#FEFDFD" transform="translate(494.0625,840.375)"/>
<path d="M0 0 C2.5564813 -0.00302269 5.1129617 -0.00691276 7.66944051 -0.01159257 C13.21534596 -0.02032453 18.76121448 -0.02167742 24.30712509 -0.01808929 C32.55448916 -0.01276754 40.80181765 -0.01889239 49.04917785 -0.02717223 C64.6382673 -0.04239312 80.22734047 -0.04411925 95.81643578 -0.0416492 C107.85688661 -0.03981478 119.89733212 -0.04157928 131.93778229 -0.04587364 C133.66915028 -0.04647605 135.40051827 -0.04707725 137.13188626 -0.04767724 C139.74106992 -0.04858452 142.35025358 -0.04949319 144.95943724 -0.0504096 C169.2110502 -0.05883633 193.46266115 -0.06317677 217.71427536 -0.05900288 C219.08495502 -0.05876831 219.08495502 -0.05876831 220.48332518 -0.05852901 C225.11448963 -0.05772326 229.74565407 -0.05687749 234.37681851 -0.05601571 C235.75640124 -0.05575908 235.75640124 -0.05575908 237.16385433 -0.05549726 C239.02375427 -0.0551506 240.88365421 -0.05480207 242.74355415 -0.05445167 C271.67989858 -0.04909516 300.61621253 -0.05702405 329.55255127 -0.07548523 C362.08246032 -0.0962149 394.61235049 -0.10692608 427.14226651 -0.10290974 C430.61282174 -0.10251441 434.08337696 -0.10215286 437.55393219 -0.10181236 C438.83568609 -0.10167627 438.83568609 -0.10167627 440.14333401 -0.10153742 C453.02621531 -0.10037289 465.90907751 -0.10700873 478.79195404 -0.11762428 C493.44895231 -0.1296896 508.10590857 -0.13121992 522.76290748 -0.11883412 C530.95782219 -0.11221842 539.1526364 -0.11380671 547.34754302 -0.12742263 C553.47753673 -0.13667102 559.60742045 -0.13011848 565.73740616 -0.11757483 C568.20903982 -0.11492816 570.68068529 -0.11729344 573.15230736 -0.1253107 C600.86906118 -0.20894232 627.16491308 3.4971227 649.01348877 22.26069641 C649.01348877 22.92069641 649.01348877 23.58069641 649.01348877 24.26069641 C649.81786377 24.57007141 649.81786377 24.57007141 650.63848877 24.88569641 C653.93326886 26.79320067 656.60712505 29.30889025 659.01348877 32.26069641 C659.01348877 32.92069641 659.01348877 33.58069641 659.01348877 34.26069641 C659.67348877 34.26069641 660.33348877 34.26069641 661.01348877 34.26069641 C662.83613696 36.64253186 664.53361138 39.02290785 666.20098877 41.51069641 C666.6963916 42.2457843 667.19179443 42.98087219 667.70220947 43.73823547 C669.15110316 45.90484958 670.58499968 48.08058951 672.01348877 50.26069641 C672.67348877 51.26100891 673.33348877 52.26132141 674.01348877 53.29194641 C679.64533602 62.36547809 683.30440433 72.29035188 687.01348877 82.26069641 C687.29611572 83.00593567 687.57874268 83.75117493 687.86993408 84.51899719 C698.56907522 113.02632187 700.6114543 143.73712347 702.88897705 173.83735657 C703.64820476 183.84674146 704.51117798 193.83467341 705.51348877 203.82319641 C706.72120612 215.89014834 707.74650957 227.96318861 708.69897461 240.05250549 C709.5180457 250.43847812 710.42734983 260.8099529 711.44107056 271.17869568 C712.71420457 284.20229179 713.61168652 297.18134047 714.01348877 310.26069641 C713.68348877 310.26069641 713.35348877 310.26069641 713.01348877 310.26069641 C713.01348877 308.61069641 713.01348877 306.96069641 713.01348877 305.26069641 C694.20348877 305.26069641 675.39348877 305.26069641 656.01348877 305.26069641 C654.27076392 287.83344796 652.67798872 270.4472625 651.48223877 252.97554016 C651.0220581 246.27464657 650.50184944 239.57970603 649.95098877 232.88569641 C649.87163086 231.89899963 649.79227295 230.91230286 649.71051025 229.89570618 C649.6338916 228.97716858 649.55727295 228.05863098 649.47833252 227.11225891 C649.41250977 226.31642395 649.34668701 225.52058899 649.27886963 224.70063782 C649.09033539 222.96723287 648.83141321 221.24085492 648.52496338 219.52436829 C647.88161579 215.41922722 647.62151829 211.33509138 647.36505127 207.19038391 C647.24557031 205.38697788 647.12576745 203.58359316 647.00567627 201.78022766 C646.82237752 198.98176982 646.6414581 196.18323093 646.46661377 193.38423157 C645.37767826 176.09428671 643.60651893 158.95075025 639.26348877 142.13569641 C639.00599854 141.13127502 638.7485083 140.12685364 638.48321533 139.09199524 C632.12133834 115.08602901 619.67915148 82.87881838 597.21661377 69.60835266 C596.12606689 68.94126282 596.12606689 68.94126282 595.01348877 68.26069641 C595.01348877 67.60069641 595.01348877 66.94069641 595.01348877 66.26069641 C594.31223877 65.99257141 593.61098877 65.72444641 592.88848877 65.44819641 C590.01348877 64.26069641 590.01348877 64.26069641 587.32598877 62.88569641 C571.57650121 55.1595327 557.35485423 53.82364553 540.07044983 53.89320374 C537.83244082 53.89117766 535.59443269 53.88783626 533.35642737 53.88329816 C527.22525036 53.87467025 521.09422544 53.88469708 514.96306169 53.8978405 C509.02375181 53.90763382 503.0844567 53.90328157 497.14514378 53.89932945 C484.99772844 53.89175232 472.85035865 53.89823456 460.70295143 53.91294098 C448.66932634 53.92749201 436.63572121 53.93622867 424.60208702 53.93712616 C423.85259272 53.93718725 423.10309841 53.93724835 422.33089216 53.93731129 C419.28818662 53.93754083 416.24548109 53.937728 413.20277555 53.93785943 C385.48431195 53.93907021 357.76587618 53.95475481 330.04742432 53.97944641 C303.90875025 54.00272562 277.77009305 54.01691149 251.63140869 54.02046204 C250.82652672 54.02057355 250.02164475 54.02068507 249.19237242 54.02079996 C245.9472534 54.02124884 242.70213439 54.02169082 239.45701537 54.02213239 C237.83965148 54.02235277 236.22228759 54.02257406 234.6049237 54.02279627 C232.9914087 54.02301763 231.37789371 54.0232364 229.76437871 54.02345257 C204.03082609 54.02697294 178.29727662 54.03843499 152.56372717 54.05125891 C145.03898627 54.05497171 137.51424558 54.05823808 129.9895041 54.06050777 C114.16588277 54.06532619 98.34227154 54.07246072 82.51865719 54.08865544 C75.97688094 54.09527953 69.43511151 54.10032496 62.89333153 54.10111618 C56.89692391 54.1019077 50.90053869 54.10735859 44.90413805 54.11643568 C42.74270248 54.11892736 40.58126422 54.11978388 38.41982744 54.11877689 C7.75180322 54.10725518 -15.59991109 56.78986294 -38.45526123 79.46382141 C-40.20393161 81.28856411 -40.20393161 81.28856411 -40.98651123 84.26069641 C-42.03838623 85.25069641 -42.03838623 85.25069641 -43.11151123 86.26069641 C-51.30314862 94.19340273 -59.64746434 108.91313241 -60.98651123 120.26069641 C-61.64651123 120.26069641 -62.30651123 120.26069641 -62.98651123 120.26069641 C-64.95436945 126.578557 -66.75956194 132.93589435 -68.48651123 139.32319641 C-68.68784668 140.04676331 -68.88918213 140.7703302 -69.09661865 141.51582336 C-73.02835943 156.24447442 -74.64464488 171.24051314 -75.92401123 186.38569641 C-76.09132528 188.30347113 -76.2592271 190.22119464 -76.42767334 192.13887024 C-76.77837638 196.14898623 -77.12419246 200.15948083 -77.46600342 204.17036438 C-77.89261053 209.17544075 -78.32796054 214.17970193 -78.7666626 219.18373108 C-80.70065032 241.26319634 -82.50120764 263.34758642 -84.0355835 285.45869446 C-84.09281586 286.2718663 -84.15004822 287.08503815 -84.20901489 287.92285156 C-84.31421349 289.42050934 -84.41736931 290.91831286 -84.51791382 292.41629028 C-84.8237905 296.7577374 -85.36818396 300.9324055 -85.98651123 305.26069641 C-104.79651123 305.26069641 -123.60651123 305.26069641 -142.98651123 305.26069641 C-142.98651123 292.88568469 -142.98651123 292.88568469 -142.58909607 288.34527588 C-142.50087585 287.31069244 -142.41265564 286.27610901 -142.32176208 285.21017456 C-142.2236171 284.11559433 -142.12547211 283.0210141 -142.02435303 281.89326477 C-141.92188263 280.70756897 -141.81941223 279.52187317 -141.71383667 278.30024719 C-141.43401343 275.07319936 -141.15001176 271.84655337 -140.86408591 268.62004161 C-140.56177154 265.19697458 -140.26491706 261.77343373 -139.96742249 258.34994507 C-139.40107688 251.84206559 -138.82988285 245.33462122 -138.25692827 238.82732064 C-137.61666243 231.55282771 -136.98185373 224.27786211 -136.3475126 217.00285053 C-135.21103588 203.97004997 -134.06768932 190.93786692 -132.92040539 177.90601349 C-132.27939567 170.61734873 -131.64602862 163.32808567 -131.02093506 156.03804016 C-130.81970901 153.70508403 -130.61821073 151.37215164 -130.41655922 149.03923225 C-130.24602408 147.05497655 -130.078838 145.07043383 -129.91184998 143.08587646 C-126.59361888 104.79366604 -115.69606031 65.08087677 -90.58026123 35.17866516 C-88.83300134 33.14433008 -88.83300134 33.14433008 -86.98651123 30.26069641 C-86.32651123 30.26069641 -85.66651123 30.26069641 -84.98651123 30.26069641 C-84.32651123 28.94069641 -83.66651123 27.62069641 -82.98651123 26.26069641 C-82.32651123 26.26069641 -81.66651123 26.26069641 -80.98651123 26.26069641 C-80.98651123 25.60069641 -80.98651123 24.94069641 -80.98651123 24.26069641 C-56.51587069 3.80163628 -30.92764493 -0.05177499 0 0 Z " fill="#DF2128" transform="translate(205.98651123046875,51.73930358886719)"/>
<path d="M0 0 C9.43713984 -0.15804663 18.81356578 0.26652257 28.23120117 0.79956055 C30.72090423 0.9393759 33.21097433 1.07049308 35.70117188 1.20117188 C37.2838829 1.28854354 38.86656644 1.37641498 40.44921875 1.46484375 C41.19386887 1.50343002 41.93851898 1.5420163 42.70573425 1.58177185 C47.88532902 1.88532902 47.88532902 1.88532902 49 3 C49.1936355 4.58318809 49.32448006 6.17411295 49.4296875 7.765625 C49.50106934 8.78414551 49.57245117 9.80266602 49.64599609 10.85205078 C49.72156738 11.97337402 49.79713867 13.09469727 49.875 14.25 C50.54456079 23.56390948 51.3641167 32.84221462 52.375 42.125 C54.28904592 59.98983553 55.70321622 77.89558171 57.1647644 95.80201721 C57.84286223 104.10576482 58.53216184 112.40853814 59.2265625 120.7109375 C59.33077011 121.95733505 59.43497772 123.2037326 59.54234314 124.48789978 C59.96851992 129.58427824 60.39485652 134.68064333 60.82119751 139.77700806 C61.92245509 152.95006949 63.01616835 166.12354351 64.06640625 179.30078125 C65.6330094 198.91661957 67.29189957 218.50770757 69.31665039 238.08200073 C70.57890528 250.31415052 71.64763072 262.54951685 72.5625 274.8125 C72.62302551 275.62345123 72.68355103 276.43440247 72.74591064 277.26992798 C72.98676928 280.50160257 73.2274135 283.73329306 73.46768188 286.9650116 C74.07470935 295.08508476 74.7423153 303.19953676 75.4375 311.3125 C75.49752197 312.01479736 75.55754395 312.71709473 75.61938477 313.44067383 C76.36472372 322.12173891 77.16443481 330.79666463 78.0078125 339.46875 C78.09441635 340.35966339 78.1810202 341.25057678 78.27024841 342.16848755 C78.79747061 347.58912796 78.79747061 347.58912796 79.3253479 353.00970459 C80.5584388 365.71423364 81.56753163 378.40686897 82.35400391 391.1472168 C82.75005175 397.49320288 83.22218914 403.80701866 83.9375 410.125 C84.89472374 418.59094555 85.61834749 427.07167145 86.3125 435.5625 C87.22496669 446.71592515 88.15602845 457.86728194 89.12890625 469.015625 C90.94418245 489.83659574 92.75262725 510.65706529 94.3984375 531.4921875 C94.45556789 532.21510923 94.51269829 532.93803097 94.57155991 533.68285942 C95.13021128 540.75864574 95.68473649 547.8347413 96.2319355 554.91142273 C96.38508075 556.88889003 96.53928541 558.86627519 96.69351196 560.84365845 C96.88163492 563.25649177 97.06793608 565.66946813 97.25204468 568.08261108 C97.66982042 573.42782874 98.19127688 578.70070082 99 584 C99.16989301 586.62659983 99.31632543 589.24646758 99.4375 591.875 C99.74178165 597.6778598 100.21736589 603.42160784 100.9375 609.1875 C102.68180906 623.21916882 103.92120583 637.28424433 104.60791016 651.40673828 C104.87581479 656.56760746 105.35522231 661.67832019 105.9375 666.8125 C106.83458288 674.7592767 107.4199595 682.70754886 107.9375 690.6875 C108.68847001 702.12323261 109.65467767 713.52323066 110.75366211 724.93041992 C110.88532097 726.29735682 111.01691125 727.66430033 111.1484375 729.03125 C111.21569534 729.72990677 111.28295319 730.42856354 111.35224915 731.14839172 C112.28777394 740.92743959 113.13788909 750.71426524 114 760.5 C115.16251072 773.69223887 116.35897193 786.87980931 117.625 800.0625 C118.66598618 810.9463515 119.55350323 821.83197868 120.26611328 832.74243164 C120.76487531 840.25039201 121.41906133 847.7371435 122.11177063 855.22901917 C122.95243963 864.36944419 123.73762693 873.51423073 124.515625 882.66015625 C124.58379425 883.46094353 124.6519635 884.2617308 124.72219849 885.08678436 C125.08158014 889.30920461 125.44049807 893.53166409 125.79910278 897.75415039 C126.57673094 906.91045332 127.35617422 916.06660149 128.13671875 925.22265625 C128.21562788 926.14839069 128.29453701 927.07412514 128.37583733 928.02791214 C129.43038348 940.39356375 130.49753138 952.75803387 131.58203125 965.12109375 C131.70734491 966.55112129 131.83265013 967.98114956 131.95794678 969.41117859 C132.44716374 974.9925526 132.93650329 980.57391449 133.42901611 986.15499878 C134.82071988 1001.93426972 136.15112284 1017.71623664 137.36865807 1033.50998688 C137.56558752 1036.05971211 137.76406535 1038.60931195 137.96308899 1041.15887451 C138.09445773 1042.84289505 138.22582067 1044.52691605 138.35717773 1046.2109375 C138.45416757 1047.45352262 138.45416757 1047.45352262 138.5531168 1048.72121048 C138.86876181 1052.77846348 139.17919175 1056.83598747 139.47781372 1060.89453125 C141.34025375 1091.11999701 141.34025375 1091.11999701 150.1875 1119.875 C150.57695801 1120.7508374 150.96641602 1121.6266748 151.36767578 1122.52905273 C161.14381333 1143.83647274 178.48140124 1160.46617766 198 1173 C198.61697754 1173.39832031 199.23395508 1173.79664063 199.86962891 1174.20703125 C219.78397167 1186.89581602 242.01551384 1195.73539702 265 1201 C265 1201.33 265 1201.66 265 1202 C257.22713095 1202.07028189 249.45433978 1202.12320009 241.68123055 1202.15543652 C238.06976017 1202.17092779 234.45851105 1202.19185266 230.84716797 1202.22631836 C200.10080358 1202.51169486 200.10080358 1202.51169486 185 1199 C183.95569824 1198.77014404 182.91139648 1198.54028809 181.83544922 1198.3034668 C179.16040195 1197.67984037 176.51973595 1196.99085239 173.875 1196.25 C172.49562256 1195.86593994 172.49562256 1195.86593994 171.08837891 1195.47412109 C152.18299047 1190.01855675 136.99023615 1180.7865937 123 1167 C122.33097656 1166.34386719 121.66195312 1165.68773437 120.97265625 1165.01171875 C106.33639924 1149.51255316 100.10017286 1127.35684659 98.875 1106.625 C98.72891141 1104.3670343 98.58055051 1102.10921423 98.4296875 1099.8515625 C98.37022949 1098.87010254 98.31077148 1097.88864258 98.24951172 1096.87744141 C97.98951082 1093.87903574 97.49631291 1090.9675024 97 1088 C96.8197652 1086.03731428 96.66570997 1084.072084 96.53515625 1082.10546875 C96.45845703 1080.99413574 96.38175781 1079.88280273 96.30273438 1078.73779297 C96.22345703 1077.56619629 96.14417969 1076.39459961 96.0625 1075.1875 C95.47739896 1066.89160313 94.80133879 1058.65137738 93.74804688 1050.40161133 C92.87166109 1043.35231056 92.36020235 1036.2799425 91.8203125 1029.19824219 C91.15876087 1020.66168179 90.3487084 1012.14480788 89.5 1003.625 C88.56081384 994.17335623 87.72124396 984.72538485 87.0625 975.25 C86.29433649 964.3592555 85.33808426 953.49379399 84.3125 942.625 C84.19081955 941.33496063 84.19081955 941.33496063 84.06668091 940.01885986 C83.98288177 939.13043396 83.89908264 938.24200806 83.81274414 937.32666016 C82.07979327 918.94477873 80.40154706 900.55809618 78.73127365 882.17043304 C78.50004635 879.62551017 78.26862107 877.08060536 78.03713989 874.53570557 C76.16484598 853.94928322 74.31798585 833.36090944 72.51022339 812.76870728 C71.61604667 802.60587755 70.65697457 792.45609638 69.5625 782.3125 C67.9899855 767.70727604 66.7555563 753.07272645 65.5 738.4375 C65.3915274 737.17319153 65.28305481 735.90888306 65.17129517 734.60626221 C64.11006421 722.2130934 63.06168688 709.81893557 62.046875 697.421875 C61.97678223 696.56831924 61.90668945 695.71476349 61.83447266 694.83534241 C61.51880989 690.98813153 61.20615954 687.14073477 60.90039062 683.29272461 C60.79404297 681.98311768 60.68769531 680.67351074 60.578125 679.32421875 C60.44519043 677.6549231 60.44519043 677.6549231 60.30957031 675.9519043 C60.02555509 673.24368032 59.5366919 670.66644696 59 668 C58.81660111 666.166686 58.66356681 664.33017175 58.53515625 662.4921875 C58.45845703 661.43330322 58.38175781 660.37441895 58.30273438 659.28344727 C58.22345703 658.15865967 58.14417969 657.03387207 58.0625 655.875 C57.49163414 648.08836819 56.87528236 640.32103729 56 632.5625 C55.14869185 624.94899242 54.54705422 617.32861221 54 609.6875 C53.3772108 600.99360815 52.7167977 592.30640567 51.9375 583.625 C51.85822266 582.72225342 51.77894531 581.81950684 51.69726562 580.8894043 C51.5822168 579.63317261 51.5822168 579.63317261 51.46484375 578.3515625 C51.399021 577.62791504 51.33319824 576.90426758 51.26538086 576.15869141 C51.0312253 573.98241528 51.0312253 573.98241528 50.52294922 571.80351257 C49.91244754 568.53063433 49.6312018 565.30441895 49.36743164 561.98510742 C49.31197678 561.29806732 49.25652191 560.61102722 49.1993866 559.90316772 C49.07970132 558.41591288 48.96136157 556.92854928 48.84422493 555.44109154 C48.65744839 553.07110903 48.46684482 550.70146123 48.2752533 548.3318634 C47.79938197 542.43732025 47.32938572 536.54231236 46.8604126 530.6472168 C46.46479801 525.67542391 46.0662829 520.70388028 45.663908 515.73262978 C45.47839498 513.42679821 45.29698332 511.12066917 45.11573792 508.8144989 C44.49102017 501.01207258 43.70443695 493.25648585 42.69670486 485.49398041 C42.0440877 480.45351658 41.54647867 475.42342286 41.17578125 470.35546875 C41.03683921 468.56647068 40.89766641 466.77749052 40.75830078 464.98852539 C40.65053314 463.58209274 40.65053314 463.58209274 40.54058838 462.14724731 C38.8027588 439.59661827 36.74600839 417.07951314 34.625 394.5625 C34.47462445 392.96468244 34.32426436 391.36686343 34.17391968 389.76904297 C33.8717765 386.55836649 33.56959686 383.34769345 33.26737976 380.13702393 C33.19235418 379.33993263 33.11732861 378.54284134 33.04002953 377.72159576 C32.88831403 376.11001397 32.73655137 374.49843662 32.58474159 372.88686371 C30.96642142 355.70442586 29.38479643 338.51873186 27.82036591 321.33131027 C27.62725941 319.21229325 27.43352022 317.09333506 27.23956299 314.97439575 C26.8793864 311.03907206 26.52155399 307.10353733 26.1640625 303.16796875 C26.00828735 301.46817368 26.00828735 301.46817368 25.84936523 299.73403931 C25.22772091 292.85668263 24.70958878 285.97972772 24.27548218 279.08784485 C24.02837768 276.31808178 23.58214282 273.71473296 23 271 C22.8043209 269.03522552 22.63995537 267.06718451 22.5 265.09765625 C22.3772168 263.40153198 22.3772168 263.40153198 22.25195312 261.67114258 C22.12723633 259.8848645 22.12723633 259.8848645 22 258.0625 C21.91169922 256.84135498 21.82339844 255.62020996 21.73242188 254.36206055 C21.37962029 249.46628515 21.03193972 244.57035803 20.71875 239.671875 C20.34629184 233.95198178 19.80647335 228.30080428 19.0546875 222.6171875 C18.08804553 215.08824657 17.39079693 207.5487268 16.79589844 199.98181152 C16.4895112 196.0926632 16.16985656 192.20459518 15.8515625 188.31640625 C15.78422913 187.49123505 15.71689575 186.66606384 15.64752197 185.81588745 C14.8118617 175.62314997 13.90684967 165.43660736 13 155.25 C12.92227356 154.37268219 12.84454712 153.49536438 12.76446533 152.59146118 C11.79591761 141.66295891 10.78935581 130.73847644 9.75742912 119.81577492 C8.61768293 107.74661481 7.51810615 95.67467944 6.46484375 83.59765625 C6.4018169 82.87595371 6.33879005 82.15425117 6.2738533 81.41067886 C5.69662687 74.79979685 5.12120593 68.18875963 4.54956055 61.57739258 C4.16979612 57.18808132 3.78723513 52.79902084 3.40234375 48.41015625 C3.34139778 47.71375597 3.28045181 47.01735569 3.217659 46.29985237 C2.53375461 38.51843885 1.79418635 30.75163135 0.82421875 23 C0.15027472 17.58655063 -0.2232595 12.39090234 -0.125 6.9375 C-0.11597656 6.25107422 -0.10695312 5.56464844 -0.09765625 4.85742188 C-0.07500857 3.23811243 -0.0392219 1.61899279 0 0 Z " fill="#FA3946" transform="translate(56,543)"/>
<path d="M0 0 C-2.2077657 27.20803154 -4.62366154 54.39641708 -7.0663147 81.58424377 C-7.73977352 89.08433081 -8.4078468 96.58487175 -9.0703125 104.0859375 C-10.75174655 123.11719798 -12.46493138 142.1447152 -14.25027466 161.16653442 C-15.19351594 171.21814008 -16.11954188 181.27080532 -17 191.328125 C-17.08254532 192.27036423 -17.16509064 193.21260345 -17.25013733 194.18339539 C-17.58333464 197.9887481 -17.91647328 201.79410583 -18.24899292 205.59951782 C-19.46182964 219.43936378 -20.84320375 233.25390448 -22.31637573 247.06814575 C-23.85017608 261.55325287 -24.95627709 276.05391519 -25.87329102 290.59057617 C-26.57330203 301.42742439 -27.63217883 312.19657207 -28.8248291 322.9901123 C-30.30712779 336.53585258 -31.43425001 350.10849127 -32.5625 363.6875 C-34.89378297 391.70442894 -34.89378297 391.70442894 -36.09375 401.375 C-36.99811399 408.67996508 -37.51974149 415.96566068 -37.9375 423.3125 C-38.52650775 432.84269277 -39.28592848 442.32510857 -40.375 451.8125 C-41.89267003 465.06055576 -42.95019003 478.33316131 -44 491.625 C-45.084762 505.33789145 -46.22050039 519.00678806 -47.92578125 532.65820312 C-49.04131597 541.79467495 -49.78051261 550.95060253 -50.5 560.125 C-50.5616333 560.9107843 -50.6232666 561.6965686 -50.68676758 562.50616455 C-50.74823975 563.28997498 -50.80971191 564.0737854 -50.87304688 564.88134766 C-51.69172508 575.30384894 -52.57909588 585.71670821 -53.5625 596.125 C-53.62532166 596.79188843 -53.68814331 597.45877686 -53.75286865 598.14587402 C-54.55573329 606.64149001 -55.43551051 615.12586088 -56.37133789 623.60766602 C-56.82906532 627.90583818 -57.15846205 632.19323587 -57.37255859 636.51049805 C-57.41461426 637.35265869 -57.45666992 638.19481934 -57.5 639.0625 C-57.52943758 639.69292206 -57.55887516 640.32334412 -57.58920479 640.97286987 C-57.84956573 646.13262393 -58.31515937 651.23198087 -58.92773438 656.3605957 C-59.93344701 665.10521518 -60.72284987 673.8587933 -61.44670105 682.63072777 C-61.66331328 685.25349168 -61.88332452 687.87595291 -62.10412598 690.49836731 C-62.73005683 697.93953215 -63.34997984 705.38119416 -63.96826172 712.82299805 C-64.35002299 717.41519896 -64.73541797 722.0070843 -65.12284851 726.5988102 C-65.26775672 728.32514053 -65.41128747 730.05158715 -65.55329895 731.77815819 C-66.31108986 740.99091244 -67.24436119 750.12448807 -68.52133179 759.28291321 C-69.39718644 766.08434198 -69.91905094 772.91646901 -70.47265625 779.75 C-70.60153893 781.30366152 -70.73081447 782.85729049 -70.86045837 784.41088867 C-71.19690906 788.45195537 -71.52930958 792.49334307 -71.8604126 796.53485107 C-72.39275432 803.02858401 -72.92982392 809.52192141 -73.46990776 816.01501465 C-73.65625529 818.26539104 -73.83986838 820.51597845 -74.02320862 822.76660156 C-74.13784929 824.15300309 -74.25258526 825.53939675 -74.36743164 826.92578125 C-74.51493614 828.72656128 -74.51493614 828.72656128 -74.66542053 830.5637207 C-74.88857952 832.85566234 -75.17074986 835.14261451 -75.51109314 837.42010498 C-76.05529785 841.40490434 -76.27563175 845.33845868 -76.45507812 849.35253906 C-76.8717908 857.60188219 -77.60027192 865.78759545 -78.46980286 874.00003815 C-78.9256002 878.31974816 -79.36335466 882.64128727 -79.80078125 886.96289062 C-79.89639595 887.90728123 -79.99201065 888.85167183 -80.09052277 889.82468033 C-81.36249527 902.48466154 -82.50651579 915.15656789 -83.65625 927.828125 C-83.77143982 929.09663803 -83.88662964 930.36515106 -84.00531006 931.67210388 C-84.71921474 939.53884152 -85.43037367 947.40582547 -86.14068604 955.27288818 C-86.73701677 961.87344995 -87.33536993 968.47382833 -87.93359375 975.07421875 C-88.63457088 982.80929261 -89.33523379 990.54439426 -90.03422546 998.27964783 C-91.07543241 1009.80097621 -92.11917369 1021.3220467 -93.17504883 1032.84204102 C-93.35768169 1034.83790954 -93.5402993 1036.83377945 -93.72290039 1038.82965088 C-94.0503071 1042.40795195 -94.37934227 1045.98609729 -94.70947266 1049.56414795 C-96.20967319 1065.90950212 -97.4652603 1082.27318847 -98.67456055 1098.64233398 C-98.95157743 1101.50040844 -99.40816803 1104.19593884 -100 1107 C-100.09936337 1109.06178991 -100.1809859 1111.12447122 -100.25 1113.1875 C-101.60199785 1132.49887228 -109.2167383 1150.51787345 -122 1165 C-122.78375 1166.03125 -123.5675 1167.0625 -124.375 1168.125 C-141.10958264 1186.45335241 -165.30624283 1195.03364863 -189.02980042 1199.4473114 C-190.9094956 1199.7970812 -192.7872717 1200.1574742 -194.66209412 1200.53248596 C-202.66202703 1202.02974374 -210.39204441 1202.2612183 -218.515625 1202.1953125 C-219.86610705 1202.19157073 -221.21659187 1202.18872928 -222.56707764 1202.18673706 C-226.07855051 1202.17919198 -229.58985128 1202.15962502 -233.10125732 1202.1373291 C-236.7015958 1202.116671 -240.30196277 1202.10769318 -243.90234375 1202.09765625 C-250.93496516 1202.07636799 -257.9674712 1202.04234612 -265 1202 C-262.18426005 1199.18426005 -258.8809832 1198.81379783 -255.125 1197.875 C-217.64210904 1187.94502919 -177.41014761 1166.1817005 -157 1132 C-145.59872253 1111.81934163 -143.01035212 1091.32031122 -141.20184326 1068.52020264 C-140.74152355 1062.77267887 -140.25631025 1057.02717089 -139.776474 1051.28125 C-139.35534307 1046.23211727 -138.93806435 1041.18276993 -138.53295898 1036.13232422 C-137.64837584 1025.19402448 -136.63914195 1014.27622776 -135.51953125 1003.359375 C-134.12088749 989.65926786 -133.00562291 975.94877648 -131.97994995 962.21630859 C-131.46149749 955.29567431 -130.92900385 948.37614198 -130.390625 941.45703125 C-130.33502348 940.74243366 -130.27942196 940.02783607 -130.22213554 939.29158401 C-128.75949061 920.55919107 -127.06073739 901.84850415 -125.35890388 883.13662338 C-125.04368918 879.67053362 -124.72876485 876.20441757 -124.4140625 872.73828125 C-124.35288616 872.06497269 -124.29170982 871.39166412 -124.22867966 870.69795227 C-122.85578105 855.57043286 -121.59168784 840.43425769 -120.38061523 825.29296875 C-119.55420442 815.06160525 -118.59043656 804.85182023 -117.54296875 794.640625 C-115.92626291 778.80120486 -114.68927848 762.93828654 -113.5 747.0625 C-113.09781572 741.69890546 -112.69270145 736.33554851 -112.28125 730.97265625 C-112.23065556 730.31234154 -112.18006111 729.65202682 -112.1279335 728.97170258 C-111.25580742 717.6578878 -110.19271149 706.37000313 -109.07333374 695.07835388 C-108.02395676 684.43632931 -107.14819737 673.78804764 -106.35006714 663.12460327 C-104.77134391 642.08402231 -102.98498004 621.06477261 -101.11343384 600.0484314 C-99.62954183 583.37879041 -98.21060585 566.70739547 -96.98803711 550.01635742 C-96.44341923 542.71668506 -95.70473113 535.47707967 -94.74639893 528.21949768 C-93.54335223 518.81829284 -93.02611106 509.35465423 -92.39819336 499.90136719 C-91.65587111 488.83322216 -90.706512 477.80459757 -89.5703125 466.76953125 C-88.47960395 456.14254611 -87.5095393 445.51344683 -86.67578125 434.86328125 C-86.621516 434.17064871 -86.56725075 433.47801617 -86.51134109 432.76439476 C-86.22785598 429.13704741 -85.94663909 425.50952788 -85.66641235 421.88192749 C-83.03048445 387.79135496 -80.09549133 353.72954491 -77.05222988 319.67313671 C-76.64452129 315.10900081 -76.23814918 310.54474642 -75.83203125 305.98046875 C-75.75373392 305.10242647 -75.67543659 304.22438419 -75.59476662 303.31973457 C-74.72619054 293.56123681 -73.89193566 283.80116965 -73.13037109 274.03369141 C-73.02692713 272.70729566 -73.02692713 272.70729566 -72.92139339 271.35410404 C-72.59525284 267.15374073 -72.27432463 262.95304867 -71.96040344 258.75175476 C-71.90272356 257.99473707 -71.84504368 257.23771938 -71.78561592 256.45776176 C-71.63102695 254.42885998 -71.47959799 252.39971811 -71.32841492 250.37055969 C-71.04930753 247.50604876 -70.58808995 244.81115402 -70 242 C-69.84798189 240.55472638 -69.7237455 239.10626951 -69.62695312 237.65625 C-69.57019409 236.83189453 -69.51343506 236.00753906 -69.45495605 235.15820312 C-69.39763306 234.28099609 -69.34031006 233.40378906 -69.28125 232.5 C-69.21844849 231.58669922 -69.15564697 230.67339844 -69.09094238 229.73242188 C-68.89087546 226.82181503 -68.69493003 223.91095511 -68.5 221 C-68.24328593 217.16640322 -67.98232843 213.33313026 -67.71875 209.5 C-67.661427 208.62279297 -67.604104 207.74558594 -67.54504395 206.84179688 C-67.2668525 202.8014067 -66.8288707 198.96833537 -66 195 C-65.74285633 192.45457646 -65.51412777 189.91709046 -65.31640625 187.3671875 C-65.25661087 186.62538239 -65.19681549 185.88357727 -65.13520813 185.11929321 C-64.94142131 182.70474932 -64.75194157 180.28988835 -64.5625 177.875 C-64.42940853 176.20896764 -64.29610624 174.54295211 -64.16259766 172.87695312 C-63.26668843 161.64337845 -62.41595431 150.40661135 -61.64672852 139.16357422 C-61.57510498 138.15053223 -61.50348145 137.13749023 -61.4296875 136.09375 C-61.37022949 135.22427734 -61.31077148 134.35480469 -61.24951172 133.45898438 C-60.9923136 130.92424909 -60.50050636 128.49652874 -60 126 C-59.88542316 124.64167625 -59.80270559 123.28024254 -59.75390625 121.91796875 C-59.72240479 121.16016113 -59.69090332 120.40235352 -59.65844727 119.62158203 C-59.62678467 118.81833496 -59.59512207 118.01508789 -59.5625 117.1875 C-59.29328634 111.28494845 -58.87834917 105.48254209 -58.0625 99.625 C-57.06358163 92.24328703 -56.53902908 84.87007103 -56.0625 77.4375 C-55.29923407 65.54625207 -54.23684955 53.71278683 -53.03759766 41.86010742 C-52.20875552 33.54674654 -51.5897455 25.27122997 -51.30859375 16.921875 C-50.91095066 11.86828436 -49.98288557 6.96843257 -49 2 C-43.95059318 1.71084725 -38.90095754 1.42621602 -33.85107422 1.14550781 C-32.13844167 1.0497007 -30.42587399 0.95272578 -28.71337891 0.85449219 C-19.13438975 0.30584173 -9.59978909 -0.17322928 0 0 Z " fill="#B90000" transform="translate(924,543)"/>
<path d="M0 0 C7.95735919 0.0583694 15.82525565 0.73184951 23.73828125 1.5234375 C26.41131221 1.78292936 29.08441051 2.0412773 31.7578125 2.296875 C32.45724472 2.36400192 33.15667694 2.43112885 33.87730408 2.50028992 C47.65007327 3.80293859 61.45148125 4.80096889 75.24359131 5.87380981 C117.2703509 9.14489219 117.2703509 9.14489219 137.921875 11.48828125 C147.57024098 12.57722941 157.24902792 13.35904799 166.92578125 14.1484375 C166.59578125 11.8384375 166.26578125 9.5284375 165.92578125 7.1484375 C167.83775164 6.44798294 169.7555856 5.7635185 171.67578125 5.0859375 C172.743125 4.70308594 173.81046875 4.32023438 174.91015625 3.92578125 C179.367851 2.77671227 179.367851 2.77671227 181.92578125 4.1484375 C183.375 6.51171875 183.375 6.51171875 184.61328125 9.4609375 C185.02964844 10.42644531 185.44601562 11.39195312 185.875 12.38671875 C186.73398774 14.64435567 187.4165787 16.79267626 187.92578125 19.1484375 C189.03953125 18.6225 189.03953125 18.6225 190.17578125 18.0859375 C193.16404894 17.06720988 194.06404553 16.99377028 196.92578125 18.1484375 C198.20605469 19.82250977 198.20605469 19.82250977 199.28515625 21.96484375 C199.67832031 22.72861328 200.07148437 23.49238281 200.4765625 24.27929688 C200.87230469 25.08173828 201.26804687 25.88417969 201.67578125 26.7109375 C202.08699219 27.51724609 202.49820313 28.32355469 202.921875 29.15429688 C203.93563643 31.14645596 204.93617477 33.14419928 205.92578125 35.1484375 C211.40008581 34.52255083 216.06094946 32.65522181 221.11328125 30.5859375 C222.70903149 29.93411626 224.30662152 29.2867761 225.90625 28.64453125 C226.95655396 28.21418579 226.95655396 28.21418579 228.02807617 27.77514648 C229.92578125 27.1484375 229.92578125 27.1484375 232.92578125 27.1484375 C233.48845703 28.68951172 233.48845703 28.68951172 234.0625 30.26171875 C237.47860822 39.56337248 237.47860822 39.56337248 241.42578125 48.6484375 C243.63342841 53.37613471 245.48195488 58.18726903 247.28662109 63.08154297 C253.80401497 80.68930874 260.89118912 98.0893969 267.88653564 115.51177979 C270.97076117 123.19771782 274.00588709 130.898395 276.92578125 138.6484375 C280.1524419 147.21245082 283.52205815 155.71620601 286.92578125 164.2109375 C287.4423051 165.50235856 287.95882531 166.79378107 288.4753418 168.08520508 C290.79192815 173.87041666 293.12484448 179.64795469 295.5078125 185.40625 C296.07918945 186.79831665 296.07918945 186.79831665 296.66210938 188.21850586 C297.35978181 189.91536297 298.06505849 191.60912126 298.77929688 193.29907227 C301.03781495 198.8123364 301.03781495 198.8123364 299.92578125 202.1484375 C297.29558309 203.50277492 294.72467879 204.68020937 292 205.8125 C290.34370982 206.52383587 288.68796267 207.23643728 287.03271484 207.95019531 C286.18207458 208.31407349 285.33143433 208.67795166 284.45501709 209.05285645 C280.56771342 210.73670743 276.72518201 212.5133903 272.8828125 214.296875 C271.37204477 214.99499389 269.86122074 215.69299097 268.3503418 216.39086914 C267.59570648 216.73989288 266.84107117 217.08891663 266.06356812 217.44851685 C251.43331691 224.21170785 236.75923713 230.84012013 221.92578125 237.1484375 C218.16085251 229.12098109 214.8162616 220.97678534 211.61328125 212.7109375 C210.63801235 210.20782812 209.66069889 207.70551806 208.68359375 205.203125 C208.21083008 203.99108398 207.73806641 202.77904297 207.25097656 201.53027344 C205.52329842 197.1213203 203.75951989 192.72752336 201.98828125 188.3359375 C198.34416338 179.28435781 194.84380708 170.17844555 191.3381958 161.07266235 C187.78262925 151.84586524 184.12763908 142.66757187 180.36328125 133.5234375 C176.10245765 123.1663586 172.07325167 112.73717895 168.14501953 102.24975586 C165.69381069 95.73006842 163.18215946 89.24421145 160.56640625 82.7890625 C160.14819862 81.75523186 160.14819862 81.75523186 159.72154236 80.70051575 C158.36857836 77.36024483 157.00692531 74.02386421 155.63305664 70.69213867 C155.14828857 69.50080322 154.66352051 68.30946777 154.1640625 67.08203125 C153.73134033 66.03072021 153.29861816 64.97940918 152.8527832 63.89624023 C151.92578125 61.1484375 151.92578125 61.1484375 151.92578125 57.1484375 C155.38205506 55.80972109 158.84112422 54.47838358 162.30078125 53.1484375 C163.285625 52.766875 164.27046875 52.3853125 165.28515625 51.9921875 C166.69667969 51.45078125 166.69667969 51.45078125 168.13671875 50.8984375 C169.00603027 50.56328125 169.8753418 50.228125 170.77099609 49.8828125 C172.92578125 49.1484375 172.92578125 49.1484375 174.92578125 49.1484375 C174.65314453 48.35409302 174.65314453 48.35409302 174.375 47.54370117 C173.55387406 45.14269735 172.73975954 42.7393734 171.92578125 40.3359375 C171.63960937 39.50255859 171.3534375 38.66917969 171.05859375 37.81054688 C170.78789062 37.00810547 170.5171875 36.20566406 170.23828125 35.37890625 C169.98691406 34.64051514 169.73554688 33.90212402 169.4765625 33.14135742 C168.92578125 31.1484375 168.92578125 31.1484375 168.92578125 28.1484375 C170.90578125 27.6534375 170.90578125 27.6534375 172.92578125 27.1484375 C171.93578125 24.8384375 170.94578125 22.5284375 169.92578125 20.1484375 C165.82686711 21.7587252 163.16370827 24.72657703 160.17578125 27.8359375 C156.16174429 31.937833 152.09113506 35.85093003 147.71875 39.57421875 C145.25995991 41.73302573 142.99870343 44.06509855 140.70703125 46.3984375 C138.2068194 48.85478599 135.54897609 51.11153118 132.89453125 53.3984375 C130.99555054 55.08642036 129.20572137 56.83613484 127.42578125 58.6484375 C124.38745708 61.74200393 121.17812805 64.56949257 117.89453125 67.3984375 C115.99555054 69.08642036 114.20572137 70.83613484 112.42578125 72.6484375 C109.38745708 75.74200393 106.17812805 78.56949257 102.89453125 81.3984375 C100.99555054 83.08642036 99.20572137 84.83613484 97.42578125 86.6484375 C94.38745708 89.74200393 91.17812805 92.56949257 87.89453125 95.3984375 C85.99555054 97.08642036 84.20572137 98.83613484 82.42578125 100.6484375 C79.38745708 103.74200393 76.17812805 106.56949257 72.89453125 109.3984375 C70.99555054 111.08642036 69.20572137 112.83613484 67.42578125 114.6484375 C64.38745708 117.74200393 61.17812805 120.56949257 57.89453125 123.3984375 C55.99555054 125.08642036 54.20572137 126.83613484 52.42578125 128.6484375 C49.38745708 131.74200393 46.17812805 134.56949257 42.89453125 137.3984375 C40.99555054 139.08642036 39.20572137 140.83613484 37.42578125 142.6484375 C33.77013158 146.36224524 29.88388253 149.76240554 25.92578125 153.1484375 C24.90484375 154.02628906 24.90484375 154.02628906 23.86328125 154.921875 C22.21977088 156.33343834 20.57311594 157.74133912 18.92578125 159.1484375 C1.51341823 139.36166134 -7.62999322 103.3869158 -11.57861328 77.94140625 C-12.00363025 75.54623673 -12.53819482 73.22828145 -13.10961914 70.86572266 C-14.12135231 66.36064887 -14.38068962 62.08957514 -14.375 57.484375 C-14.37928513 56.68923492 -14.38357025 55.89409485 -14.38798523 55.07485962 C-14.39368664 53.40261783 -14.39426002 51.73035127 -14.38989258 50.05810547 C-14.38675202 47.55000508 -14.41017669 45.04310983 -14.43554688 42.53515625 C-14.49272178 28.05864832 -12.43729051 14.72522276 -7.07421875 1.1484375 C-5.25188051 -0.67390074 -2.44887416 0.00172298 0 0 Z " fill="#E02027" transform="translate(335.07421875,961.8515625)"/>
<path d="M0 0 C301.95 0 603.9 0 915 0 C915 3.96 915 7.92 915 12 C613.05 12.33 311.1 12.66 0 13 C0 8.71 0 4.42 0 0 Z " fill="#910103" transform="translate(36,510)"/>
<path d="M0 0 C3.84160836 0.0087244 7.68321103 0.00570805 11.52482653 0.00419545 C18.16311821 0.00315222 24.80137025 0.00936961 31.43965197 0.02067113 C41.03721242 0.03700002 50.63475391 0.04214165 60.23232675 0.04464711 C75.80781399 0.04901269 91.38328016 0.06229076 106.95875597 0.08125234 C122.07919761 0.0996407 137.19963351 0.11378269 152.3200841 0.12226796 C153.25379713 0.12279341 154.18751017 0.12331886 155.14951754 0.12386023 C159.83418572 0.1264705 164.51885395 0.12899787 169.20352221 0.13148403 C208.00117998 0.15218107 246.79881423 0.18737542 285.59645128 0.23213124 C285.59645128 0.56213124 285.59645128 0.89213124 285.59645128 1.23213124 C249.22063904 2.25037785 212.84459582 3.25903314 176.46754503 4.23213124 C175.3189547 4.26286859 175.3189547 4.26286859 174.14716053 4.29422688 C160.87999237 4.64926848 147.61280053 5.00342204 134.34559679 5.35713124 C113.45349591 5.9141284 92.56147949 6.47410347 71.66963446 7.04062295 C66.84660236 7.17135417 62.02355307 7.30143203 57.20049268 7.43111539 C48.98754685 7.65197217 40.77465807 7.87477696 32.56185752 8.10097623 C28.69456696 8.20745518 24.82725908 8.31311911 20.95988321 8.41645741 C-6.87226135 8.1591216 -6.87226135 8.1591216 -34.02854872 12.85713124 C-34.9089784 13.12146962 -35.78940809 13.385808 -36.69651747 13.65815663 C-44.65491134 16.13646652 -52.02077969 19.39309135 -59.40354872 23.23213124 C-60.5211659 23.78771718 -61.63878309 24.34330312 -62.79026747 24.91572499 C-91.1646604 39.45550267 -112.35160658 64.58296924 -122.59104872 94.66963124 C-126.82400509 108.1247298 -127.93206196 122.26635001 -129.40354872 136.23213124 C-129.57260699 137.81433058 -129.74171619 139.39652447 -129.91087294 140.97871327 C-131.95132393 160.18484407 -133.7190782 179.41199758 -135.32517958 198.65888906 C-136.33606794 210.72892908 -137.51946111 222.77679832 -138.75511122 234.82588124 C-139.34924483 240.6243465 -139.88725267 246.42623601 -140.40354872 252.23213124 C-146.01354872 252.23213124 -151.62354872 252.23213124 -157.40354872 252.23213124 C-156.66070701 238.86098055 -155.27066782 225.57104774 -153.87449598 212.2541039 C-153.46775276 208.37338939 -153.06518406 204.4922594 -152.66331434 200.61103749 C-150.51617223 179.95212465 -150.51617223 179.95212465 -149.36057997 170.46650624 C-148.55234223 163.75390992 -147.88837911 157.03369239 -147.25511122 150.30244374 C-147.15510313 149.25045796 -147.05509504 148.19847219 -146.95205641 147.11460805 C-146.33307609 140.60509819 -146.33307609 140.60509819 -145.73167372 134.09394765 C-141.89145195 92.07257358 -130.10232832 54.74596675 -97.40354872 26.23213124 C-84.90565849 16.1087125 -70.18699632 9.3747717 -54.84104872 4.85713124 C-53.6390785 4.498933 -53.6390785 4.498933 -52.41282606 4.13349843 C-35.24481794 -0.59377537 -17.64366306 -0.05035355 0 0 Z " fill="#FA3946" transform="translate(236.40354871749878,59.767868757247925)"/>
<path d="M0 0 C18.48 0 36.96 0 56 0 C56 1.65 56 3.3 56 5 C56.66 5 57.32 5 58 5 C58.34279559 8.72835787 58.67240427 12.45777832 59 16.1875 C59.09539063 17.22326172 59.19078125 18.25902344 59.2890625 19.32617188 C59.37929688 20.36708984 59.46953125 21.40800781 59.5625 22.48046875 C59.64628906 23.41785889 59.73007812 24.35524902 59.81640625 25.32104492 C60.09380015 30.87962026 60.03273356 36.43571757 60 42 C60.68682358 41.99777939 61.37364716 41.99555878 62.08128357 41.99327087 C69.20205162 41.97122105 76.32281004 41.95609467 83.44360352 41.94506836 C86.10441481 41.94002617 88.76522332 41.93319264 91.42602539 41.92456055 C95.24105516 41.91248991 99.05604844 41.90677071 102.87109375 41.90234375 C104.06899033 41.89718246 105.2668869 41.89202118 106.50108337 41.88670349 C108.15268211 41.88659019 108.15268211 41.88659019 109.83764648 41.88647461 C111.2999192 41.88314369 111.2999192 41.88314369 112.79173279 41.87974548 C115 42 115 42 116 43 C116.09766396 44.41445992 116.12631677 45.83375946 116.12698364 47.25158691 C116.13121338 48.62719536 116.13121338 48.62719536 116.13552856 50.03059387 C116.13249222 51.55169014 116.13249222 51.55169014 116.12939453 53.10351562 C116.13202301 54.69603401 116.13202301 54.69603401 116.13470459 56.32072449 C116.13912548 59.84924935 116.13618428 63.37772457 116.1328125 66.90625 C116.13348547 69.34623219 116.13445544 71.78621432 116.13571167 74.22619629 C116.13718897 79.34758134 116.13503307 84.46894899 116.13037109 89.59033203 C116.1246738 96.17162715 116.12795263 102.75288149 116.13394356 109.33417511 C116.13754832 114.37486074 116.13641098 119.41553662 116.13381577 124.45622253 C116.13314626 126.88364161 116.13397573 129.31106156 116.13629532 131.73847961 C116.13882045 135.12450523 116.13498322 138.51046379 116.12939453 141.89648438 C116.13141876 142.91054855 116.13344299 143.92461273 116.13552856 144.96940613 C116.13270874 145.88647842 116.12988892 146.80355072 116.12698364 147.74841309 C116.1264181 148.95078739 116.1264181 148.95078739 116.12584114 150.17745209 C116 152 116 152 115 153 C113.07332493 153.08748207 111.14348139 153.10697334 109.21484375 153.09765625 C108.04501953 153.09443359 106.87519531 153.09121094 105.66992188 153.08789062 C104.43822266 153.07951172 103.20652344 153.07113281 101.9375 153.0625 C100.08415039 153.05573242 100.08415039 153.05573242 98.19335938 153.04882812 C95.12885883 153.03699608 92.06445279 153.02051173 89 153 C89 152.67 89 152.34 89 152 C97.25 152 105.5 152 114 152 C114 116.03 114 80.06 114 43 C105.688125 43.020625 97.37625 43.04125 88.8125 43.0625 C60.53195825 43.09635408 32.27287304 42.65527956 4 42 C3.67 39.03 3.34 36.06 3 33 C2.67 33 2.34 33 2 33 C1.6553472 30.31355449 1.3243358 27.62641907 1 24.9375 C0.90460937 24.20466797 0.80921875 23.47183594 0.7109375 22.71679688 C-0.19964325 15.00938126 0 7.94984805 0 0 Z " fill="#C81213" transform="translate(863,357)"/>
<path d="M0 0 C0.99261337 0.00222061 1.98522675 0.00444122 3.00791931 0.00672913 C4.12900589 0.00680466 5.25009247 0.00688019 6.40515137 0.00695801 C8.2348069 0.01469994 8.2348069 0.01469994 10.10142517 0.02259827 C11.96377052 0.02472069 11.96377052 0.02472069 13.86373901 0.02688599 C17.16982383 0.03154861 20.47584039 0.04053955 23.78190613 0.05158997 C27.15338042 0.06180625 30.52486175 0.06638407 33.89634705 0.07142639 C40.51550667 0.08248056 47.13463385 0.09923715 53.75376892 0.12025452 C53.93032152 9.87926349 53.52725697 19.29608515 52.31626892 28.99525452 C52.18156189 30.15927795 52.04685486 31.32330139 51.9080658 32.52259827 C50.89418628 40.97983716 50.89418628 40.97983716 49.75376892 42.12025452 C48.06574907 42.21378615 46.37381685 42.23770242 44.68321228 42.23377991 C43.60216721 42.23370438 42.52112213 42.23362885 41.40731812 42.23355103 C39.64328392 42.2258091 39.64328392 42.2258091 37.84361267 42.21791077 C36.64644119 42.21649582 35.44926971 42.21508087 34.21582031 42.21362305 C30.37427826 42.20800431 26.5327935 42.19544862 22.69126892 42.18275452 C20.09426455 42.17774193 17.49725927 42.17317861 14.9002533 42.16908264 C8.51807214 42.15802879 2.13592462 42.14127244 -4.24623108 42.12025452 C-4.27117316 37.7277615 -4.28920436 33.33530734 -4.30116272 28.94276428 C-4.30615436 27.45219707 -4.31295002 25.96163466 -4.32167053 24.47108459 C-4.41276575 8.48655385 -4.41276575 8.48655385 -3.24623108 1.12025452 C-2.24623108 0.12025452 -2.24623108 0.12025452 0 0 Z " fill="#C70507" transform="translate(65.24623107910156,356.87974548339844)"/>
<path d="M0 0 C0.66 0 1.32 0 2 0 C3.79955982 8.82534975 4.25190983 17.25892693 4.125 26.25 C4.11597656 27.48363281 4.10695313 28.71726562 4.09765625 29.98828125 C4.07436851 32.99240024 4.04166756 35.99608943 4 39 C3.67 39 3.34 39 3 39 C2.56923105 34.41047768 2.14210255 29.82063608 1.71826172 25.23046875 C1.57374079 23.67080668 1.42824649 22.11123446 1.28173828 20.55175781 C1.07064489 18.30296703 0.86311888 16.05387036 0.65625 13.8046875 C0.59062866 13.1138205 0.52500732 12.42295349 0.45739746 11.71115112 C0.10097298 7.79317119 -0.06422173 3.93358092 0 0 Z " fill="#BF5F63" transform="translate(121,1502)"/>
<path d="M0 0 C2.66705795 2.66705795 2.35264967 4.28520259 2.5625 8 C2.69920211 12.15326204 2.69920211 12.15326204 4 16 C4.08449628 17.7404417 4.10723024 19.48409722 4.09765625 21.2265625 C4.09282227 22.7734375 4.09282227 22.7734375 4.08789062 24.3515625 C4.07951172 25.43179687 4.07113281 26.51203125 4.0625 27.625 C4.05798828 28.71296875 4.05347656 29.8009375 4.04882812 30.921875 C4.03701776 33.61463789 4.02054778 36.30729188 4 39 C3.67 39 3.34 39 3 39 C2.5676912 34.73210031 2.14064911 30.46371451 1.71826172 26.19482422 C1.57416422 24.74579005 1.42868414 23.29689262 1.28173828 21.84814453 C1.06950908 19.75328352 0.86242871 17.65796416 0.65625 15.5625 C0.53056641 14.30566406 0.40488281 13.04882812 0.27539062 11.75390625 C-0.01400448 7.80910199 -0.04596936 3.95336457 0 0 Z " fill="#9C272C" transform="translate(859,318)"/>
<path d="M0 0 C0.33 0 0.66 0 1 0 C1.13277344 1.10859375 1.26554687 2.2171875 1.40234375 3.359375 C1.58059757 4.8229327 1.75899028 6.28647349 1.9375 7.75 C2.06801758 8.84441406 2.06801758 8.84441406 2.20117188 9.9609375 C2.66748711 13.96908129 2.66748711 13.96908129 3.52734375 17.90429688 C4.10367436 20.45968011 4.11220747 22.80265538 4.09765625 25.421875 C4.09443359 26.44667969 4.09121094 27.47148438 4.08789062 28.52734375 C4.07951172 29.59082031 4.07113281 30.65429688 4.0625 31.75 C4.05798828 32.82894531 4.05347656 33.90789062 4.04882812 35.01953125 C4.03705727 37.67974383 4.02061399 40.33984365 4 43 C3.67 43 3.34 43 3 43 C2.56754616 38.32313444 2.14051304 33.64581533 1.71826172 28.96801758 C1.57420393 27.38032024 1.42872548 25.79275108 1.28173828 24.20532227 C-0.21963851 7.97104742 -0.21963851 7.97104742 0 0 Z " fill="#C06C70" transform="translate(85,1082)"/>
<path d="M0 0 C0.66 0 1.32 0 2 0 C2.78579793 4.14923058 3.11854983 8.05293431 3.09765625 12.2734375 C3.09282227 14.00400391 3.09282227 14.00400391 3.08789062 15.76953125 C3.07951172 16.95933594 3.07113281 18.14914062 3.0625 19.375 C3.05798828 20.58800781 3.05347656 21.80101562 3.04882812 23.05078125 C3.03708354 26.03390507 3.0206584 29.01692679 3 32 C2.67 32 2.34 32 2 32 C1.66106419 28.16714075 1.32987213 24.33364909 1 20.5 C0.85691406 18.88351562 0.85691406 18.88351562 0.7109375 17.234375 C0.21837674 11.46437756 -0.11244203 5.79076447 0 0 Z " fill="#C05B60" transform="translate(130,1602)"/>
<path d="M0 0 C0.33 0 0.66 0 1 0 C1 2.64 1 5.28 1 8 C1.66 8 2.32 8 3 8 C3 16.58 3 25.16 3 34 C2.67 34 2.34 34 2 34 C1.65955588 30.20893744 1.32897241 26.41707386 1 22.625 C0.90460938 21.56410156 0.80921875 20.50320313 0.7109375 19.41015625 C0.15350208 12.92001533 -0.13132994 6.51360014 0 0 Z " fill="#B86165" transform="translate(102,1276)"/>
<path d="M0 0 C0.33 0 0.66 0 1 0 C1 4.29 1 8.58 1 13 C1.66 13 2.32 13 3 13 C3 21.25 3 29.5 3 38 C2.67 38 2.34 38 2 38 C0.75619344 25.30887266 -0.36285311 12.76033428 0 0 Z " fill="#B86D70" transform="translate(56,740)"/>
<path d="M0 0 C1.25 3.0625 1.25 3.0625 2 6 C1.505 5.34 1.01 4.68 0.5 4 C-3.10340212 1.1172783 -5.46985042 1.69799003 -10 2 C-6.49292529 -0.33804981 -3.97240446 -1.92213119 0 0 Z " fill="#C24A4F" transform="translate(517,966)"/>
<path d="M0 0 C0.639375 0.2475 1.27875 0.495 1.9375 0.75 C2.2675 1.74 2.5975 2.73 2.9375 3.75 C-0.3625 3.42 -3.6625 3.09 -7.0625 2.75 C-2.48557692 -0.30128205 -2.48557692 -0.30128205 0 0 Z " fill="#C0494E" transform="translate(530.0625,979.25)"/>
<path d="M0 0 C0.33 0 0.66 0 1 0 C1 2.97 1 5.94 1 9 C0.34 9 -0.32 9 -1 9 C-1.33 9.99 -1.66 10.98 -2 12 C-3.40907283 9.18185434 -2.50872691 7.82722796 -1.5625 4.875 C-1.27503906 3.96492187 -0.98757812 3.05484375 -0.69140625 2.1171875 C-0.46324219 1.41851562 -0.23507813 0.71984375 0 0 Z " fill="#770304" transform="translate(140,179)"/>
<path d="M0 0 C0.33 0.66 0.66 1.32 1 2 C0.34 2 -0.32 2 -1 2 C-1 2.66 -1 3.32 -1 4 C-1.66 4 -2.32 4 -3 4 C-3 4.66 -3 5.32 -3 6 C-4.32 5.67 -5.64 5.34 -7 5 C-4.69 3.35 -2.38 1.7 0 0 Z " fill="#6F0001" transform="translate(182,118)"/>
<path d="M0 0 C0.33 1.32 0.66 2.64 1 4 C0.34 4 -0.32 4 -1 4 C-1 4.66 -1 5.32 -1 6 C-1.66 6 -2.32 6 -3 6 C-3 6.66 -3 7.32 -3 8 C-3.66 7.67 -4.32 7.34 -5 7 C-3.35 4.69 -1.7 2.38 0 0 Z " fill="#AD5B5F" transform="translate(110,94)"/>
</svg>
